<svg width="15" height="13" viewBox="0 0 15 13" fill="none" xmlns="http://www.w3.org/2000/svg">
<path fill-rule="evenodd" clip-rule="evenodd" d="M4.51666 2.16804C4.72137 1.75862 5.13984 1.5 5.59759 1.5H9.15241C9.61016 1.5 10.0286 1.75862 10.2333 2.16804L10.8148 3.33094C11.122 3.94526 11.7498 4.33332 12.4367 4.33332C12.8859 4.33332 13.25 4.69745 13.25 5.14663V8.69044C13.25 9.3082 13.2482 9.55464 13.2147 9.75206C13.0367 10.7995 12.2162 11.62 11.1688 11.798C10.9713 11.8315 10.7249 11.8333 10.1071 11.8333H4.64286C4.0251 11.8333 3.77865 11.8315 3.58124 11.798C2.53382 11.62 1.71329 10.7995 1.53533 9.75206C1.50179 9.55464 1.50001 9.30819 1.50001 8.69044V5.14663C1.50001 4.69745 1.86414 4.33332 2.31333 4.33332C3.00016 4.33332 3.62805 3.94526 3.93521 3.33094L4.51666 2.16804ZM5.59759 0.5C4.76107 0.5 3.99634 0.972625 3.62223 1.72083L3.04078 2.88373C2.90301 3.15927 2.62139 3.33332 2.31333 3.33332C1.31186 3.33332 0.500008 4.14517 0.500008 5.14663V8.69044L0.500004 8.74666C0.499948 9.29025 0.499913 9.62795 0.549459 9.91956C0.798607 11.3859 1.94735 12.5347 3.41373 12.7838C3.70533 12.8334 4.04303 12.8333 4.58661 12.8333H10.1634C10.7069 12.8333 11.0447 12.8334 11.3363 12.7838C12.8026 12.5347 13.9514 11.3859 14.2005 9.91956C14.2501 9.62796 14.2501 9.29027 14.25 8.74668L14.25 5.14663C14.25 4.14517 13.4381 3.33332 12.4367 3.33332C12.1286 3.33332 11.847 3.15927 11.7092 2.88373L11.1278 1.72083C10.7537 0.972626 9.98893 0.5 9.15241 0.5H5.59759ZM9.20865 7.37505C9.20865 8.38757 8.38784 9.20837 7.37532 9.20837C6.3628 9.20837 5.54199 8.38757 5.54199 7.37505C5.54199 6.36253 6.3628 5.54172 7.37532 5.54172C8.38784 5.54172 9.20865 6.36253 9.20865 7.37505ZM10.2086 7.37505C10.2086 8.93985 8.94012 10.2084 7.37532 10.2084C5.81051 10.2084 4.54199 8.93985 4.54199 7.37505C4.54199 5.81025 5.81051 4.54173 7.37532 4.54173C8.94012 4.54173 10.2086 5.81025 10.2086 7.37505Z" fill="white"/>
</svg>
