<svg width="16" height="14" viewBox="0 0 16 14" fill="none" xmlns="http://www.w3.org/2000/svg">
<rect x="0.5" y="1.16699" width="15.0016" height="11.6679" rx="1.25013" stroke="#394256" stroke-width="0.83342" stroke-linecap="round"/>
<path d="M3 3.66699V3.25028H2.58329V3.66699H3ZM6.03902 7.29533C6.20176 7.45807 6.4656 7.45807 6.62834 7.29533C6.79107 7.13259 6.79107 6.86875 6.62834 6.70601L6.03902 7.29533ZM3.41671 7.00067V3.66699H2.58329V7.00067H3.41671ZM3 4.0837H6.33368V3.25028H3V4.0837ZM2.70534 3.96165L6.03902 7.29533L6.62834 6.70601L3.29466 3.37233L2.70534 3.96165Z" fill="#394256"/>
<path d="M13.002 10.335V10.7517H13.4187V10.335H13.002ZM9.96293 6.70662C9.8002 6.54389 9.53635 6.54389 9.37362 6.70662C9.21088 6.86936 9.21088 7.1332 9.37362 7.29594L9.96293 6.70662ZM12.5852 7.00128V10.335H13.4187V7.00128H12.5852ZM13.002 9.91825H9.66827V10.7517H13.002V9.91825ZM13.2966 10.0403L9.96293 6.70662L9.37362 7.29594L12.7073 10.6296L13.2966 10.0403Z" fill="#394256"/>
</svg>
