<svg width="21" height="22" viewBox="0 0 21 22" fill="none" xmlns="http://www.w3.org/2000/svg">
<path d="M10.5003 0.854492C7.82606 0.854492 5.26132 1.91684 3.37033 3.80783C1.47934 5.69882 0.416992 8.26356 0.416992 10.9378C0.416992 13.6121 1.47934 16.1768 3.37033 18.0678C5.26132 19.9588 7.82606 21.0212 10.5003 21.0212C10.7434 21.0212 10.9766 20.9246 11.1485 20.7527C11.3204 20.5808 11.417 20.3476 11.417 20.1045C11.417 19.8614 11.3204 19.6282 11.1485 19.4563C10.9766 19.2844 10.7434 19.1878 10.5003 19.1878C8.86863 19.1878 7.27358 18.704 5.91687 17.7975C4.56017 16.8909 3.50274 15.6025 2.87832 14.095C2.2539 12.5875 2.09052 10.9287 2.40885 9.32833C2.72717 7.72799 3.51291 6.25798 4.66669 5.10419C5.82048 3.95041 7.29049 3.16468 8.89083 2.84635C10.4912 2.52802 12.15 2.6914 13.6575 3.31582C15.165 3.94024 16.4534 4.99767 17.36 6.35437C18.2665 7.71108 18.7503 9.30613 18.7503 10.9378V13.5567C18.7503 14.0082 18.571 14.4412 18.2517 14.7604C17.9325 15.0796 17.4995 15.259 17.0481 15.259C16.5966 15.259 16.1636 15.0796 15.8444 14.7604C15.5252 14.4412 15.3458 14.0082 15.3458 13.5567V7.00899C15.3458 6.76588 15.2492 6.53272 15.0773 6.36081C14.9054 6.1889 14.6723 6.09233 14.4292 6.09233C14.186 6.09233 13.9529 6.1889 13.781 6.36081C13.6091 6.53272 13.5125 6.76588 13.5125 7.00899V7.17308C12.6617 6.47872 11.5985 6.09724 10.5003 6.09233C9.71457 6.08676 8.93926 6.27237 8.24121 6.63316C7.54316 6.99394 6.94333 7.51908 6.49341 8.16329C6.0435 8.80751 5.75701 9.55148 5.65863 10.3311C5.56026 11.1107 5.65295 11.9025 5.92872 12.6383C6.20449 13.3741 6.65507 14.0317 7.24161 14.5546C7.82815 15.0775 8.53305 15.4499 9.29555 15.6397C10.0581 15.8295 10.8553 15.831 11.6185 15.6441C12.3817 15.4573 13.088 15.0876 13.6766 14.5669C13.9179 15.3799 14.444 16.0787 15.1586 16.5353C15.8732 16.9918 16.7285 17.1756 17.5676 17.0529C18.4067 16.9302 19.1734 16.5092 19.7274 15.8671C20.2813 15.225 20.5853 14.4048 20.5837 13.5567V10.9378C20.5805 8.26453 19.5171 5.70162 17.6268 3.81132C15.7365 1.92101 13.1736 0.857646 10.5003 0.854492V0.854492ZM10.5003 13.95C9.90458 13.95 9.3222 13.7733 8.82686 13.4424C8.33151 13.1114 7.94543 12.6409 7.71745 12.0905C7.48946 11.5401 7.42981 10.9345 7.54604 10.3502C7.66226 9.76588 7.94914 9.22916 8.3704 8.8079C8.79166 8.38664 9.32838 8.09976 9.91268 7.98354C10.497 7.86731 11.1026 7.92696 11.653 8.15495C12.2034 8.38293 12.6739 8.76901 13.0049 9.26436C13.3358 9.7597 13.5125 10.3421 13.5125 10.9378C13.5115 11.7364 13.1939 12.502 12.6292 13.0667C12.0645 13.6314 11.2989 13.949 10.5003 13.95V13.95Z" fill="white"/>
</svg>
