<svg width="20" height="21" viewBox="0 0 20 21" fill="none" xmlns="http://www.w3.org/2000/svg">
<path d="M10 13.8335L9.64645 14.187L10 14.5406L10.3536 14.187L10 13.8335ZM10.5 3.8335C10.5 3.55735 10.2761 3.3335 10 3.3335C9.72386 3.3335 9.5 3.55735 9.5 3.8335L10.5 3.8335ZM4.64645 9.18705L9.64645 14.187L10.3536 13.4799L5.35355 8.47994L4.64645 9.18705ZM10.3536 14.187L15.3536 9.18705L14.6464 8.47994L9.64645 13.4799L10.3536 14.187ZM10.5 13.8335L10.5 3.8335L9.5 3.8335L9.5 13.8335L10.5 13.8335Z" fill="#394256"/>
<path d="M4.16675 18H15.8334" stroke="#394256"/>
</svg>
