<svg width="16" height="16" viewBox="0 0 16 16" fill="none" xmlns="http://www.w3.org/2000/svg">
<path d="M6.71376 3.78206C7.10534 3.12943 7.37065 2.68984 7.60368 2.40627C7.83277 2.1275 7.94228 2.11015 8 2.11015C8.05772 2.11015 8.16723 2.1275 8.39632 2.40627C8.62935 2.68984 8.89466 3.12943 9.28624 3.78206L13.7539 11.2281C14.1654 11.9141 14.4434 12.3799 14.5913 12.7366C14.7379 13.0899 14.6969 13.1968 14.6689 13.2462C14.641 13.2956 14.5704 13.3857 14.192 13.4418C13.8101 13.4985 13.2676 13.4998 12.4676 13.4998H3.53238C2.73241 13.4998 2.18994 13.4985 1.80798 13.4418C1.42958 13.3857 1.35904 13.2956 1.33109 13.2462C1.30314 13.1968 1.26213 13.0899 1.40868 12.7366C1.5566 12.3799 1.83456 11.9141 2.24614 11.2281L6.71376 3.78206Z" stroke="white"/>
<path d="M8.66659 11.3333C8.66659 10.9651 8.36811 10.6667 7.99992 10.6667C7.63173 10.6667 7.33325 10.9651 7.33325 11.3333C7.33325 11.7015 7.63173 12 7.99992 12C8.36811 12 8.66659 11.7015 8.66659 11.3333Z" fill="white"/>
<path d="M8 5.33333L8 10" stroke="white"/>
</svg>
