<svg width="17" height="22" viewBox="0 0 17 22" fill="none" xmlns="http://www.w3.org/2000/svg">
<path d="M6.66667 21.0212H10.3333C10.5764 21.0212 10.8096 20.9246 10.9815 20.7527C11.1534 20.5808 11.25 20.3476 11.25 20.1045V9.40974L16.5667 2.32116C16.6688 2.18497 16.731 2.02303 16.7463 1.85348C16.7616 1.68393 16.7294 1.51348 16.6532 1.36121C16.5771 1.20895 16.4601 1.08089 16.3153 0.991396C16.1704 0.901897 16.0036 0.854492 15.8333 0.854492H1.16667C0.996431 0.854492 0.829558 0.901897 0.684747 0.991396C0.539936 1.08089 0.422907 1.20895 0.346775 1.36121C0.270644 1.51348 0.238416 1.68393 0.253704 1.85348C0.268993 2.02303 0.331192 2.18497 0.433334 2.32116L5.75 9.40974V20.1045C5.75 20.3476 5.84658 20.5808 6.01849 20.7527C6.19039 20.9246 6.42355 21.0212 6.66667 21.0212ZM3 2.68783H14L9.6 8.55449C9.481 8.71316 9.41667 8.90615 9.41667 9.10449V19.1878H7.58333V9.10449C7.58333 8.90615 7.519 8.71316 7.4 8.55449L3 2.68783Z" fill="white"/>
</svg>
