<svg width="18" height="18" viewBox="0 0 18 18" fill="none" xmlns="http://www.w3.org/2000/svg">
<path d="M10.7804 1.80104L10.2829 1.85079V1.85079L10.7804 1.80104ZM10.72 1.37975L10.241 1.52313L10.72 1.37975ZM10.895 2.55447L10.4307 2.7399L10.4307 2.7399L10.895 2.55447ZM12.2181 3.10253L12.0209 2.64307L12.2181 3.10253ZM12.8319 2.65078L13.1485 3.03776L13.1615 3.02709L13.1739 3.01555L12.8319 2.65078ZM12.8319 2.65078L12.5506 2.23742L12.5184 2.25935L12.4899 2.28601L12.8319 2.65078ZM12.8319 2.65077L13.1132 3.06413L13.1314 3.05172L13.1485 3.03775L12.8319 2.65077ZM13.1725 2.39563L12.9352 1.95554L12.9352 1.95554L13.1725 2.39563ZM14.207 2.44723L14.487 2.03294L14.487 2.03294L14.207 2.44723ZM14.5206 2.735L14.167 3.08856V3.08856L14.5206 2.735ZM15.2651 3.47956L15.6187 3.12601V3.12601L15.2651 3.47956ZM15.5529 3.79311L15.1386 4.07305L15.1386 4.07305L15.5529 3.79311ZM15.6045 4.82762L15.1644 4.5903L15.1644 4.5903L15.6045 4.82762ZM15.3493 5.16826L15.7363 5.48488L15.7363 5.48487L15.3493 5.16826ZM14.8976 5.78204L14.4381 5.58482L14.4381 5.58482L14.8976 5.78204ZM15.4456 7.10515L15.6311 6.64081L15.6311 6.64081L15.4456 7.10515ZM16.1991 7.21972L16.1494 7.71723L16.1991 7.21972ZM16.6204 7.28016L16.7638 6.80116L16.6204 7.28016ZM17.3154 8.04814L17.8063 7.95313V7.95313L17.3154 8.04814ZM17.3155 9.95145L16.8246 9.85648V9.85648L17.3155 9.95145ZM16.6203 10.7195L16.477 10.2405L16.6203 10.7195ZM16.1992 10.78L16.1494 10.2824H16.1494L16.1992 10.78ZM15.4461 10.8944L15.2608 10.4301H15.2608L15.4461 10.8944ZM14.898 12.2178L15.3574 12.0205L15.3574 12.0205L14.898 12.2178ZM15.3495 12.8312L14.9625 13.1478L14.9783 13.1671L14.9959 13.1847L15.3495 12.8312ZM15.3495 12.8312L15.7365 12.5146L15.7207 12.4953L15.703 12.4776L15.3495 12.8312ZM15.6045 13.1716L15.1644 13.409L15.1644 13.409L15.6045 13.1716ZM15.5529 14.2063L15.1386 13.9263L15.1386 13.9263L15.5529 14.2063ZM14.2071 15.5521L14.487 15.9664L14.2071 15.5521ZM13.1725 15.6037L12.9352 16.0438L13.1725 15.6037ZM12.8319 15.3485L13.1486 14.9616L13.1296 14.9461L13.1093 14.9325L12.8319 15.3485ZM12.8319 15.3485L12.5196 15.739L12.5365 15.7525L12.5546 15.7646L12.8319 15.3485ZM12.8319 15.3485L12.5153 15.7355L12.5196 15.7389L12.8319 15.3485ZM12.2182 14.8968L12.0209 15.3562L12.021 15.3562L12.2182 14.8968ZM10.895 15.4448L11.3594 15.6303V15.6303L10.895 15.4448ZM10.7805 16.1984L11.2708 16.2965L11.2756 16.2725L11.278 16.2482L10.7805 16.1984ZM10.7805 16.1984L10.2902 16.1004L10.2854 16.1244L10.2829 16.1487L10.7805 16.1984ZM10.72 16.62L10.241 16.4766V16.4766L10.72 16.62ZM9.95211 17.3149L9.85706 16.8241L9.85705 16.8241L9.95211 17.3149ZM8.04863 17.315L7.95362 17.8058L8.04863 17.315ZM7.28065 16.6199L6.80164 16.7633V16.7633L7.28065 16.6199ZM7.2202 16.1986L6.72269 16.2484V16.2484L7.2202 16.1986ZM7.10564 15.4451L6.6413 15.6306L6.6413 15.6306L7.10564 15.4451ZM5.78254 14.8971L5.58533 14.4376L5.78254 14.8971ZM5.16872 15.3489L4.8521 14.9619L4.8521 14.9619L5.16872 15.3489ZM4.82806 15.6041L4.59075 15.164H4.59075L4.82806 15.6041ZM3.79357 15.5525L4.0735 15.1382L4.0735 15.1382L3.79357 15.5525ZM3.48001 15.2647L3.10837 15.5992L3.11716 15.6089L3.12646 15.6182L3.48001 15.2647ZM3.48 15.2647L3.85165 14.9302L3.84285 14.9204L3.83355 14.9111L3.48 15.2647ZM2.73547 14.5201L2.36689 14.858L2.37423 14.866L2.38191 14.8737L2.73547 14.5201ZM2.73546 14.5201L3.10404 14.1823L3.09669 14.1742L3.08901 14.1666L2.73546 14.5201ZM2.44767 14.2066L2.03338 14.4865L2.44767 14.2066ZM2.39607 13.1721L1.95598 12.9347L1.95598 12.9347L2.39607 13.1721ZM2.65125 12.8314L3.03822 13.148L3.04491 13.1399L3.05125 13.1314L2.65125 12.8314ZM2.65125 12.8314L2.26427 12.5148L2.25759 12.523L2.25125 12.5314L2.65125 12.8314ZM3.10301 12.2176L3.56247 12.4149L3.56247 12.4149L3.10301 12.2176ZM2.55496 10.8945L2.74039 10.4302H2.74039L2.55496 10.8945ZM1.80152 10.78L1.71932 11.2732L1.73547 11.2758L1.75177 11.2775L1.80152 10.78ZM1.8015 10.78L1.8837 10.2868L1.86755 10.2841L1.85125 10.2824L1.8015 10.78ZM1.38024 10.7195L1.23686 11.1985L1.23686 11.1985L1.38024 10.7195ZM0.685209 9.95152L0.194317 10.0465L0.194317 10.0465L0.685209 9.95152ZM0.685225 8.04807L1.17611 8.14312L1.17611 8.14311L0.685225 8.04807ZM1.38016 7.28018L1.23674 6.80119H1.23674L1.38016 7.28018ZM1.80162 7.21971L1.75187 6.72219H1.75187L1.80162 7.21971ZM2.55538 7.10508L2.74087 7.5694L2.74087 7.5694L2.55538 7.10508ZM3.10337 5.78212L3.56286 5.58495L3.56286 5.58495L3.10337 5.78212ZM2.65139 5.16802L3.03837 4.8514L3.03837 4.8514L2.65139 5.16802ZM2.39606 4.82714L2.83617 4.58987V4.58987L2.39606 4.82714ZM2.44764 3.79283L2.86197 4.07272L2.86197 4.07272L2.44764 3.79283ZM3.79361 2.44684L3.51368 2.03254L3.51368 2.03254L3.79361 2.44684ZM4.8281 2.39524L4.59079 2.83533L4.59079 2.83533L4.8281 2.39524ZM5.16881 2.65047L4.85215 3.03749L4.85846 3.04249L5.16881 2.65047ZM5.16882 2.65047L5.49808 2.27418L5.48882 2.26608L5.47917 2.25845L5.16882 2.65047ZM5.16883 2.65047L4.83957 3.02676L4.8458 3.03221L4.85221 3.03745L5.16883 2.65047ZM5.78244 3.10215L5.97972 2.64272L5.97972 2.64272L5.78244 3.10215ZM7.10573 2.55403L6.64136 2.36865V2.36865L7.10573 2.55403ZM7.22022 1.80093L6.7227 1.75117V1.75117L7.22022 1.80093ZM7.28062 1.37983L7.75963 1.52317V1.52317L7.28062 1.37983ZM8.04873 0.684704L8.14369 1.1756L8.04873 0.684704ZM9.95201 0.684721L9.85701 1.17561L9.85701 1.17561L9.95201 0.684721ZM11.278 1.75128C11.2582 1.55412 11.2437 1.38557 11.199 1.23638L10.241 1.52313C10.2513 1.55763 10.2587 1.6087 10.2829 1.85079L11.278 1.75128ZM11.3593 2.36904C11.3562 2.36122 11.3444 2.3253 11.3288 2.21452C11.3136 2.10674 11.2991 1.96298 11.278 1.75128L10.2829 1.85079C10.3033 2.05405 10.3199 2.22151 10.3386 2.35395C10.3568 2.4834 10.3815 2.61671 10.4307 2.7399L11.3593 2.36904ZM12.0209 2.64307C11.7626 2.75396 11.4636 2.63013 11.3593 2.36904L10.4307 2.7399C10.7435 3.52317 11.6403 3.89467 12.4154 3.56199L12.0209 2.64307ZM12.5153 2.26381C12.3506 2.39853 12.2387 2.48994 12.1518 2.55542C12.0624 2.62272 12.0286 2.63975 12.0209 2.64307L12.4154 3.56199C12.5372 3.50967 12.649 3.43285 12.7534 3.35421C12.8602 3.27375 12.9904 3.16711 13.1485 3.03776L12.5153 2.26381ZM12.4899 2.28601L12.4899 2.28602L13.1739 3.01555L13.1739 3.01555L12.4899 2.28601ZM12.5506 2.23742L12.5506 2.23742L13.1132 3.06414L13.1132 3.06413L12.5506 2.23742ZM12.9352 1.95554C12.7981 2.02946 12.6686 2.13833 12.5153 2.2638L13.1485 3.03775C13.3368 2.8837 13.3781 2.85281 13.4098 2.83572L12.9352 1.95554ZM14.487 2.03294C14.0244 1.72038 13.4265 1.69056 12.9352 1.95554L13.4098 2.83572C13.5736 2.74739 13.7729 2.75733 13.9271 2.86152L14.487 2.03294ZM14.8741 2.38145C14.734 2.24134 14.616 2.12013 14.487 2.03294L13.9271 2.86151C13.9569 2.88168 13.995 2.91653 14.167 3.08856L14.8741 2.38145ZM15.6187 3.12601L14.8741 2.38145L14.167 3.08856L14.9116 3.83311L15.6187 3.12601ZM15.9672 3.51318C15.88 3.38413 15.7588 3.26612 15.6187 3.12601L14.9116 3.83311C15.0836 4.00515 15.1185 4.0432 15.1386 4.07305L15.9672 3.51318ZM16.0446 5.06495C16.3096 4.57359 16.2797 3.97573 15.9672 3.51318L15.1386 4.07305C15.2428 4.22723 15.2527 4.42652 15.1644 4.5903L16.0446 5.06495ZM15.7363 5.48487C15.8618 5.33152 15.9707 5.20202 16.0446 5.06494L15.1644 4.5903C15.1473 4.622 15.1164 4.66334 14.9624 4.85164L15.7363 5.48487ZM15.357 5.97925C15.3604 5.97152 15.3774 5.93774 15.4447 5.84838C15.5102 5.76143 15.6016 5.64954 15.7363 5.48488L14.9624 4.85164C14.833 5.00974 14.7264 5.13993 14.6459 5.24677C14.5673 5.35119 14.4904 5.46292 14.4381 5.58482L15.357 5.97925ZM15.6311 6.64081C15.37 6.53654 15.2462 6.23759 15.357 5.97925L14.4381 5.58482C14.1055 6.35985 14.4769 7.2567 15.2602 7.56949L15.6311 6.64081ZM16.2489 6.7222C16.0371 6.70103 15.8934 6.68655 15.7856 6.67138C15.6748 6.65578 15.6389 6.64393 15.6311 6.64081L15.2602 7.56949C15.3834 7.61869 15.5167 7.64338 15.6462 7.66161C15.7786 7.68026 15.9461 7.69691 16.1494 7.71723L16.2489 6.7222ZM16.7638 6.80116C16.6146 6.75649 16.446 6.74191 16.2489 6.7222L16.1494 7.71723C16.3915 7.74144 16.4425 7.74883 16.477 7.75916L16.7638 6.80116ZM17.8063 7.95313C17.7003 7.40506 17.2986 6.96124 16.7638 6.80116L16.477 7.75916C16.6553 7.81252 16.7892 7.96046 16.8246 8.14315L17.8063 7.95313ZM17.8337 8.47337C17.8337 8.27522 17.8359 8.10604 17.8063 7.95313L16.8246 8.14315C16.8314 8.17851 16.8337 8.23007 16.8337 8.47337H17.8337ZM17.8337 9.5264V8.47337H16.8337V9.5264H17.8337ZM17.8064 10.0464C17.8359 9.89358 17.8337 9.72447 17.8337 9.5264H16.8337C16.8337 9.7696 16.8314 9.82114 16.8246 9.85648L17.8064 10.0464ZM16.7637 11.1986C17.2986 11.0385 17.7003 10.5946 17.8064 10.0464L16.8246 9.85648C16.7892 10.0392 16.6553 10.1872 16.477 10.2405L16.7637 11.1986ZM16.2489 11.2775C16.446 11.2578 16.6145 11.2432 16.7637 11.1986L16.477 10.2405C16.4425 10.2508 16.3914 10.2582 16.1494 10.2824L16.2489 11.2775ZM15.6315 11.3588C15.6393 11.3557 15.6752 11.3439 15.7859 11.3283C15.8936 11.3131 16.0373 11.2986 16.2489 11.2775L16.1494 10.2824C15.9463 10.3027 15.7789 10.3194 15.6465 10.338C15.5171 10.3562 15.3839 10.3809 15.2608 10.4301L15.6315 11.3588ZM15.3574 12.0205C15.2464 11.7621 15.3703 11.463 15.6315 11.3588L15.2608 10.4301C14.4773 10.7428 14.1057 11.6399 14.4385 12.4151L15.3574 12.0205ZM15.7364 12.5145C15.6018 12.35 15.5104 12.2382 15.445 12.1513C15.3777 12.0619 15.3607 12.0282 15.3574 12.0205L14.4385 12.4151C14.4908 12.5369 14.5676 12.6485 14.6462 12.7529C14.7266 12.8597 14.8332 12.9898 14.9625 13.1478L15.7364 12.5145ZM15.703 12.4776L15.703 12.4776L14.9959 13.1847L14.9959 13.1847L15.703 12.4776ZM15.703 12.4776L15.703 12.4776L14.9959 13.1847L14.9959 13.1847L15.703 12.4776ZM16.0446 12.9342C15.9707 12.7972 15.8619 12.6678 15.7365 12.5146L14.9625 13.1478C15.1165 13.336 15.1473 13.3773 15.1644 13.409L16.0446 12.9342ZM15.9671 14.4863C16.2798 14.0237 16.3096 13.4256 16.0446 12.9342L15.1644 13.409C15.2528 13.5728 15.2428 13.7721 15.1386 13.9263L15.9671 14.4863ZM15.6188 14.8732C15.7588 14.7332 15.88 14.6152 15.9671 14.4863L15.1386 13.9263C15.1185 13.9561 15.0836 13.9942 14.9117 14.1661L15.6188 14.8732ZM14.8742 15.6179L15.6188 14.8732L14.9117 14.1661L14.1671 14.9107L14.8742 15.6179ZM14.487 15.9664C14.616 15.8792 14.7341 15.758 14.8742 15.6179L14.1671 14.9107C13.995 15.0828 13.957 15.1176 13.9271 15.1378L14.487 15.9664ZM12.9352 16.0438C13.4266 16.3087 14.0244 16.2789 14.487 15.9664L13.9271 15.1378C13.7729 15.242 13.5737 15.2519 13.4099 15.1636L12.9352 16.0438ZM12.5153 15.7355C12.6687 15.861 12.7981 15.9698 12.9352 16.0438L13.4099 15.1636C13.3782 15.1465 13.3368 15.1156 13.1486 14.9616L12.5153 15.7355ZM12.5546 15.7646L12.5546 15.7646L13.1093 14.9325L13.1093 14.9325L12.5546 15.7646ZM12.5196 15.7389L12.5196 15.739L13.1443 14.9581L13.1443 14.9581L12.5196 15.7389ZM12.021 15.3562C12.0287 15.3596 12.0625 15.3766 12.1518 15.4439C12.2388 15.5094 12.3506 15.6008 12.5153 15.7355L13.1485 14.9615C12.9904 14.8322 12.8603 14.7256 12.7534 14.6451C12.649 14.5664 12.5373 14.4896 12.4154 14.4373L12.021 15.3562ZM11.3594 15.6303C11.4636 15.3692 11.7626 15.2453 12.0209 15.3562L12.4154 14.4373C11.6404 14.1046 10.7435 14.4761 10.4307 15.2594L11.3594 15.6303ZM11.278 16.2482C11.2992 16.0364 11.3136 15.8926 11.3288 15.7848C11.3444 15.674 11.3563 15.6381 11.3594 15.6303L10.4307 15.2594C10.3815 15.3826 10.3568 15.5159 10.3386 15.6454C10.3199 15.7779 10.3033 15.9454 10.283 16.1487L11.278 16.2482ZM11.2708 16.2965L11.2708 16.2965L10.2902 16.1004L10.2902 16.1004L11.2708 16.2965ZM11.199 16.7634C11.2437 16.6142 11.2583 16.4455 11.278 16.2482L10.2829 16.1487C10.2587 16.391 10.2513 16.4421 10.241 16.4766L11.199 16.7634ZM10.0472 17.8058C10.5951 17.6997 11.0389 17.2981 11.199 16.7634L10.241 16.4766C10.1876 16.6548 10.0397 16.7887 9.85706 16.8241L10.0472 17.8058ZM9.52668 17.8332C9.72493 17.8332 9.89418 17.8354 10.0472 17.8058L9.85705 16.8241C9.82168 16.8309 9.7701 16.8332 9.52668 16.8332V17.8332ZM8.47386 17.8332H9.52668V16.8332H8.47386V17.8332ZM7.95362 17.8058C8.10653 17.8354 8.2757 17.8332 8.47386 17.8332V16.8332C8.23056 16.8332 8.179 16.8309 8.14364 16.8241L7.95362 17.8058ZM6.80164 16.7633C6.96173 17.2981 7.40555 17.6998 7.95362 17.8058L8.14364 16.8241C7.96095 16.7887 7.81301 16.6548 7.75965 16.4766L6.80164 16.7633ZM6.72269 16.2484C6.7424 16.4456 6.75698 16.6141 6.80164 16.7633L7.75965 16.4766C7.74932 16.442 7.74193 16.391 7.71772 16.1489L6.72269 16.2484ZM6.6413 15.6306C6.64442 15.6384 6.65626 15.6743 6.67186 15.7851C6.68704 15.8929 6.70152 16.0367 6.72269 16.2484L7.71772 16.1489C7.6974 15.9456 7.68075 15.7781 7.66209 15.6457C7.64387 15.5162 7.61918 15.3829 7.56998 15.2597L6.6413 15.6306ZM5.97975 15.3566C6.23809 15.2457 6.53703 15.3695 6.6413 15.6306L7.56998 15.2597C7.25718 14.4765 6.36034 14.105 5.58533 14.4376L5.97975 15.3566ZM5.48534 15.7359C5.65002 15.6011 5.76191 15.5097 5.84886 15.4442C5.93824 15.3769 5.97201 15.3599 5.97975 15.3566L5.58533 14.4376C5.46342 14.49 5.35169 14.5668 5.24726 14.6454C5.14041 14.7259 5.01021 14.8325 4.8521 14.9619L5.48534 15.7359ZM5.06538 16.0442C5.20247 15.9702 5.33197 15.8613 5.48534 15.7359L4.8521 14.9619C4.66379 15.116 4.62245 15.1469 4.59075 15.164L5.06538 16.0442ZM3.51364 15.9668C3.97619 16.2793 4.57403 16.3091 5.06538 16.0442L4.59075 15.164C4.42696 15.2523 4.22768 15.2424 4.0735 15.1382L3.51364 15.9668ZM3.12646 15.6182C3.26657 15.7583 3.3846 15.8796 3.51365 15.9668L4.0735 15.1382C4.04366 15.118 4.0056 15.0832 3.83356 14.9111L3.12646 15.6182ZM3.10835 15.5991L3.10837 15.5992L3.85166 14.9302L3.85165 14.9302L3.10835 15.5991ZM2.38191 14.8737L3.12645 15.6182L3.83355 14.9111L3.08902 14.1666L2.38191 14.8737ZM2.36688 14.858L2.36689 14.858L3.10404 14.1823L3.10404 14.1823L2.36688 14.858ZM2.03338 14.4865C2.12057 14.6155 2.24179 14.7336 2.38191 14.8737L3.08901 14.1666C2.91698 13.9945 2.88213 13.9565 2.86196 13.9266L2.03338 14.4865ZM1.95598 12.9347C1.69102 13.4261 1.72084 14.0239 2.03338 14.4865L2.86196 13.9266C2.75778 13.7725 2.74784 13.5732 2.83616 13.4094L1.95598 12.9347ZM2.26427 12.5148C2.13879 12.6682 2.02991 12.7977 1.95598 12.9347L2.83616 13.4094C2.85326 13.3777 2.88415 13.3363 3.03822 13.148L2.26427 12.5148ZM2.25125 12.5314L2.25125 12.5314L3.05125 13.1314L3.05125 13.1314L2.25125 12.5314ZM2.64355 12.0204C2.64023 12.0281 2.62321 12.0619 2.5559 12.1513C2.49042 12.2382 2.399 12.3501 2.26427 12.5148L3.03823 13.148C3.16758 12.9899 3.27423 12.8597 3.35469 12.7529C3.43334 12.6485 3.51015 12.5367 3.56247 12.4149L2.64355 12.0204ZM2.36952 11.3589C2.63061 11.4631 2.75444 11.7621 2.64355 12.0204L3.56247 12.4149C3.89515 11.6398 3.52366 10.743 2.74039 10.4302L2.36952 11.3589ZM1.75177 11.2775C1.96347 11.2986 2.10722 11.3131 2.215 11.3283C2.32579 11.3439 2.36171 11.3557 2.36952 11.3589L2.74039 10.4302C2.6172 10.381 2.48388 10.3563 2.35444 10.3381C2.22199 10.3194 2.05453 10.3028 1.85127 10.2824L1.75177 11.2775ZM1.7193 11.2731L1.71932 11.2732L1.88372 10.2868L1.8837 10.2868L1.7193 11.2731ZM1.23686 11.1985C1.38606 11.2432 1.5546 11.2578 1.75175 11.2775L1.85125 10.2824C1.60919 10.2582 1.55811 10.2508 1.52362 10.2405L1.23686 11.1985ZM0.194317 10.0465C0.300388 10.5946 0.702054 11.0384 1.23686 11.1985L1.52362 10.2405C1.34535 10.1872 1.21146 10.0392 1.1761 9.85652L0.194317 10.0465ZM0.166992 9.52632C0.166992 9.72446 0.164727 9.89362 0.194317 10.0465L1.1761 9.85652C1.16926 9.82116 1.16699 9.76961 1.16699 9.52632H0.166992ZM0.166992 8.47346V9.52632H1.16699V8.47346H0.166992ZM0.194341 7.95303C0.164725 8.10599 0.166992 8.27523 0.166992 8.47346H1.16699C1.16699 8.23006 1.16926 8.17849 1.17611 8.14312L0.194341 7.95303ZM1.23674 6.80119C0.702034 6.96129 0.30044 7.40504 0.194341 7.95303L1.17611 8.14311C1.21147 7.96045 1.34534 7.81253 1.52358 7.75917L1.23674 6.80119ZM1.75187 6.72219C1.55462 6.74191 1.386 6.7565 1.23674 6.80119L1.52358 7.75917C1.55809 7.74883 1.60919 7.74144 1.85137 7.71723L1.75187 6.72219ZM2.36989 6.64076C2.36207 6.64389 2.32614 6.65574 2.21531 6.67135C2.10748 6.68653 1.96366 6.70101 1.75187 6.72219L1.85137 7.71723C2.05472 7.69689 2.22226 7.68023 2.35476 7.66157C2.48426 7.64334 2.61764 7.61863 2.74087 7.5694L2.36989 6.64076ZM2.64389 5.97928C2.75473 6.23759 2.63092 6.53648 2.36989 6.64076L2.74087 7.5694C3.52397 7.25657 3.89538 6.35989 3.56286 5.58495L2.64389 5.97928ZM2.26441 5.48464C2.39921 5.64939 2.49068 5.76134 2.5562 5.84833C2.62354 5.93775 2.64057 5.97155 2.64389 5.97928L3.56286 5.58495C3.51053 5.463 3.43368 5.35121 3.355 5.24674C3.27449 5.13984 3.16779 5.00959 3.03837 4.8514L2.26441 5.48464ZM1.95594 5.06441C2.02989 5.20158 2.13885 5.33117 2.26441 5.48464L3.03837 4.8514C2.88419 4.66296 2.85328 4.62159 2.83617 4.58987L1.95594 5.06441ZM2.03332 3.51295C1.7209 3.97543 1.69109 4.57313 1.95594 5.06441L2.83617 4.58987C2.74789 4.42611 2.75783 4.22688 2.86197 4.07272L2.03332 3.51295ZM2.38205 3.12552C2.24185 3.26572 2.12055 3.38381 2.03332 3.51295L2.86197 4.07272C2.88214 4.04286 2.91701 4.00477 3.08916 3.83263L2.38205 3.12552ZM3.12648 2.38109L2.38205 3.12552L3.08916 3.83263L3.83359 3.0882L3.12648 2.38109ZM3.51368 2.03254C3.38463 2.11974 3.26661 2.24097 3.12648 2.38109L3.83359 3.0882C4.00564 2.91615 4.0437 2.8813 4.07354 2.86113L3.51368 2.03254ZM5.06542 1.95515C4.57407 1.69019 3.97623 1.72001 3.51368 2.03254L4.07354 2.86113C4.22772 2.75695 4.427 2.74701 4.59079 2.83533L5.06542 1.95515ZM5.48543 2.26349C5.33203 2.13798 5.20251 2.02907 5.06542 1.95515L4.59079 2.83533C4.62248 2.85243 4.66384 2.88333 4.8522 3.03744L5.48543 2.26349ZM5.47917 2.25845L5.47917 2.25844L4.85846 3.04249L4.85847 3.0425L5.47917 2.25845ZM5.49808 2.27419L5.49808 2.27418L4.83957 3.02676L4.83957 3.02676L5.49808 2.27419ZM5.97972 2.64272C5.972 2.6394 5.93823 2.62238 5.84888 2.55507C5.76195 2.4896 5.65008 2.3982 5.48544 2.2635L4.85221 3.03745C5.01028 3.16678 5.14044 3.2734 5.24725 3.35385C5.35163 3.43247 5.46333 3.50927 5.58516 3.56159L5.97972 2.64272ZM6.64136 2.36865C6.53711 2.6298 6.23809 2.75366 5.97972 2.64272L5.58516 3.56159C6.36029 3.89442 7.25734 3.52285 7.57009 2.7394L6.64136 2.36865ZM6.7227 1.75117C6.70154 1.96278 6.68707 2.10647 6.6719 2.2142C6.65631 2.32494 6.64448 2.36084 6.64136 2.36865L7.57009 2.7394C7.61925 2.61627 7.64392 2.48301 7.66214 2.35362C7.68078 2.22123 7.69742 2.05384 7.71774 1.85068L6.7227 1.75117ZM6.8016 1.2365C6.75698 1.38563 6.74241 1.5541 6.7227 1.75117L7.71774 1.85068C7.74193 1.60871 7.74931 1.55766 7.75963 1.52317L6.8016 1.2365ZM7.95377 0.193804C7.40558 0.299845 6.96166 0.701587 6.8016 1.2365L7.75963 1.52317C7.81299 1.34487 7.96096 1.21095 8.14369 1.1756L7.95377 0.193804ZM8.47374 0.166504C8.27569 0.166504 8.1066 0.16424 7.95377 0.193804L8.14369 1.1756C8.17903 1.16877 8.23056 1.1665 8.47374 1.1665V0.166504ZM9.52681 0.166504H8.47374V1.1665H9.52681V0.166504ZM10.047 0.193829C9.89411 0.164238 9.72495 0.166504 9.52681 0.166504V1.1665C9.7701 1.1665 9.82165 1.16877 9.85701 1.17561L10.047 0.193829ZM11.199 1.23638C11.0389 0.701566 10.5951 0.2999 10.047 0.193829L9.85701 1.17561C10.0397 1.21097 10.1876 1.34486 10.241 1.52313L11.199 1.23638ZM11.8337 8.99984C11.8337 10.5646 10.5651 11.8332 9.00033 11.8332V12.8332C11.1174 12.8332 12.8337 11.1169 12.8337 8.99984H11.8337ZM9.00033 6.1665C10.5651 6.1665 11.8337 7.43503 11.8337 8.99984H12.8337C12.8337 6.88275 11.1174 5.1665 9.00033 5.1665V6.1665ZM6.16699 8.99984C6.16699 7.43503 7.43552 6.1665 9.00033 6.1665V5.1665C6.88323 5.1665 5.16699 6.88275 5.16699 8.99984H6.16699ZM9.00033 11.8332C7.43552 11.8332 6.16699 10.5646 6.16699 8.99984H5.16699C5.16699 11.1169 6.88323 12.8332 9.00033 12.8332V11.8332Z" fill="#394256"/>
</svg>
