<svg width="17" height="23" viewBox="0 0 17 23" fill="none" xmlns="http://www.w3.org/2000/svg">
<path d="M8.47852 0.182617C7.15292 0.184205 5.88207 0.711499 4.94474 1.64884C4.0074 2.58617 3.4801 3.85702 3.47852 5.18262V7.94762C2.18466 8.98353 1.24451 10.3957 0.787975 11.9891C0.331441 13.5824 0.381072 15.2782 0.930007 16.8421C1.47894 18.4061 2.50008 19.7609 3.8523 20.7193C5.20452 21.6778 6.82106 22.1926 8.47852 22.1926C10.136 22.1926 11.7525 21.6778 13.1047 20.7193C14.457 19.7609 15.4781 18.4061 16.027 16.8421C16.576 15.2782 16.6256 13.5824 16.1691 11.9891C15.7125 10.3957 14.7724 8.98353 13.4785 7.94762V5.18262C13.4769 3.85702 12.9496 2.58617 12.0123 1.64884C11.075 0.711499 9.80411 0.184205 8.47852 0.182617ZM5.47852 5.18262C5.47852 4.38697 5.79459 3.62391 6.3572 3.0613C6.9198 2.49869 7.68287 2.18262 8.47852 2.18262C9.27417 2.18262 10.0372 2.49869 10.5998 3.0613C11.1624 3.62391 11.4785 4.38697 11.4785 5.18262V6.77162C9.5556 5.98633 7.40143 5.98633 5.47852 6.77162V5.18262ZM14.4785 14.1826C14.4785 15.3693 14.1266 16.5293 13.4673 17.516C12.808 18.5027 11.871 19.2718 10.7746 19.7259C9.67826 20.18 8.47186 20.2988 7.30797 20.0673C6.14409 19.8358 5.07499 19.2644 4.23588 18.4253C3.39676 17.5861 2.82532 16.517 2.5938 15.3532C2.36229 14.1893 2.48111 12.9829 2.93524 11.8865C3.38936 10.7902 4.1584 9.85309 5.14509 9.1938C6.13179 8.53451 7.29183 8.18262 8.47852 8.18262C10.0693 8.18421 11.5945 8.81686 12.7194 9.94173C13.8443 11.0666 14.4769 12.5918 14.4785 14.1826ZM10.4785 13.1826C10.4775 13.5323 10.3846 13.8755 10.2091 14.1779C10.0336 14.4804 9.78164 14.7313 9.47852 14.9056V17.1826C9.47852 17.4478 9.37316 17.7022 9.18562 17.8897C8.99809 18.0773 8.74373 18.1826 8.47852 18.1826C8.2133 18.1826 7.95895 18.0773 7.77141 17.8897C7.58387 17.7022 7.47852 17.4478 7.47852 17.1826V14.9056C7.17415 14.7299 6.92146 14.4771 6.74591 14.1726C6.57036 13.8681 6.47814 13.5228 6.47854 13.1713C6.47894 12.8198 6.57194 12.4747 6.74819 12.1706C6.92444 11.8666 7.1777 11.6143 7.48246 11.4393C7.78723 11.2642 8.13274 11.1726 8.48419 11.1736C8.83565 11.1746 9.18064 11.2682 9.48441 11.4449C9.78818 11.6217 10.04 11.8754 10.2145 12.1804C10.3891 12.4855 10.4801 12.8312 10.4785 13.1826Z" fill="#394256"/>
</svg>
