<svg width="21" height="18" viewBox="0 0 21 18" fill="none" xmlns="http://www.w3.org/2000/svg">
<path d="M3.16699 4.35417C3.16699 5.07936 3.38204 5.78828 3.78494 6.39126C4.18784 6.99424 4.76049 7.4642 5.43049 7.74173C6.10048 8.01925 6.83773 8.09186 7.54899 7.95038C8.26025 7.8089 8.91359 7.45968 9.42638 6.94689C9.93918 6.4341 10.2884 5.78076 10.4299 5.0695C10.5714 4.35823 10.4987 3.62099 10.2212 2.95099C9.9437 2.281 9.47373 1.70834 8.87075 1.30544C8.26777 0.902546 7.55886 0.6875 6.83366 0.6875C5.8612 0.6875 4.92857 1.07381 4.24093 1.76144C3.5533 2.44908 3.16699 3.38171 3.16699 4.35417V4.35417ZM8.66699 4.35417C8.66699 4.71677 8.55947 5.07122 8.35802 5.37271C8.15657 5.6742 7.87024 5.90919 7.53525 6.04795C7.20025 6.18671 6.83163 6.22301 6.47599 6.15227C6.12036 6.08153 5.79369 5.90693 5.5373 5.65053C5.2809 5.39413 5.10629 5.06746 5.03555 4.71183C4.96481 4.3562 5.00112 3.98758 5.13988 3.65258C5.27864 3.31758 5.51362 3.03126 5.81511 2.82981C6.1166 2.62836 6.47106 2.52083 6.83366 2.52083C7.31989 2.52083 7.7862 2.71399 8.13002 3.0578C8.47384 3.40162 8.66699 3.86794 8.66699 4.35417ZM1.33366 17.1875H12.3337C12.5768 17.1875 12.8099 17.0909 12.9818 16.919C13.1537 16.7471 13.2503 16.5139 13.2503 16.2708V13.5208C13.2503 12.5484 12.864 11.6157 12.1764 10.9281C11.4888 10.2405 10.5561 9.85417 9.58366 9.85417H4.08366C3.1112 9.85417 2.17857 10.2405 1.49093 10.9281C0.803301 11.6157 0.416992 12.5484 0.416992 13.5208V16.2708C0.416992 16.5139 0.513569 16.7471 0.685478 16.919C0.857386 17.0909 1.09054 17.1875 1.33366 17.1875ZM2.25033 13.5208C2.25033 13.0346 2.44348 12.5683 2.7873 12.2245C3.13111 11.8807 3.59743 11.6875 4.08366 11.6875H9.58366C10.0699 11.6875 10.5362 11.8807 10.88 12.2245C11.2238 12.5683 11.417 13.0346 11.417 13.5208V15.3542H2.25033V13.5208ZM20.5837 1.60417C20.5837 1.84728 20.4871 2.08044 20.3152 2.25235C20.1433 2.42426 19.9101 2.52083 19.667 2.52083H14.167C13.9239 2.52083 13.6907 2.42426 13.5188 2.25235C13.3469 2.08044 13.2503 1.84728 13.2503 1.60417C13.2503 1.36105 13.3469 1.12789 13.5188 0.955985C13.6907 0.784077 13.9239 0.6875 14.167 0.6875H19.667C19.9101 0.6875 20.1433 0.784077 20.3152 0.955985C20.4871 1.12789 20.5837 1.36105 20.5837 1.60417ZM20.5837 5.27083C20.5837 5.51395 20.4871 5.74711 20.3152 5.91901C20.1433 6.09092 19.9101 6.1875 19.667 6.1875H14.167C13.9239 6.1875 13.6907 6.09092 13.5188 5.91901C13.3469 5.74711 13.2503 5.51395 13.2503 5.27083C13.2503 5.02772 13.3469 4.79456 13.5188 4.62265C13.6907 4.45074 13.9239 4.35417 14.167 4.35417H19.667C19.9101 4.35417 20.1433 4.45074 20.3152 4.62265C20.4871 4.79456 20.5837 5.02772 20.5837 5.27083ZM20.5837 8.9375C20.5837 9.18062 20.4871 9.41377 20.3152 9.58568C20.1433 9.75759 19.9101 9.85417 19.667 9.85417H14.167C13.9239 9.85417 13.6907 9.75759 13.5188 9.58568C13.3469 9.41377 13.2503 9.18062 13.2503 8.9375C13.2503 8.69439 13.3469 8.46123 13.5188 8.28932C13.6907 8.11741 13.9239 8.02083 14.167 8.02083H19.667C19.9101 8.02083 20.1433 8.11741 20.3152 8.28932C20.4871 8.46123 20.5837 8.69439 20.5837 8.9375Z" fill="white"/>
</svg>
