<svg width="12" height="12" viewBox="0 0 12 12" fill="none" xmlns="http://www.w3.org/2000/svg">
<path d="M1.80843 10.5479L1.97271 11.0201L1.9727 11.0201L1.95151 11.0275L3.58384 10.6194C3.59896 10.6156 3.61396 10.6119 3.62885 10.6082C3.85159 10.5528 4.04876 10.5037 4.2278 10.4023C4.40683 10.301 4.55035 10.1571 4.71248 9.99467C4.72332 9.98381 4.73425 9.97286 4.74527 9.96184L9.97855 4.72855L9.99199 4.71512C10.1755 4.53158 10.3339 4.37324 10.4539 4.23226C10.5805 4.08348 10.693 3.92199 10.7591 3.72361L10.2846 3.56574M1.80843 10.5479L1.92972 11.033L1.92971 11.033C1.92085 11.0352 1.91195 11.0374 1.90301 11.0396C1.74633 11.0789 1.57899 11.1208 1.43846 11.1345C1.28373 11.1497 1.02267 11.1461 0.813262 10.9367C0.603851 10.7273 0.600323 10.4663 0.615459 10.3115C0.629207 10.171 0.671116 10.0037 0.710358 9.84698C0.712596 9.83805 0.714826 9.82914 0.717042 9.82028L1.13057 8.16616C1.13435 8.15104 1.13809 8.13603 1.14179 8.12114C1.19723 7.89841 1.2463 7.70123 1.34766 7.5222C1.44903 7.34317 1.59286 7.19965 1.75533 7.03752C1.76619 7.02668 1.77714 7.01576 1.78816 7.00473L1.78816 7.00473L7.02144 1.77145L7.03486 1.75803C7.2184 1.57448 7.37675 1.41612 7.51774 1.29613C7.66652 1.16953 7.82801 1.05696 8.02639 0.990944C8.33384 0.888637 8.66616 0.888637 8.97361 0.990944C9.17199 1.05696 9.33348 1.16953 9.48226 1.29613C9.62324 1.41611 9.78158 1.57446 9.96512 1.75801L9.97855 1.77145L9.99199 1.78488C10.1755 1.96842 10.3339 2.12676 10.4539 2.26774C10.5805 2.41652 10.693 2.57801 10.7591 2.77639L10.2846 2.93426M1.80843 10.5479L3.46257 10.1344C3.72963 10.0676 3.86316 10.0342 3.98145 9.96724M1.80843 10.5479L3.98145 9.96724M10.2846 3.56574L10.7591 3.72361C10.8614 3.41616 10.8614 3.08384 10.7591 2.77639L10.2846 2.93426M10.2846 3.56574C10.21 3.78999 10.015 3.98499 9.625 4.375L4.39172 9.60828C4.19706 9.80294 4.09974 9.90026 3.98145 9.96724M10.2846 3.56574C10.3528 3.36077 10.3528 3.13923 10.2846 2.93426M10.2846 2.93426L3.98145 9.96724" stroke="black"/>
</svg>
