<svg width="23" height="23" viewBox="0 0 23 23" fill="none" xmlns="http://www.w3.org/2000/svg">
<g clip-path="url(#clip0_1090_16348)">
<path d="M11.4997 1.854C9.63984 1.85494 7.83482 2.48432 6.37756 3.64002C4.9203 4.79572 3.89631 6.40993 3.47174 8.22073C3.04717 10.0315 3.24693 11.9327 4.03861 13.6157C4.83029 15.2987 6.16743 16.6648 7.83308 17.4923V18.354C7.83308 18.5971 7.92966 18.8303 8.10157 19.0022C8.27348 19.1741 8.50663 19.2707 8.74975 19.2707H14.2497C14.4929 19.2707 14.726 19.1741 14.8979 19.0022C15.0698 18.8303 15.1664 18.5971 15.1664 18.354V17.4923C16.8321 16.6648 18.1692 15.2987 18.9609 13.6157C19.7526 11.9327 19.9523 10.0315 19.5278 8.22073C19.1032 6.40993 18.0792 4.79572 16.6219 3.64002C15.1647 2.48432 13.3597 1.85494 11.4997 1.854ZM13.9051 16.0495C13.736 16.1181 13.5912 16.2356 13.4893 16.387C13.3874 16.5384 13.333 16.7168 13.3331 16.8993V17.4373H9.66641V16.8993C9.66641 16.7167 9.61188 16.5382 9.5098 16.3868C9.40773 16.2354 9.26277 16.118 9.0935 16.0495C7.71298 15.4912 6.56963 14.4701 5.85942 13.1612C5.1492 11.8523 4.91633 10.3372 5.20073 8.87546C5.48512 7.41372 6.26907 6.09641 7.41822 5.1493C8.56736 4.20218 10.0101 3.68424 11.4993 3.68424C12.9884 3.68424 14.4312 4.20218 15.5804 5.1493C16.7295 6.09641 17.5135 7.41372 17.7979 8.87546C18.0822 10.3372 17.8494 11.8523 17.1392 13.1612C16.4289 14.4701 15.2856 15.4912 13.9051 16.0495ZM8.74975 22.0207C8.50663 22.0207 8.27348 21.9241 8.10157 21.7522C7.92966 21.5803 7.83308 21.3471 7.83308 21.104C7.83308 20.8609 7.92966 20.6277 8.10157 20.4558C8.27348 20.2839 8.50663 20.1873 8.74975 20.1873H14.2497C14.4929 20.1873 14.726 20.2839 14.8979 20.4558C15.0698 20.6277 15.1664 20.8609 15.1664 21.104C15.1664 21.3471 15.0698 21.5803 14.8979 21.7522C14.726 21.9241 14.4929 22.0207 14.2497 22.0207H8.74975ZM13.6997 9.69425C13.7751 9.84696 13.8065 10.0176 13.7903 10.1872C13.7741 10.3567 13.711 10.5183 13.6081 10.654L10.8581 14.3207C10.7122 14.5152 10.4951 14.6437 10.2544 14.6781C10.0137 14.7125 9.76924 14.6499 9.57475 14.504C9.38026 14.3581 9.25168 14.141 9.21729 13.9003C9.18291 13.6596 9.24555 13.4152 9.39141 13.2207L11.0414 11.0207H10.1247C9.95879 11.0207 9.79594 10.9757 9.65357 10.8904C9.5112 10.8051 9.39466 10.6828 9.31636 10.5365C9.23807 10.3901 9.20097 10.2253 9.20902 10.0595C9.21708 9.89377 9.26998 9.7333 9.36208 9.59525L11.1954 6.84525C11.3303 6.64298 11.5401 6.5026 11.7785 6.45498C12.017 6.40736 12.2646 6.45641 12.4668 6.59134C12.6691 6.72627 12.8095 6.93602 12.8571 7.17446C12.9047 7.4129 12.8557 7.66048 12.7207 7.86275L11.838 9.18734H12.8747C13.0459 9.1864 13.2138 9.23339 13.3596 9.32298C13.5054 9.41256 13.6233 9.54118 13.6997 9.69425Z" fill="white"/>
</g>
<defs>
<clipPath id="clip0_1090_16348">
<rect width="22" height="22" fill="white" transform="translate(0.5 0.9375)"/>
</clipPath>
</defs>
</svg>
