<svg width="162" height="44" viewBox="0 0 162 44" fill="none" xmlns="http://www.w3.org/2000/svg">
<line x1="5.21228" y1="26.1935" x2="24.9103" y2="5.6747" stroke="#4576B4" stroke-width="8.53663" stroke-linecap="round"/>
<line x1="19.2075" y1="29.9271" x2="30.2445" y2="18.8901" stroke="#5DBE76" stroke-width="8.53663" stroke-linecap="round"/>
<line x1="32.6094" y1="35.199" x2="33.9161" y2="33.8924" stroke="#F3BF41" stroke-width="8.53663" stroke-linecap="round"/>
<path d="M58.6516 11.2635C58.1138 11.2635 57.6721 11.4043 57.3263 11.686C56.9934 11.9549 56.8269 12.3327 56.8269 12.8193C56.8269 13.3059 56.9486 13.69 57.1919 13.9717C57.448 14.2406 57.7809 14.4519 58.1907 14.6056C58.6004 14.7464 59.0486 14.8745 59.5352 14.9897C60.0218 15.105 60.5083 15.2458 60.9949 15.4123C61.4815 15.5787 61.9297 15.7836 62.3395 16.0269C62.7492 16.2702 63.0757 16.6288 63.319 17.1025C63.5751 17.5635 63.7032 18.1269 63.7032 18.7928C63.7032 19.894 63.2614 20.8416 62.3779 21.6355C61.5071 22.4294 60.3419 22.8263 58.8821 22.8263C57.4352 22.8263 56.2635 22.487 55.3672 21.8084C54.4708 21.1169 54.0226 20.1501 54.0226 18.908H56.9038C57.0062 20.0861 57.6785 20.6751 58.9205 20.6751C59.5352 20.6751 60.0218 20.5151 60.3803 20.1949C60.7388 19.8748 60.9181 19.4522 60.9181 18.9272C60.9181 18.3894 60.6812 17.9669 60.2074 17.6595C59.7336 17.3522 59.1574 17.1217 58.4788 16.9681C57.8129 16.8144 57.1406 16.6288 56.462 16.4111C55.7833 16.1934 55.2071 15.8156 54.7333 15.2778C54.2595 14.7272 54.0226 14.0037 54.0226 13.1074C54.0226 11.8909 54.4644 10.9177 55.348 10.1879C56.2315 9.45798 57.3647 9.09304 58.7477 9.09304C60.1434 9.09304 61.2638 9.41316 62.109 10.0534C62.9541 10.6809 63.4151 11.6412 63.4919 12.9345H60.534C60.4827 12.4223 60.2907 12.019 59.9577 11.7245C59.6248 11.4171 59.1894 11.2635 58.6516 11.2635ZM73.0769 19.6763C73.6403 19.1129 73.922 18.3446 73.922 17.3714C73.922 16.3983 73.6403 15.6364 73.0769 15.0858C72.5134 14.5223 71.854 14.2406 71.0985 14.2406C70.343 14.2406 69.6835 14.5159 69.1201 15.0665C68.5695 15.6172 68.2942 16.3791 68.2942 17.3522C68.2942 18.3254 68.5759 19.0937 69.1393 19.6571C69.7028 20.2205 70.3558 20.5022 71.0985 20.5022C71.854 20.5022 72.5134 20.2269 73.0769 19.6763ZM66.9689 21.309C66.0213 20.2718 65.5475 18.9528 65.5475 17.3522C65.5475 15.7516 66.0213 14.4455 66.9689 13.4339C67.9165 12.4095 69.1201 11.8973 70.5799 11.8973C72.0397 11.8973 73.1537 12.4992 73.922 13.7028V12.051H76.611V22.6919H73.922V20.9056C73.1153 22.1989 71.9948 22.8456 70.5607 22.8456C69.1265 22.8456 67.9293 22.3334 66.9689 21.309ZM79.483 22.6919V8.4784H82.1912V22.6919H79.483ZM89.5672 22.8456C88.0178 22.8456 86.7565 22.3462 85.7833 21.3474C84.8101 20.3358 84.3236 19.0041 84.3236 17.3522C84.3236 15.7004 84.8101 14.3815 85.7833 13.3955C86.7693 12.3967 88.037 11.8973 89.5864 11.8973C91.1486 11.8973 92.4291 12.3839 93.4279 13.3571C94.4267 14.3175 94.9261 15.6044 94.9261 17.2178C94.9261 17.5891 94.9004 17.9349 94.8492 18.255H87.0894C87.1534 18.9464 87.4095 19.5035 87.8577 19.926C88.3059 20.3486 88.8757 20.5599 89.5672 20.5599C90.5019 20.5599 91.1934 20.1757 91.6416 19.4074H94.5611C94.2538 20.419 93.6584 21.2449 92.7748 21.8852C91.8913 22.5254 90.8221 22.8456 89.5672 22.8456ZM92.1218 16.5071C92.0834 15.8028 91.8209 15.2394 91.3343 14.8168C90.8605 14.3943 90.2843 14.183 89.6056 14.183C88.9269 14.183 88.3571 14.3943 87.8961 14.8168C87.448 15.2394 87.1791 15.8028 87.0894 16.5071H92.1218ZM96.4631 15.1626C96.4631 14.2406 96.8536 13.4659 97.6347 12.8385C98.4159 12.211 99.4531 11.8973 100.746 11.8973C102.04 11.8973 103.077 12.211 103.858 12.8385C104.639 13.4531 105.055 14.2918 105.106 15.3547H102.341C102.264 14.4583 101.713 14.0101 100.689 14.0101C100.177 14.0101 99.7796 14.1126 99.4979 14.3175C99.2162 14.5223 99.0753 14.804 99.0753 15.1626C99.0753 15.5211 99.2866 15.8028 99.7092 16.0077C100.132 16.2126 100.644 16.3727 101.246 16.4879C101.848 16.6031 102.443 16.7504 103.032 16.9297C103.634 17.0961 104.146 17.4034 104.569 17.8516C104.991 18.287 105.202 18.8696 105.202 19.5995C105.202 20.5599 104.793 21.341 103.973 21.9428C103.166 22.5446 102.129 22.8456 100.862 22.8456C99.6067 22.8456 98.5759 22.551 97.7692 21.962C96.9625 21.3602 96.5207 20.5022 96.4439 19.3882H99.2098C99.3122 20.2846 99.882 20.7327 100.919 20.7327C101.419 20.7327 101.822 20.6239 102.129 20.4062C102.437 20.1757 102.59 19.8812 102.59 19.5227C102.59 19.1513 102.379 18.8632 101.956 18.6583C101.534 18.4407 101.022 18.2742 100.42 18.1589C99.818 18.0437 99.2162 17.9028 98.6143 17.7364C98.0253 17.5699 97.5195 17.2754 97.0969 16.8528C96.6744 16.4175 96.4631 15.8541 96.4631 15.1626ZM107.506 9.28511H112.942C114.312 9.28511 115.388 9.61804 116.169 10.2839C116.963 10.9498 117.36 11.7949 117.36 12.8193C117.36 14.3175 116.489 15.3226 114.748 15.8348C115.631 15.9629 116.335 16.347 116.86 16.9873C117.398 17.6147 117.667 18.3446 117.667 19.1769C117.667 20.2269 117.27 21.0785 116.476 21.7315C115.682 22.3718 114.607 22.6919 113.249 22.6919H107.506V9.28511ZM110.215 11.3595V14.8361H112.654C113.256 14.8361 113.73 14.6888 114.075 14.3943C114.434 14.087 114.613 13.658 114.613 13.1074C114.613 12.5568 114.434 12.1278 114.075 11.8205C113.73 11.5132 113.256 11.3595 112.654 11.3595H110.215ZM110.215 20.6175H112.942C113.544 20.6175 114.024 20.4574 114.383 20.1373C114.754 19.8044 114.94 19.3498 114.94 18.7736C114.94 18.1974 114.754 17.7428 114.383 17.4099C114.011 17.0769 113.525 16.9105 112.923 16.9105H110.215V20.6175ZM124.724 20.5599C125.479 20.5599 126.126 20.2846 126.664 19.734C127.214 19.1705 127.49 18.383 127.49 17.3714C127.49 16.347 127.221 15.5595 126.683 15.0089C126.145 14.4583 125.492 14.183 124.724 14.183C123.968 14.183 123.328 14.4583 122.803 15.0089C122.278 15.5595 122.015 16.347 122.015 17.3714C122.015 18.3958 122.278 19.1833 122.803 19.734C123.328 20.2846 123.968 20.5599 124.724 20.5599ZM120.825 21.3282C119.787 20.3166 119.269 18.9913 119.269 17.3522C119.269 15.7132 119.794 14.3943 120.844 13.3955C121.894 12.3967 123.193 11.8973 124.743 11.8973C126.305 11.8973 127.611 12.3967 128.661 13.3955C129.711 14.3943 130.236 15.7132 130.236 17.3522C130.236 18.9913 129.705 20.3166 128.642 21.3282C127.592 22.3398 126.286 22.8456 124.724 22.8456C123.161 22.8456 121.862 22.3398 120.825 21.3282ZM137.103 20.5599C137.859 20.5599 138.506 20.2846 139.043 19.734C139.594 19.1705 139.869 18.383 139.869 17.3714C139.869 16.347 139.6 15.5595 139.063 15.0089C138.525 14.4583 137.872 14.183 137.103 14.183C136.348 14.183 135.708 14.4583 135.183 15.0089C134.658 15.5595 134.395 16.347 134.395 17.3714C134.395 18.3958 134.658 19.1833 135.183 19.734C135.708 20.2846 136.348 20.5599 137.103 20.5599ZM133.204 21.3282C132.167 20.3166 131.649 18.9913 131.649 17.3522C131.649 15.7132 132.174 14.3943 133.224 13.3955C134.274 12.3967 135.573 11.8973 137.123 11.8973C138.685 11.8973 139.991 12.3967 141.041 13.3955C142.091 14.3943 142.616 15.7132 142.616 17.3522C142.616 18.9913 142.085 20.3166 141.022 21.3282C139.972 22.3398 138.666 22.8456 137.103 22.8456C135.541 22.8456 134.242 22.3398 133.204 21.3282ZM144.163 15.1626C144.163 14.2406 144.553 13.4659 145.334 12.8385C146.116 12.211 147.153 11.8973 148.446 11.8973C149.739 11.8973 150.777 12.211 151.558 12.8385C152.339 13.4531 152.755 14.2918 152.806 15.3547H150.04C149.963 14.4583 149.413 14.0101 148.388 14.0101C147.876 14.0101 147.479 14.1126 147.198 14.3175C146.916 14.5223 146.775 14.804 146.775 15.1626C146.775 15.5211 146.986 15.8028 147.409 16.0077C147.831 16.2126 148.344 16.3727 148.945 16.4879C149.547 16.6031 150.143 16.7504 150.732 16.9297C151.334 17.0961 151.846 17.4034 152.268 17.8516C152.691 18.287 152.902 18.8696 152.902 19.5995C152.902 20.5599 152.492 21.341 151.673 21.9428C150.866 22.5446 149.829 22.8456 148.561 22.8456C147.306 22.8456 146.276 22.551 145.469 21.962C144.662 21.3602 144.22 20.5022 144.144 19.3882H146.909C147.012 20.2846 147.582 20.7327 148.619 20.7327C149.118 20.7327 149.522 20.6239 149.829 20.4062C150.136 20.1757 150.29 19.8812 150.29 19.5227C150.29 19.1513 150.079 18.8632 149.656 18.6583C149.234 18.4407 148.721 18.2742 148.12 18.1589C147.518 18.0437 146.916 17.9028 146.314 17.7364C145.725 17.5699 145.219 17.2754 144.797 16.8528C144.374 16.4175 144.163 15.8541 144.163 15.1626ZM159.336 20.4254H160.623V22.6919H158.913C157.825 22.6919 156.986 22.4422 156.397 21.9428C155.808 21.4434 155.513 20.6175 155.513 19.465V14.2598H154.38V12.051H155.513V9.41956H158.222V12.051H160.603V14.2598H158.222V19.465C158.222 19.8108 158.305 20.0605 158.471 20.2141C158.638 20.355 158.926 20.4254 159.336 20.4254Z" fill="#394256"/>
<path d="M89.4625 38.2871C89.747 37.9911 89.8893 37.6013 89.8893 37.1175C89.8893 36.6338 89.747 36.2525 89.4625 35.9736C89.1836 35.6948 88.8478 35.5553 88.4552 35.5553C88.0682 35.5553 87.7324 35.6976 87.4478 35.9822C87.169 36.2667 87.0295 36.6509 87.0295 37.1346C87.0295 37.6184 87.169 38.0053 87.4478 38.2956C87.7324 38.5801 88.0682 38.7224 88.4552 38.7224C88.8422 38.7224 89.1779 38.5773 89.4625 38.2871ZM88.6686 34.7102C89.3003 34.7102 89.8267 34.935 90.2478 35.3846C90.669 35.8285 90.8796 36.409 90.8796 37.1261C90.8796 37.8375 90.6661 38.4236 90.2393 38.8846C89.8182 39.3399 89.2946 39.5676 88.6686 39.5676C88.2987 39.5676 87.9743 39.4822 87.6954 39.3115C87.4165 39.135 87.1946 38.9017 87.0295 38.6114V39.4907H86.0564V33.1736H87.0295V35.6236C87.1889 35.3505 87.408 35.1313 87.6869 34.9663C87.9714 34.7956 88.2987 34.7102 88.6686 34.7102ZM93.1395 39.4139L91.2871 34.787H92.3712L93.6944 38.3724L95.0688 34.787H96.0761L93.1907 41.7017H92.1834L93.1395 39.4139ZM99.9077 38.6797C99.3158 38.0993 99.0198 37.3651 99.0198 36.4773C99.0198 35.5895 99.3158 34.8582 99.9077 34.2834C100.505 33.7029 101.234 33.4126 102.093 33.4126C102.759 33.4126 103.351 33.5891 103.869 33.9419C104.387 34.2948 104.748 34.7842 104.953 35.4102H103.211C102.984 34.972 102.619 34.7529 102.119 34.7529C101.618 34.7529 101.222 34.9094 100.932 35.2224C100.647 35.5354 100.505 35.9537 100.505 36.4773C100.505 37.0009 100.647 37.4192 100.932 37.7322C101.222 38.0452 101.618 38.2017 102.119 38.2017C102.619 38.2017 102.984 37.9826 103.211 37.5444H104.953C104.748 38.1704 104.387 38.6598 103.869 39.0127C103.351 39.3655 102.759 39.5419 102.093 39.5419C101.234 39.5419 100.505 39.2545 99.9077 38.6797ZM108.749 37.9968C108.942 37.7919 109.039 37.496 109.039 37.109C109.039 36.722 108.939 36.4289 108.74 36.2297C108.541 36.0248 108.305 35.9224 108.032 35.9224C107.759 35.9224 107.522 36.0248 107.323 36.2297C107.13 36.4289 107.033 36.722 107.033 37.109C107.033 37.496 107.133 37.7919 107.332 37.9968C107.537 38.2017 107.776 38.3041 108.049 38.3041C108.322 38.3041 108.555 38.2017 108.749 37.9968ZM106.265 38.8761C105.787 38.4265 105.548 37.8346 105.548 37.1005C105.548 36.3663 105.787 35.7801 106.265 35.3419C106.743 34.898 107.335 34.6761 108.04 34.6761C108.746 34.6761 109.335 34.898 109.807 35.3419C110.285 35.7801 110.524 36.3663 110.524 37.1005C110.524 37.8346 110.288 38.4265 109.816 38.8761C109.344 39.3257 108.754 39.5505 108.049 39.5505C107.343 39.5505 106.748 39.3257 106.265 38.8761ZM114.693 37.9883C114.904 37.7834 115.009 37.4932 115.009 37.1175C115.009 36.7419 114.904 36.4517 114.693 36.2468C114.482 36.0419 114.241 35.9395 113.967 35.9395C113.694 35.9395 113.452 36.0419 113.242 36.2468C113.031 36.446 112.926 36.7334 112.926 37.109C112.926 37.4846 113.031 37.7749 113.242 37.9797C113.452 38.1846 113.694 38.2871 113.967 38.2871C114.241 38.2871 114.482 38.1875 114.693 37.9883ZM112.926 35.3505C113.25 34.9009 113.714 34.6761 114.317 34.6761C114.926 34.6761 115.441 34.9066 115.863 35.3675C116.284 35.8228 116.494 36.4062 116.494 37.1175C116.494 37.8289 116.284 38.4123 115.863 38.8675C115.441 39.3228 114.932 39.5505 114.334 39.5505C113.737 39.5505 113.267 39.3001 112.926 38.7993V41.7615H111.466V34.7273H112.926V35.3505ZM120.329 37.9797C120.54 37.7749 120.645 37.4846 120.645 37.109C120.645 36.7334 120.54 36.446 120.329 36.2468C120.119 36.0419 119.877 35.9395 119.604 35.9395C119.33 35.9395 119.089 36.0419 118.878 36.2468C118.667 36.4517 118.562 36.7419 118.562 37.1175C118.562 37.4932 118.667 37.7834 118.878 37.9883C119.089 38.1875 119.33 38.2871 119.604 38.2871C119.877 38.2871 120.119 38.1846 120.329 37.9797ZM117.709 38.8675C117.287 38.4123 117.077 37.8289 117.077 37.1175C117.077 36.4062 117.287 35.8228 117.709 35.3675C118.13 34.9066 118.642 34.6761 119.245 34.6761C119.854 34.6761 120.321 34.9009 120.645 35.3505V34.7273H122.105V39.4907H120.645V38.7993C120.292 39.3001 119.82 39.5505 119.228 39.5505C118.636 39.5505 118.13 39.3228 117.709 38.8675ZM124.847 34.7273V35.4273C125.149 34.9265 125.63 34.6761 126.29 34.6761C126.836 34.6761 127.277 34.8582 127.613 35.2224C127.955 35.5866 128.125 36.0818 128.125 36.7078V39.4907H126.674V36.9041C126.674 36.5968 126.592 36.3606 126.427 36.1956C126.267 36.0248 126.045 35.9395 125.761 35.9395C125.476 35.9395 125.251 36.0248 125.086 36.1956C124.927 36.3606 124.847 36.5968 124.847 36.9041V39.4907H123.387V34.7273H124.847ZM133.384 38.381H134.033C134.59 38.381 135.029 38.2102 135.347 37.8688C135.666 37.5273 135.825 37.0692 135.825 36.4944C135.825 35.9196 135.666 35.4614 135.347 35.12C135.029 34.7785 134.59 34.6078 134.033 34.6078H133.384V38.381ZM134.033 33.498C134.989 33.498 135.774 33.7769 136.389 34.3346C137.003 34.8866 137.311 35.6066 137.311 36.4944C137.311 37.3765 137.003 38.0964 136.389 38.6541C135.774 39.2119 134.989 39.4907 134.033 39.4907H131.924V33.498H134.033ZM139.567 34.1895C139.402 34.3545 139.2 34.437 138.96 34.437C138.721 34.437 138.519 34.3545 138.354 34.1895C138.189 34.0244 138.107 33.8224 138.107 33.5834C138.107 33.3387 138.189 33.1338 138.354 32.9687C138.519 32.8037 138.721 32.7212 138.96 32.7212C139.2 32.7212 139.402 32.8037 139.567 32.9687C139.732 33.1338 139.814 33.3387 139.814 33.5834C139.814 33.8224 139.732 34.0244 139.567 34.1895ZM138.235 39.4907V34.7273H139.695V39.4907H138.235ZM141.259 38.8675C140.838 38.4123 140.628 37.8289 140.628 37.1175C140.628 36.4062 140.838 35.8228 141.259 35.3675C141.68 34.9066 142.193 34.6761 142.796 34.6761C143.405 34.6761 143.872 34.9009 144.196 35.3505V34.7273H145.656V39.4651C145.656 40.131 145.474 40.6859 145.109 41.1298C144.927 41.3574 144.677 41.5338 144.358 41.659C144.045 41.7842 143.681 41.8468 143.265 41.8468C142.537 41.8468 141.959 41.6989 141.532 41.4029C141.106 41.107 140.864 40.6546 140.807 40.0456H142.241C142.378 40.4041 142.719 40.5834 143.265 40.5834C143.533 40.5834 143.755 40.4924 143.931 40.3102C144.108 40.1338 144.196 39.8521 144.196 39.4651V38.7993C143.843 39.3001 143.371 39.5505 142.779 39.5505C142.187 39.5505 141.68 39.3228 141.259 38.8675ZM143.88 37.9797C144.091 37.7749 144.196 37.4846 144.196 37.109C144.196 36.7334 144.091 36.446 143.88 36.2468C143.669 36.0419 143.428 35.9395 143.154 35.9395C142.881 35.9395 142.639 36.0419 142.429 36.2468C142.218 36.4517 142.113 36.7419 142.113 37.1175C142.113 37.4932 142.218 37.7834 142.429 37.9883C142.639 38.1875 142.881 38.2871 143.154 38.2871C143.428 38.2871 143.669 38.1846 143.88 37.9797ZM148.27 34.1895C148.105 34.3545 147.903 34.437 147.664 34.437C147.425 34.437 147.223 34.3545 147.058 34.1895C146.893 34.0244 146.81 33.8224 146.81 33.5834C146.81 33.3387 146.893 33.1338 147.058 32.9687C147.223 32.8037 147.425 32.7212 147.664 32.7212C147.903 32.7212 148.105 32.8037 148.27 32.9687C148.435 33.1338 148.518 33.3387 148.518 33.5834C148.518 33.8224 148.435 34.0244 148.27 34.1895ZM146.938 39.4907V34.7273H148.398V39.4907H146.938ZM151.704 38.2529H152.225V39.4907H151.482C150.947 39.4907 150.532 39.3741 150.236 39.1407C149.946 38.9017 149.8 38.4948 149.8 37.92V35.9395H149.357V34.7273H149.8V33.5663H151.26V34.7273H152.216V35.9395H151.26V37.92C151.26 38.1419 151.408 38.2529 151.704 38.2529ZM156.126 37.9797C156.337 37.7749 156.442 37.4846 156.442 37.109C156.442 36.7334 156.337 36.446 156.126 36.2468C155.916 36.0419 155.674 35.9395 155.401 35.9395C155.128 35.9395 154.886 36.0419 154.675 36.2468C154.465 36.4517 154.359 36.7419 154.359 37.1175C154.359 37.4932 154.465 37.7834 154.675 37.9883C154.886 38.1875 155.128 38.2871 155.401 38.2871C155.674 38.2871 155.916 38.1846 156.126 37.9797ZM153.506 38.8675C153.085 38.4123 152.874 37.8289 152.874 37.1175C152.874 36.4062 153.085 35.8228 153.506 35.3675C153.927 34.9066 154.439 34.6761 155.042 34.6761C155.651 34.6761 156.118 34.9009 156.442 35.3505V34.7273H157.902V39.4907H156.442V38.7993C156.089 39.3001 155.617 39.5505 155.025 39.5505C154.433 39.5505 153.927 39.3228 153.506 38.8675ZM159.185 39.4907V33.1736H160.644V39.4907H159.185Z" fill="#394256"/>
</svg>
