<svg width="162" height="43" viewBox="0 0 162 43" fill="none" xmlns="http://www.w3.org/2000/svg">
<path d="M90.6939 34.7951C90.8589 34.5675 91.0837 34.3825 91.3683 34.2402C91.6585 34.0923 91.9801 34.0183 92.3329 34.0183C92.7484 34.0183 93.124 34.1179 93.4597 34.317C93.7955 34.5162 94.0602 34.8008 94.2537 35.1707C94.4472 35.5349 94.5439 35.9532 94.5439 36.4256C94.5439 36.898 94.4472 37.3219 94.2537 37.6976C94.0602 38.0675 93.7927 38.3577 93.4512 38.5683C93.1154 38.7732 92.7427 38.8756 92.3329 38.8756C91.9687 38.8756 91.6443 38.8045 91.3597 38.6622C91.0809 38.5199 90.8589 38.3378 90.6939 38.1159V38.7988H89.7207V32.4817H90.6939V34.7951ZM93.5537 36.4256C93.5537 36.1012 93.4854 35.8223 93.3488 35.589C93.2179 35.35 93.0415 35.1707 92.8195 35.0512C92.6032 34.926 92.3699 34.8634 92.1195 34.8634C91.8748 34.8634 91.6414 34.926 91.4195 35.0512C91.2032 35.1764 91.0268 35.3585 90.8902 35.5975C90.7593 35.8366 90.6939 36.1183 90.6939 36.4427C90.6939 36.7671 90.7593 37.0516 90.8902 37.2963C91.0268 37.5354 91.2032 37.7175 91.4195 37.8427C91.6414 37.9679 91.8748 38.0305 92.1195 38.0305C92.3699 38.0305 92.6032 37.9679 92.8195 37.8427C93.0415 37.7118 93.2179 37.524 93.3488 37.2793C93.4854 37.0345 93.5537 36.75 93.5537 36.4256Z" fill="#F6F8FC"/>
<path d="M99.7404 34.0951L96.8551 41.0098H95.8477L96.8038 38.722L94.9514 34.0951H96.0355L97.3587 37.6805L98.7331 34.0951H99.7404Z" fill="#F6F8FC"/>
<path d="M102.334 35.7939C102.334 35.202 102.462 34.6756 102.718 34.2146C102.974 33.7479 103.33 33.3866 103.785 33.1305C104.246 32.8687 104.767 32.7378 105.347 32.7378C106.059 32.7378 106.668 32.9256 107.174 33.3012C107.681 33.6768 108.019 34.189 108.19 34.8378H106.585C106.466 34.5874 106.295 34.3967 106.073 34.2658C105.857 34.1349 105.609 34.0695 105.33 34.0695C104.881 34.0695 104.516 34.226 104.238 34.539C103.959 34.852 103.819 35.2703 103.819 35.7939C103.819 36.3175 103.959 36.7358 104.238 37.0488C104.516 37.3618 104.881 37.5183 105.33 37.5183C105.609 37.5183 105.857 37.4528 106.073 37.3219C106.295 37.191 106.466 37.0004 106.585 36.75H108.19C108.019 37.3988 107.681 37.911 107.174 38.2866C106.668 38.6565 106.059 38.8415 105.347 38.8415C104.767 38.8415 104.246 38.7134 103.785 38.4573C103.33 38.1955 102.974 37.8341 102.718 37.3732C102.462 36.9122 102.334 36.3858 102.334 35.7939Z" fill="#F6F8FC"/>
<path d="M111.252 38.8671C110.786 38.8671 110.364 38.7675 109.989 38.5683C109.619 38.3691 109.326 38.0845 109.11 37.7146C108.899 37.3447 108.794 36.9122 108.794 36.4171C108.794 35.9276 108.902 35.4979 109.118 35.128C109.334 34.7524 109.63 34.465 110.006 34.2658C110.381 34.0666 110.803 33.967 111.269 33.967C111.736 33.967 112.157 34.0666 112.533 34.2658C112.908 34.465 113.204 34.7524 113.421 35.128C113.637 35.4979 113.745 35.9276 113.745 36.4171C113.745 36.9065 113.634 37.339 113.412 37.7146C113.196 38.0845 112.897 38.3691 112.516 38.5683C112.14 38.7675 111.719 38.8671 111.252 38.8671ZM111.252 37.6037C111.531 37.6037 111.767 37.5012 111.961 37.2963C112.16 37.0915 112.26 36.7984 112.26 36.4171C112.26 36.0358 112.163 35.7427 111.969 35.5378C111.781 35.3329 111.548 35.2305 111.269 35.2305C110.985 35.2305 110.749 35.3329 110.561 35.5378C110.373 35.737 110.279 36.0301 110.279 36.4171C110.279 36.7984 110.37 37.0915 110.552 37.2963C110.74 37.5012 110.973 37.6037 111.252 37.6037Z" fill="#F6F8FC"/>
<path d="M115.979 34.7097C116.121 34.4878 116.318 34.3085 116.568 34.1719C116.819 34.0353 117.112 33.967 117.447 33.967C117.84 33.967 118.196 34.0666 118.515 34.2658C118.833 34.465 119.084 34.7496 119.266 35.1195C119.454 35.4894 119.547 35.9191 119.547 36.4085C119.547 36.898 119.454 37.3305 119.266 37.7061C119.084 38.076 118.833 38.3634 118.515 38.5683C118.196 38.7675 117.84 38.8671 117.447 38.8671C117.117 38.8671 116.824 38.7988 116.568 38.6622C116.318 38.5256 116.121 38.3492 115.979 38.1329V41.0695H114.519V34.0353H115.979V34.7097ZM118.062 36.4085C118.062 36.0443 117.96 35.7597 117.755 35.5549C117.556 35.3443 117.308 35.239 117.012 35.239C116.722 35.239 116.474 35.3443 116.269 35.5549C116.07 35.7654 115.971 36.0528 115.971 36.4171C115.971 36.7813 116.07 37.0687 116.269 37.2793C116.474 37.4898 116.722 37.5951 117.012 37.5951C117.302 37.5951 117.55 37.4898 117.755 37.2793C117.96 37.063 118.062 36.7728 118.062 36.4085Z" fill="#F6F8FC"/>
<path d="M120.023 36.4085C120.023 35.9191 120.114 35.4894 120.296 35.1195C120.484 34.7496 120.737 34.465 121.056 34.2658C121.375 34.0666 121.73 33.967 122.123 33.967C122.459 33.967 122.752 34.0353 123.002 34.1719C123.258 34.3085 123.455 34.4878 123.591 34.7097V34.0353H125.051V38.7988H123.591V38.1244C123.449 38.3463 123.25 38.5256 122.994 38.6622C122.743 38.7988 122.45 38.8671 122.114 38.8671C121.728 38.8671 121.375 38.7675 121.056 38.5683C120.737 38.3634 120.484 38.076 120.296 37.7061C120.114 37.3305 120.023 36.898 120.023 36.4085ZM123.591 36.4171C123.591 36.0528 123.489 35.7654 123.284 35.5549C123.085 35.3443 122.84 35.239 122.55 35.239C122.26 35.239 122.012 35.3443 121.807 35.5549C121.608 35.7597 121.508 36.0443 121.508 36.4085C121.508 36.7728 121.608 37.063 121.807 37.2793C122.012 37.4898 122.26 37.5951 122.55 37.5951C122.84 37.5951 123.085 37.4898 123.284 37.2793C123.489 37.0687 123.591 36.7813 123.591 36.4171Z" fill="#F6F8FC"/>
<path d="M129.01 33.9841C129.567 33.9841 130.011 34.1662 130.341 34.5305C130.677 34.889 130.845 35.3841 130.845 36.0158V38.7988H129.394V36.2122C129.394 35.8935 129.311 35.6459 129.146 35.4695C128.981 35.2931 128.759 35.2049 128.48 35.2049C128.201 35.2049 127.98 35.2931 127.814 35.4695C127.649 35.6459 127.567 35.8935 127.567 36.2122V38.7988H126.107V34.0353H127.567V34.6671C127.715 34.4565 127.914 34.2914 128.165 34.1719C128.415 34.0467 128.697 33.9841 129.01 33.9841Z" fill="#F6F8FC"/>
<path d="M135.914 32.8061C136.545 32.8061 137.097 32.9313 137.57 33.1817C138.042 33.4321 138.406 33.7849 138.662 34.2402C138.924 34.6898 139.055 35.2105 139.055 35.8024C139.055 36.3886 138.924 36.9093 138.662 37.3646C138.406 37.8199 138.039 38.1728 137.561 38.4232C137.089 38.6736 136.54 38.7988 135.914 38.7988H133.668V32.8061H135.914ZM135.82 37.5354C136.372 37.5354 136.801 37.3845 137.109 37.0829C137.416 36.7813 137.57 36.3545 137.57 35.8024C137.57 35.2504 137.416 34.8207 137.109 34.5134C136.801 34.2061 136.372 34.0524 135.82 34.0524H135.128V37.5354H135.82Z" fill="#F6F8FC"/>
<path d="M140.605 33.5402C140.349 33.5402 140.138 33.4662 139.973 33.3183C139.814 33.1646 139.734 32.9768 139.734 32.7548C139.734 32.5272 139.814 32.3394 139.973 32.1914C140.138 32.0378 140.349 31.9609 140.605 31.9609C140.855 31.9609 141.06 32.0378 141.22 32.1914C141.385 32.3394 141.467 32.5272 141.467 32.7548C141.467 32.9768 141.385 33.1646 141.22 33.3183C141.06 33.4662 140.855 33.5402 140.605 33.5402ZM141.331 34.0353V38.7988H139.871V34.0353H141.331Z" fill="#F6F8FC"/>
<path d="M144.198 33.967C144.534 33.967 144.827 34.0353 145.078 34.1719C145.334 34.3085 145.53 34.4878 145.667 34.7097V34.0353H147.126V38.7902C147.126 39.2285 147.038 39.624 146.862 39.9768C146.691 40.3354 146.426 40.6199 146.068 40.8305C145.715 41.0411 145.274 41.1464 144.745 41.1464C144.039 41.1464 143.467 40.9785 143.029 40.6427C142.59 40.3126 142.34 39.863 142.277 39.2939H143.72C143.766 39.476 143.874 39.6183 144.045 39.7207C144.215 39.8289 144.426 39.8829 144.676 39.8829C144.978 39.8829 145.217 39.7947 145.393 39.6183C145.575 39.4476 145.667 39.1715 145.667 38.7902V38.1159C145.524 38.3378 145.328 38.5199 145.078 38.6622C144.827 38.7988 144.534 38.8671 144.198 38.8671C143.806 38.8671 143.45 38.7675 143.131 38.5683C142.812 38.3634 142.559 38.076 142.371 37.7061C142.189 37.3305 142.098 36.898 142.098 36.4085C142.098 35.9191 142.189 35.4894 142.371 35.1195C142.559 34.7496 142.812 34.465 143.131 34.2658C143.45 34.0666 143.806 33.967 144.198 33.967ZM145.667 36.4171C145.667 36.0528 145.564 35.7654 145.359 35.5549C145.16 35.3443 144.915 35.239 144.625 35.239C144.335 35.239 144.087 35.3443 143.882 35.5549C143.683 35.7597 143.584 36.0443 143.584 36.4085C143.584 36.7728 143.683 37.063 143.882 37.2793C144.087 37.4898 144.335 37.5951 144.625 37.5951C144.915 37.5951 145.16 37.4898 145.359 37.2793C145.564 37.0687 145.667 36.7813 145.667 36.4171Z" fill="#F6F8FC"/>
<path d="M148.917 33.5402C148.66 33.5402 148.45 33.4662 148.285 33.3183C148.125 33.1646 148.046 32.9768 148.046 32.7548C148.046 32.5272 148.125 32.3394 148.285 32.1914C148.45 32.0378 148.66 31.9609 148.917 31.9609C149.167 31.9609 149.372 32.0378 149.531 32.1914C149.696 32.3394 149.779 32.5272 149.779 32.7548C149.779 32.9768 149.696 33.1646 149.531 33.3183C149.372 33.4662 149.167 33.5402 148.917 33.5402ZM149.642 34.0353V38.7988H148.182V34.0353H149.642Z" fill="#F6F8FC"/>
<path d="M153.355 37.561V38.7988H152.612C152.083 38.7988 151.67 38.6707 151.374 38.4146C151.078 38.1528 150.931 37.7289 150.931 37.1427V35.2475H150.35V34.0353H150.931V32.8744H152.39V34.0353H153.346V35.2475H152.39V37.1597C152.39 37.302 152.424 37.4045 152.493 37.4671C152.561 37.5297 152.675 37.561 152.834 37.561H153.355Z" fill="#F6F8FC"/>
<path d="M153.878 36.4085C153.878 35.9191 153.969 35.4894 154.151 35.1195C154.339 34.7496 154.592 34.465 154.911 34.2658C155.229 34.0666 155.585 33.967 155.978 33.967C156.314 33.967 156.607 34.0353 156.857 34.1719C157.113 34.3085 157.309 34.4878 157.446 34.7097V34.0353H158.906V38.7988H157.446V38.1244C157.304 38.3463 157.105 38.5256 156.849 38.6622C156.598 38.7988 156.305 38.8671 155.969 38.8671C155.582 38.8671 155.229 38.7675 154.911 38.5683C154.592 38.3634 154.339 38.076 154.151 37.7061C153.969 37.3305 153.878 36.898 153.878 36.4085ZM157.446 36.4171C157.446 36.0528 157.344 35.7654 157.139 35.5549C156.94 35.3443 156.695 35.239 156.405 35.239C156.114 35.239 155.867 35.3443 155.662 35.5549C155.463 35.7597 155.363 36.0443 155.363 36.4085C155.363 36.7728 155.463 37.063 155.662 37.2793C155.867 37.4898 156.114 37.5951 156.405 37.5951C156.695 37.5951 156.94 37.4898 157.139 37.2793C157.344 37.0687 157.446 36.7813 157.446 36.4171Z" fill="#F6F8FC"/>
<path d="M161.422 32.4817V38.7988H159.962V32.4817H161.422Z" fill="#F6F8FC"/>
<path d="M60.7638 25.1346C59.829 25.1346 58.9839 24.9745 58.2284 24.6544C57.4857 24.3343 56.8967 23.8733 56.4613 23.2714C56.026 22.6696 55.8019 21.9589 55.7891 21.1394H58.6702C58.7086 21.69 58.9007 22.1254 59.2464 22.4455C59.6049 22.7657 60.0915 22.9257 60.7062 22.9257C61.3336 22.9257 61.8266 22.7785 62.1851 22.4839C62.5437 22.1766 62.7229 21.7797 62.7229 21.2931C62.7229 20.8961 62.6013 20.5696 62.358 20.3135C62.1147 20.0574 61.8074 19.8589 61.436 19.7181C61.0775 19.5644 60.5781 19.398 59.9379 19.2187C59.0671 18.9626 58.3565 18.7129 57.8058 18.4696C57.268 18.2135 56.8007 17.8357 56.4037 17.3364C56.0196 16.8242 55.8275 16.1455 55.8275 15.3004C55.8275 14.5065 56.026 13.815 56.4229 13.226C56.8199 12.6369 57.3769 12.1888 58.094 11.8814C58.811 11.5613 59.6305 11.4013 60.5525 11.4013C61.9354 11.4013 63.0559 11.7406 63.9138 12.4193C64.7845 13.0851 65.2647 14.0199 65.3544 15.2235H62.3964C62.3708 14.7626 62.1723 14.3848 61.801 14.0903C61.4424 13.783 60.9623 13.6293 60.3604 13.6293C59.8354 13.6293 59.4129 13.7638 59.0927 14.0327C58.7854 14.3016 58.6318 14.6921 58.6318 15.2043C58.6318 15.5629 58.747 15.8638 58.9775 16.1071C59.2208 16.3376 59.5153 16.5296 59.861 16.6833C60.2196 16.8242 60.719 16.9906 61.3592 17.1827C62.23 17.4388 62.9406 17.6949 63.4912 17.951C64.0419 18.2071 64.5156 18.5912 64.9126 19.1034C65.3095 19.6156 65.508 20.2879 65.508 21.1202C65.508 21.8373 65.3223 22.5032 64.951 23.1178C64.5797 23.7324 64.0355 24.2254 63.3184 24.5968C62.6013 24.9553 61.7498 25.1346 60.7638 25.1346Z" fill="#EBF1FA"/>
<path d="M67.1479 19.6412C67.1479 18.5656 67.3591 17.6117 67.7817 16.7793C68.2171 15.947 68.7997 15.3068 69.5296 14.8586C70.2723 14.4104 71.0982 14.1863 72.0073 14.1863C72.8012 14.1863 73.4927 14.3464 74.0817 14.6665C74.6836 14.9866 75.1638 15.39 75.5223 15.8766V14.3592H78.2305V25.0001H75.5223V23.4443C75.1766 23.9437 74.6964 24.3599 74.0817 24.6928C73.4799 25.0129 72.782 25.173 71.9881 25.173C71.0918 25.173 70.2723 24.9425 69.5296 24.4815C68.7997 24.0205 68.2171 23.3739 67.7817 22.5416C67.3591 21.6964 67.1479 20.7297 67.1479 19.6412ZM75.5223 19.6797C75.5223 19.0266 75.3942 18.4696 75.1381 18.0086C74.882 17.5348 74.5363 17.1763 74.1009 16.933C73.6656 16.6769 73.1982 16.5488 72.6988 16.5488C72.1994 16.5488 71.7384 16.6705 71.3159 16.9138C70.8933 17.1571 70.5476 17.5156 70.2787 17.9894C70.0226 18.4504 69.8945 19.001 69.8945 19.6412C69.8945 20.2815 70.0226 20.8449 70.2787 21.3315C70.5476 21.8053 70.8933 22.1702 71.3159 22.4263C71.7512 22.6824 72.2122 22.8105 72.6988 22.8105C73.1982 22.8105 73.6656 22.6888 74.1009 22.4455C74.5363 22.1894 74.882 21.8309 75.1381 21.3699C75.3942 20.8961 75.5223 20.3327 75.5223 19.6797Z" fill="#EBF1FA"/>
<path d="M83.5459 10.7866V25.0001H80.8569V10.7866H83.5459Z" fill="#EBF1FA"/>
<path d="M96.0945 19.4492C96.0945 19.8333 96.0689 20.1791 96.0177 20.4864H88.2387C88.3027 21.2547 88.5716 21.8565 89.0454 22.2919C89.5192 22.7272 90.1018 22.9449 90.7932 22.9449C91.792 22.9449 92.5027 22.516 92.9253 21.658H95.8256C95.5183 22.6824 94.9292 23.5275 94.0585 24.1934C93.1878 24.8465 92.1186 25.173 90.8509 25.173C89.8265 25.173 88.9045 24.9489 88.085 24.5007C87.2783 24.0397 86.6444 23.3931 86.1835 22.5608C85.7353 21.7285 85.5112 20.7681 85.5112 19.6797C85.5112 18.5784 85.7353 17.6117 86.1835 16.7793C86.6316 15.947 87.2591 15.3068 88.0658 14.8586C88.8725 14.4104 89.8009 14.1863 90.8509 14.1863C91.8625 14.1863 92.7652 14.404 93.5591 14.8394C94.3658 15.2748 94.9869 15.8958 95.4222 16.7025C95.8704 17.4964 96.0945 18.412 96.0945 19.4492ZM93.3094 18.6809C93.2966 17.9894 93.0469 17.4388 92.5603 17.029C92.0737 16.6065 91.4783 16.3952 90.774 16.3952C90.1082 16.3952 89.5448 16.6001 89.0838 17.0098C88.6356 17.4068 88.3603 17.9638 88.2579 18.6809H93.3094Z" fill="#EBF1FA"/>
<path d="M102.129 25.173C101.258 25.173 100.477 25.0193 99.7859 24.712C99.0945 24.3919 98.5438 23.9629 98.1341 23.4251C97.7371 22.8873 97.5194 22.2919 97.481 21.6388H100.189C100.24 22.0486 100.439 22.3879 100.785 22.6568C101.143 22.9257 101.585 23.0602 102.11 23.0602C102.622 23.0602 103.019 22.9577 103.301 22.7528C103.595 22.548 103.743 22.2855 103.743 21.9653C103.743 21.6196 103.563 21.3635 103.205 21.197C102.859 21.0178 102.302 20.8257 101.534 20.6208C100.74 20.4287 100.087 20.2303 99.5746 20.0254C99.0752 19.8205 98.6399 19.5068 98.2685 19.0842C97.91 18.6617 97.7307 18.0918 97.7307 17.3748C97.7307 16.7857 97.8972 16.2479 98.2301 15.7613C98.5759 15.2748 99.0624 14.8906 99.6899 14.6089C100.33 14.3272 101.079 14.1863 101.937 14.1863C103.205 14.1863 104.216 14.5065 104.972 15.1467C105.727 15.7741 106.144 16.6257 106.22 17.7013H103.647C103.608 17.2787 103.429 16.9458 103.109 16.7025C102.801 16.4464 102.385 16.3184 101.86 16.3184C101.374 16.3184 100.996 16.408 100.727 16.5873C100.471 16.7665 100.343 17.0162 100.343 17.3364C100.343 17.6949 100.522 17.9702 100.881 18.1623C101.239 18.3415 101.796 18.5272 102.552 18.7193C103.32 18.9114 103.954 19.1098 104.453 19.3147C104.953 19.5196 105.382 19.8397 105.74 20.2751C106.112 20.6977 106.304 21.2611 106.316 21.9653C106.316 22.58 106.144 23.1306 105.798 23.6172C105.465 24.1038 104.978 24.4879 104.338 24.7696C103.711 25.0385 102.974 25.173 102.129 25.173Z" fill="#EBF1FA"/>
<path d="M116.13 18.1239C116.885 18.2647 117.506 18.6425 117.993 19.2571C118.48 19.8717 118.723 20.576 118.723 21.3699C118.723 22.087 118.544 22.7208 118.185 23.2714C117.839 23.8093 117.334 24.2318 116.668 24.5391C116.002 24.8465 115.214 25.0001 114.305 25.0001H108.524V11.5933H114.056C114.965 11.5933 115.746 11.7406 116.399 12.0351C117.065 12.3296 117.564 12.7394 117.897 13.2644C118.243 13.7894 118.416 14.3848 118.416 15.0507C118.416 15.8318 118.204 16.4848 117.782 17.0098C117.372 17.5348 116.821 17.9062 116.13 18.1239ZM111.213 17.1251H113.671C114.312 17.1251 114.805 16.9842 115.15 16.7025C115.496 16.408 115.669 15.9918 115.669 15.454C115.669 14.9162 115.496 14.5001 115.15 14.2055C114.805 13.911 114.312 13.7638 113.671 13.7638H111.213V17.1251ZM113.921 22.8105C114.574 22.8105 115.08 22.6568 115.438 22.3495C115.81 22.0422 115.995 21.6068 115.995 21.0434C115.995 20.4672 115.803 20.019 115.419 19.6989C115.035 19.3659 114.517 19.1995 113.863 19.1995H111.213V22.8105H113.921Z" fill="#EBF1FA"/>
<path d="M125.591 25.173C124.567 25.173 123.645 24.9489 122.825 24.5007C122.006 24.0397 121.359 23.3931 120.885 22.5608C120.424 21.7285 120.194 20.7681 120.194 19.6797C120.194 18.5912 120.431 17.6309 120.904 16.7985C121.391 15.9662 122.051 15.326 122.883 14.8778C123.715 14.4168 124.644 14.1863 125.668 14.1863C126.692 14.1863 127.621 14.4168 128.453 14.8778C129.285 15.326 129.938 15.9662 130.412 16.7985C130.899 17.6309 131.142 18.5912 131.142 19.6797C131.142 20.7681 130.892 21.7285 130.393 22.5608C129.906 23.3931 129.241 24.0397 128.395 24.5007C127.563 24.9489 126.628 25.173 125.591 25.173ZM125.591 22.8297C126.078 22.8297 126.532 22.7144 126.955 22.4839C127.39 22.2406 127.736 21.8821 127.992 21.4083C128.248 20.9345 128.376 20.3583 128.376 19.6797C128.376 18.6681 128.107 17.8934 127.569 17.3556C127.044 16.8049 126.398 16.5296 125.63 16.5296C124.861 16.5296 124.215 16.8049 123.69 17.3556C123.177 17.8934 122.921 18.6681 122.921 19.6797C122.921 20.6912 123.171 21.4724 123.67 22.023C124.183 22.5608 124.823 22.8297 125.591 22.8297Z" fill="#EBF1FA"/>
<path d="M137.84 25.173C136.815 25.173 135.893 24.9489 135.074 24.5007C134.254 24.0397 133.608 23.3931 133.134 22.5608C132.673 21.7285 132.442 20.7681 132.442 19.6797C132.442 18.5912 132.679 17.6309 133.153 16.7985C133.64 15.9662 134.299 15.326 135.131 14.8778C135.964 14.4168 136.892 14.1863 137.916 14.1863C138.941 14.1863 139.869 14.4168 140.701 14.8778C141.534 15.326 142.187 15.9662 142.661 16.7985C143.147 17.6309 143.391 18.5912 143.391 19.6797C143.391 20.7681 143.141 21.7285 142.641 22.5608C142.155 23.3931 141.489 24.0397 140.644 24.5007C139.812 24.9489 138.877 25.173 137.84 25.173ZM137.84 22.8297C138.326 22.8297 138.781 22.7144 139.203 22.4839C139.639 22.2406 139.984 21.8821 140.241 21.4083C140.497 20.9345 140.625 20.3583 140.625 19.6797C140.625 18.6681 140.356 17.8934 139.818 17.3556C139.293 16.8049 138.646 16.5296 137.878 16.5296C137.11 16.5296 136.463 16.8049 135.938 17.3556C135.426 17.8934 135.17 18.6681 135.17 19.6797C135.17 20.6912 135.419 21.4724 135.919 22.023C136.431 22.5608 137.071 22.8297 137.84 22.8297Z" fill="#EBF1FA"/>
<path d="M149.435 25.173C148.564 25.173 147.783 25.0193 147.092 24.712C146.4 24.3919 145.85 23.9629 145.44 23.4251C145.043 22.8873 144.825 22.2919 144.787 21.6388H147.495C147.546 22.0486 147.745 22.3879 148.09 22.6568C148.449 22.9257 148.891 23.0602 149.416 23.0602C149.928 23.0602 150.325 22.9577 150.607 22.7528C150.901 22.548 151.048 22.2855 151.048 21.9653C151.048 21.6196 150.869 21.3635 150.511 21.197C150.165 21.0178 149.608 20.8257 148.84 20.6208C148.046 20.4287 147.393 20.2303 146.88 20.0254C146.381 19.8205 145.946 19.5068 145.574 19.0842C145.216 18.6617 145.037 18.0918 145.037 17.3748C145.037 16.7857 145.203 16.2479 145.536 15.7613C145.882 15.2748 146.368 14.8906 146.996 14.6089C147.636 14.3272 148.385 14.1863 149.243 14.1863C150.511 14.1863 151.522 14.5065 152.278 15.1467C153.033 15.7741 153.449 16.6257 153.526 17.7013H150.952C150.914 17.2787 150.735 16.9458 150.415 16.7025C150.107 16.4464 149.691 16.3184 149.166 16.3184C148.68 16.3184 148.302 16.408 148.033 16.5873C147.777 16.7665 147.649 17.0162 147.649 17.3364C147.649 17.6949 147.828 17.9702 148.187 18.1623C148.545 18.3415 149.102 18.5272 149.858 18.7193C150.626 18.9114 151.26 19.1098 151.759 19.3147C152.259 19.5196 152.687 19.8397 153.046 20.2751C153.417 20.6977 153.609 21.2611 153.622 21.9653C153.622 22.58 153.449 23.1306 153.104 23.6172C152.771 24.1038 152.284 24.4879 151.644 24.7696C151.016 25.0385 150.28 25.173 149.435 25.173Z" fill="#EBF1FA"/>
<path d="M158.96 16.5681V21.7156C158.96 22.0742 159.044 22.3367 159.21 22.5032C159.389 22.6568 159.684 22.7336 160.094 22.7336H161.342V25.0001H159.652C157.385 25.0001 156.252 23.8989 156.252 21.6964V16.5681H154.984V14.3592H156.252V11.7278H158.96V14.3592H161.342V16.5681H158.96Z" fill="#EBF1FA"/>
<path fill-rule="evenodd" clip-rule="evenodd" d="M31.2545 39.5255C29.5876 37.8586 29.5876 35.156 31.2545 33.4892L32.5612 32.1825C34.228 30.5156 36.9306 30.5156 38.5975 32.1825C40.2644 33.8494 40.2644 36.5519 38.5975 38.2188L37.2908 39.5255C35.6239 41.1924 32.9214 41.1924 31.2545 39.5255Z" fill="#F3BF41"/>
<path fill-rule="evenodd" clip-rule="evenodd" d="M17.8521 34.2535C16.1853 32.5866 16.1853 29.8841 17.8521 28.2172L28.8891 17.1802C30.556 15.5134 33.2585 15.5134 34.9254 17.1802C36.5923 18.8471 36.5923 21.5497 34.9254 23.2166L23.8885 34.2535C22.2216 35.9204 19.519 35.9204 17.8521 34.2535Z" fill="#5DBE76"/>
<path fill-rule="evenodd" clip-rule="evenodd" d="M3.92091 30.5805C2.22036 28.9479 2.16522 26.2459 3.79774 24.5454L23.4957 4.02665C25.1283 2.3261 27.8303 2.27096 29.5308 3.90348C31.2313 5.536 31.2865 8.23799 29.654 9.93854L9.95596 30.4573C8.32344 32.1578 5.62145 32.213 3.92091 30.5805Z" fill="#4576B4"/>
</svg>
