<?xml version="1.0" standalone="no"?>
<!DOCTYPE svg PUBLIC "-//W3C//DTD SVG 1.1//EN" "http://www.w3.org/Graphics/SVG/1.1/DTD/svg11.dtd" >
<svg xmlns="http://www.w3.org/2000/svg">
<metadata>Generated by IcoMoon</metadata>
<defs>
<font id="iconmoon-latest" horiz-adv-x="1024">
<font-face units-per-em="1024" ascent="960" descent="-64" />
<missing-glyph horiz-adv-x="1024" />
<glyph unicode="&#x20;" horiz-adv-x="512" d="" />
<glyph unicode="&#xe900;" glyph-name="account" horiz-adv-x="1265" d="M210.824 739.137c0-43.682 12.954-86.384 37.222-122.705s58.763-64.629 99.12-81.346c40.358-16.716 84.766-21.090 127.609-12.568s82.197 29.557 113.085 60.446c30.889 30.888 51.923 70.242 60.447 113.085s4.144 87.251-12.571 127.609c-16.715 40.357-45.023 74.851-81.344 99.12s-79.022 37.222-122.705 37.222c-58.576 0-114.754-23.269-156.174-64.689s-64.689-97.597-64.689-156.174zM542.118 739.137c0-21.841-6.476-43.192-18.611-61.352s-29.382-32.315-49.56-40.673c-20.178-8.358-42.383-10.545-63.804-6.284s-41.099 14.778-56.543 30.222c-15.444 15.444-25.961 35.121-30.222 56.543s-2.074 43.625 6.284 63.804c8.358 20.179 22.512 37.425 40.673 49.56s39.511 18.612 61.353 18.612c29.288 0 57.377-11.635 78.087-32.345s32.345-48.799 32.345-78.087zM100.392-33.882h662.59c14.643 0 28.684 5.819 39.038 16.173 10.36 10.354 16.173 24.401 16.173 39.045v165.647c0 58.573-23.269 114.754-64.687 156.172-41.418 41.42-97.599 64.688-156.174 64.688h-331.294c-58.576 0-114.754-23.269-156.174-64.688s-64.689-97.599-64.689-156.172v-165.647c0-14.643 5.817-28.69 16.173-39.045s24.399-16.173 39.043-16.173zM155.608 186.982c0 29.286 11.635 57.374 32.345 78.083s48.799 32.346 78.087 32.346h331.294c29.288 0 57.376-11.637 78.085-32.346s32.346-48.797 32.346-78.083v-110.435h-552.157v110.435zM1259.924 904.784c0-14.644-5.819-28.688-16.173-39.043s-24.401-16.172-39.045-16.172h-331.294c-14.643 0-28.69 5.817-39.045 16.172s-16.173 24.4-16.173 39.043c0 14.644 5.819 28.688 16.173 39.043s24.401 16.172 39.045 16.172h331.294c14.643 0 28.69-5.817 39.045-16.172s16.173-24.399 16.173-39.043zM1259.924 683.922c0-14.644-5.819-28.689-16.173-39.043s-24.401-16.173-39.045-16.173h-331.294c-14.643 0-28.69 5.818-39.045 16.173s-16.173 24.399-16.173 39.043c0 14.644 5.819 28.688 16.173 39.043s24.401 16.172 39.045 16.172h331.294c14.643 0 28.69-5.817 39.045-16.172s16.173-24.4 16.173-39.043zM1259.924 463.059c0-14.644-5.819-28.688-16.173-39.043s-24.401-16.173-39.045-16.173h-331.294c-14.643 0-28.69 5.818-39.045 16.173s-16.173 24.399-16.173 39.043c0 14.644 5.819 28.688 16.173 39.043s24.401 16.173 39.045 16.173h331.294c14.643 0 28.69-5.818 39.045-16.173s16.173-24.399 16.173-39.043z" />
<glyph unicode="&#xe901;" glyph-name="add" d="M597.333 533.292v426.708h-170.667v-426.708h-426.672v-170.667h426.672v-426.71h170.667v426.71h426.752v170.667h-426.752z" />
<glyph unicode="&#xe902;" glyph-name="arrow" d="M695.17 904.833l60.34-60.34-396.497-396.497 396.497-396.498-60.34-60.339-456.836 456.837 456.836 456.837z" />
<glyph unicode="&#xe903;" glyph-name="contact" d="M528.252 960c-130.401 0-255.462-51.802-347.67-144.010s-144.010-217.27-144.010-347.67c0-130.404 51.802-255.464 144.010-347.672s217.27-144.013 347.67-144.013c11.854 0 23.225 4.71 31.607 13.093s13.093 19.753 13.093 31.607c0 11.854-4.71 23.225-13.093 31.607s-19.753 13.093-31.607 13.093c-79.563 0-157.341 23.591-223.496 67.794-66.156 44.208-117.718 107.032-148.165 180.541s-38.415 154.395-22.893 232.431c15.522 78.036 53.837 149.716 110.097 205.977s127.941 94.575 205.977 110.097c78.037 15.522 158.923 7.556 232.431-22.893s136.333-82.010 180.541-148.165c44.203-66.155 67.794-143.933 67.794-223.496v-127.707c0-22.011-8.743-43.125-24.308-58.69-15.57-15.57-36.684-24.313-58.695-24.313-22.016 0-43.13 8.743-58.695 24.313-15.565 15.565-24.313 36.679-24.313 58.69v319.283c0 11.855-4.706 23.224-13.093 31.606-8.382 8.383-19.749 13.092-31.603 13.092s-23.225-4.709-31.607-13.092c-8.382-8.383-13.093-19.752-13.093-31.606v-8.001c-41.487 33.858-93.33 52.46-146.881 52.699-38.312 0.271-76.119-8.78-110.157-26.372s-63.288-43.199-85.226-74.613c-21.938-31.413-35.908-67.691-40.705-105.705-4.797-38.016-0.277-76.625 13.17-112.504s35.418-67.945 64.019-93.442c28.601-25.498 62.973-43.657 100.154-52.912 37.183-9.255 76.056-9.333 113.271-0.219s71.66 27.141 100.357 52.531c11.766-39.643 37.42-73.718 72.265-95.983 34.85-22.26 76.551-31.222 117.467-25.239s78.302 26.512 105.316 57.822c27.009 31.31 41.833 71.305 41.755 112.655v127.707c-0.156 130.353-52.005 255.326-144.184 347.501-92.175 92.175-217.147 144.026-347.502 144.18zM528.252 321.438c-29.047 0-57.446 8.616-81.6 24.752-24.154 16.14-42.98 39.083-54.097 65.921s-14.025 56.369-8.358 84.861c5.667 28.492 19.656 54.663 40.197 75.205s46.713 34.53 75.205 40.197c28.492 5.668 58.022 2.759 84.86-8.358s49.781-29.943 65.921-54.096c16.135-24.154 24.752-52.552 24.752-81.6-0.049-38.941-15.536-76.273-43.071-103.809s-64.868-43.023-103.809-43.071z" />
<glyph unicode="&#xe904;" glyph-name="clock" d="M501.961-43.924c277.225 0 501.963 224.738 501.963 501.963s-224.738 501.961-501.963 501.961c-277.225 0-501.961-224.735-501.961-501.961s224.735-501.963 501.961-501.963zM943.688 458.039c0-243.957-197.771-441.728-441.728-441.728s-441.725 197.771-441.725 441.728c0 243.958 197.768 441.725 441.725 441.725s441.728-197.768 441.728-441.725zM532.081 651.294c0 16.633-13.484 30.118-30.118 30.118s-30.118-13.484-30.118-30.118v-178.196c0-24.951 20.226-45.176 45.176-45.176h233.414c16.631 0 30.118 13.484 30.118 30.118s-13.487 30.118-30.118 30.118h-218.355v163.137z" />
<glyph unicode="&#xe905;" glyph-name="down-arrow-fill" horiz-adv-x="1463" d="M824.503 94.237c-58.486-78.791-176.434-78.791-234.922 0l-469.349 632.285c-71.652 96.526-2.752 233.478 117.461 233.478h938.699c120.213 0 189.112-136.952 117.462-233.478l-469.35-632.285z" />
<glyph unicode="&#xe906;" glyph-name="down-arrow-lrg" horiz-adv-x="1862" d="M1749.402 801.39c36.184 36.522 35.914 95.464-0.605 131.649-36.529 36.185-95.465 35.912-131.649-0.611l-732.731-739.559-669.262 709.101c-35.289 37.389-94.206 39.092-131.596 3.804s-39.092-94.206-3.804-131.595l731.308-774.839c16.597-17.585 38.42-27.276 60.773-28.942 28.493-4.413 58.631 4.422 80.475 26.466l797.091 804.527z" />
<glyph unicode="&#xe907;" glyph-name="delete" d="M480.003 960c58.933 0 98.593-14.825 124.417-32.041 12.764-8.51 21.692-17.304 27.666-24.473 2.979-3.575 5.21-6.729 6.814-9.223 0.802-1.247 1.445-2.33 1.951-3.22 0.256-0.445 0.467-0.842 0.653-1.187l0.359-0.688 0.051-0.097 0.019-0.047c0.013-0.022 0.026-0.045-28.596-14.356l28.621 14.31c7.904-15.807 1.498-35.028-14.311-42.932-15.532-7.766-34.36-1.715-42.509 13.494l-0.074 0.116c-0.271 0.422-0.957 1.434-2.145 2.86-2.359 2.831-6.765 7.37-14.001 12.194-14.176 9.451-41.183 21.292-88.916 21.292s-74.737-11.844-88.913-21.297c-7.235-4.825-11.642-9.365-14.001-12.197-1.188-1.426-1.873-2.439-2.145-2.861l-0.074-0.116c-8.148-15.21-26.975-21.262-42.508-13.498-15.809 7.902-22.218 27.123-14.316 42.931l28.056-14.024c-28.055 14.024-28.044 14.047-28.033 14.070l0.024 0.047 0.049 0.097 0.108 0.21 0.251 0.479c0.184 0.345 0.401 0.742 0.653 1.187 0.504 0.89 1.149 1.973 1.951 3.22 1.603 2.495 3.834 5.65 6.813 9.225 5.974 7.17 14.901 15.967 27.665 24.478 25.824 17.22 65.485 32.049 124.42 32.049zM62.193 681.693c-15.153 0.948-34.474 0.963-62.193 0.963v64h960c17.67 0 32-14.326 32-32s-14.33-32-32-32c-27.718 0-47.040-0.014-62.195-0.963-14.893-0.932-23.616-2.678-30.285-5.19-25.875-9.738-46.298-30.157-56.032-56.031-2.515-6.675-4.262-15.392-5.19-30.289-0.947-15.153-0.966-34.474-0.966-62.193v-253.007c0-58.349 0.006-105.382-4.966-142.374-5.165-38.406-16.211-70.739-41.894-96.422s-58.016-36.73-96.422-41.888c-36.991-4.979-84.024-4.973-142.374-4.973h-79.347c-58.351 0-105.384-0.006-142.374 4.973-38.404 5.158-70.74 16.205-96.422 41.888s-36.728 58.016-41.891 96.422c-4.973 36.992-4.973 84.026-4.972 142.374v253.007c0 27.72-0.015 47.041-0.963 62.193-0.932 14.897-2.678 23.615-5.19 30.289-9.738 25.873-30.158 46.293-56.031 56.031-6.674 2.512-15.392 4.258-30.289 5.19zM773.331 682.656h-586.664c8.999-11.997 16.353-25.317 21.744-39.64 5.692-15.123 8.049-30.964 9.167-48.835 1.088-17.388 1.088-38.714 1.088-65.15v0-251.706c0-61.248 0.068-103.962 4.401-136.192 4.209-31.302 11.908-47.885 23.717-59.693s28.387-19.507 59.695-23.718c32.228-4.333 74.942-4.397 136.187-4.397h74.666c61.245 0 103.959 0.064 136.19 4.397 31.302 4.211 47.885 11.91 59.693 23.718s19.507 28.39 23.718 59.693c4.333 32.23 4.397 74.944 4.397 136.192v251.708c0 26.435 0 47.761 1.088 65.148 1.12 17.871 3.475 33.712 9.171 48.835 5.389 14.323 12.742 27.642 21.741 39.64zM314.656 288c0-17.67 14.327-32 32-32s32 14.33 32 32v160c0 17.673-14.326 32-32 32s-32-14.327-32-32v-160zM581.344 288c0-17.67 14.326-32 32-32s32 14.33 32 32v160c0 17.673-14.327 32-32 32s-32-14.327-32-32v-160z" />
<glyph unicode="&#xe908;" glyph-name="download" horiz-adv-x="768" d="M373.333 256l-22.627-22.63 22.627-22.624 22.628 22.624-22.628 22.63zM405.333 896c0 17.673-14.326 32-32 32s-32-14.327-32-32h64zM30.706 553.373l320-320.003 45.255 45.261-320 319.997-45.255-45.254zM395.961 233.37l320.001 320.003-45.254 45.254-320.001-319.997 45.255-45.261zM405.333 256v640h-64v-640h64zM0-42.669h746.669v64h-746.669v-64z" />
<glyph unicode="&#xe909;" glyph-name="edit" d="M627.178 760.89l164.147-123.111-454.205-454.205c-19.868-19.867-23.97-23.422-28.213-25.823s-9.4-4.091-36.658-10.906l-153.984-38.496 38.496 153.984c6.814 27.258 8.503 32.416 10.906 36.658s5.956 8.345 25.823 28.212l433.687 433.687zM796.565 952.857c-28.621 9.524-59.556 9.524-88.177 0-18.468-6.145-33.502-16.624-47.351-28.41-13.125-11.169-27.865-25.91-44.952-42.998l-491.477-491.474c-15.124-15.093-28.514-28.453-37.95-45.119s-14.004-35.021-19.165-55.755l-1.045-4.192-39.118-156.469c-3.653-14.586-7.554-30.163-8.834-43.246-1.409-14.404-1.081-38.705 18.414-58.198s43.796-19.828 58.201-18.413c13.082 1.275 28.66 5.176 43.246 8.834l2.485 0.624 158.176 39.537c20.733 5.16 39.088 9.728 55.754 19.165s30.027 22.825 45.12 37.95l3.052 3.056 488.42 488.419c17.088 17.087 31.83 31.827 42.998 44.953 11.785 13.849 22.267 28.882 28.411 47.351 9.523 28.621 9.523 59.556 0 88.177-6.144 18.468-16.626 33.502-28.411 47.351-11.168 13.124-25.908 27.864-42.994 44.949l-0.002 0.001-2.5 2.501c-17.086 17.087-31.826 31.828-44.951 42.997-13.849 11.786-28.882 22.265-47.351 28.41z" />
<glyph unicode="&#xe90a;" glyph-name="calender" d="M315.044 776h409.909c57.101 0.001 103.123 0.001 139.392-4.777 37.632-4.958 69.408-15.557 94.925-40.25 1.254-1.213 2.49-2.448 3.706-3.702 24.691-25.515 35.29-57.293 40.25-94.924 4.774-36.267 4.774-82.292 4.774-139.391v-34.289h-976v34.289c-0.001 57.099-0.001 103.124 4.777 139.391 4.958 37.631 15.557 69.409 40.25 94.924 1.213 1.254 2.448 2.488 3.702 3.702 25.515 24.693 57.293 35.292 94.924 40.25 36.267 4.778 82.292 4.778 139.391 4.777zM184.013 707.772c-30.716-4.047-47.071-11.459-58.776-22.788-0.753-0.728-1.493-1.469-2.221-2.221-11.329-11.705-18.74-28.060-22.788-58.776-3.379-25.644-4.058-58.003-4.195-101.32h847.934c-0.141 43.317-0.819 75.676-4.198 101.32-4.045 30.716-11.456 47.071-22.784 58.776-0.73 0.753-1.472 1.493-2.221 2.221-11.706 11.329-28.064 18.74-58.778 22.788-31.597 4.163-73.395 4.228-133.318 4.228h-405.336c-59.927 0-101.722-0.065-133.32-4.228zM317.659 776h404.684c58.349 0.001 105.382 0.001 142.374-4.972 38.4-5.164 70.739-16.21 96.422-41.891 25.677-25.682 36.723-58.018 41.888-96.422 4.973-36.991 4.973-84.024 4.973-142.374v-252.683c0-58.349 0-105.382-4.973-142.374-5.165-38.4-16.211-70.739-41.888-96.422-25.683-25.677-58.022-36.723-96.422-41.888-36.992-4.973-84.026-4.973-142.374-4.973h-404.683c-58.351 0-105.384 0-142.374 4.973-38.404 5.165-70.74 16.211-96.422 41.888-25.682 25.683-36.728 58.022-41.891 96.422-4.973 36.992-4.973 84.026-4.972 142.374v252.684c-0.001 58.351-0.002 105.383 4.972 142.374 5.163 38.404 16.209 70.74 41.891 96.422s58.018 36.728 96.422 41.891c36.991 4.973 84.023 4.972 142.374 4.972zM183.813 707.599c-31.308-4.209-47.887-11.908-59.695-23.716s-19.508-28.388-23.716-59.695c-4.333-32.228-4.401-74.943-4.401-136.187v-248c0-61.242 0.068-103.962 4.401-136.186 4.209-31.309 11.908-47.891 23.716-59.699s28.388-19.507 59.695-23.712c32.228-4.333 74.943-4.403 136.187-4.403h400c61.242 0 103.962 0.070 136.186 4.403 31.309 4.205 47.891 11.904 59.699 23.712s19.507 28.39 23.712 59.699c4.333 32.224 4.403 74.944 4.403 136.186v248c0 61.244-0.070 103.958-4.403 136.187-4.205 31.308-11.904 47.887-23.712 59.695s-28.39 19.508-59.699 23.716c-32.224 4.333-74.944 4.401-136.186 4.401h-400c-61.244 0-103.958-0.068-136.187-4.401zM266.662 934.406c21.208 0 38.4-17.192 38.4-38.4v-253.334c0-21.208-17.192-38.4-38.4-38.4s-38.4 17.192-38.4 38.4v253.334c0 21.208 17.192 38.4 38.4 38.4zM773.286 934.406c21.21 0 38.4-17.192 38.4-38.4v-253.334c0-21.208-17.19-38.4-38.4-38.4s-38.4 17.192-38.4 38.4v253.334c0 21.208 17.19 38.4 38.4 38.4z" />
<glyph unicode="&#xe90b;" glyph-name="dots" d="M198.437 896.598c-1.514-7.609-1.514-16.759-1.514-35.059s0-27.45 1.514-35.059c6.215-31.247 30.642-55.673 61.889-61.889 7.609-1.513 16.759-1.513 35.059-1.513s27.45 0 35.059 1.513c31.247 6.216 55.673 30.642 61.889 61.889 1.513 7.609 1.513 16.759 1.513 35.059s0 27.45-1.513 35.059c-6.216 31.247-30.642 55.673-61.889 61.889-7.609 1.514-16.759 1.514-35.059 1.514s-27.45 0-35.059-1.514c-31.247-6.215-55.673-30.642-61.889-61.889zM592.282 896.598c-1.513-7.609-1.513-16.759-1.513-35.059s0-27.45 1.513-35.059c6.216-31.247 30.642-55.673 61.889-61.889 7.609-1.513 16.759-1.513 35.059-1.513s27.45 0 35.059 1.513c31.247 6.216 55.673 30.642 61.889 61.889 1.513 7.609 1.513 16.759 1.513 35.059s0 27.45-1.513 35.059c-6.216 31.247-30.642 55.673-61.889 61.889-7.609 1.514-16.759 1.514-35.059 1.514s-27.45 0-35.059-1.514c-31.247-6.215-55.673-30.642-61.889-61.889zM196.923 467.692c0 18.3 0 27.45 1.514 35.059 6.215 31.247 30.642 55.673 61.889 61.889 7.609 1.513 16.759 1.513 35.059 1.513s27.45 0 35.059-1.513c31.247-6.216 55.673-30.642 61.889-61.889 1.513-7.609 1.513-16.759 1.513-35.059s0-27.45-1.513-35.059c-6.216-31.247-30.642-55.673-61.889-61.889-7.609-1.513-16.759-1.513-35.059-1.513s-27.45 0-35.059 1.513c-31.247 6.216-55.673 30.642-61.889 61.889-1.514 7.609-1.514 16.759-1.514 35.059zM592.282 502.752c-1.513-7.609-1.513-16.759-1.513-35.059s0-27.45 1.513-35.059c6.216-31.247 30.642-55.673 61.889-61.889 7.609-1.513 16.759-1.513 35.059-1.513s27.45 0 35.059 1.513c31.247 6.216 55.673 30.642 61.889 61.889 1.513 7.609 1.513 16.759 1.513 35.059s0 27.45-1.513 35.059c-6.216 31.247-30.642 55.673-61.889 61.889-7.609 1.513-16.759 1.513-35.059 1.513s-27.45 0-35.059-1.513c-31.247-6.216-55.673-30.642-61.889-61.889zM196.923 73.846c0 18.298 0 27.451 1.514 35.060 6.215 31.248 30.642 55.674 61.889 61.889 7.609 1.512 16.759 1.512 35.059 1.512s27.45 0 35.059-1.512c31.247-6.215 55.673-30.641 61.889-61.889 1.513-7.609 1.513-16.762 1.513-35.060s0-27.451-1.513-35.060c-6.216-31.248-30.642-55.674-61.889-61.889-7.609-1.512-16.759-1.512-35.059-1.512s-27.45 0-35.059 1.512c-31.247 6.215-55.673 30.641-61.889 61.889-1.514 7.609-1.514 16.762-1.514 35.060zM592.282 108.906c-1.513-7.609-1.513-16.762-1.513-35.060s0-27.451 1.513-35.060c6.216-31.248 30.642-55.674 61.889-61.889 7.609-1.512 16.759-1.512 35.059-1.512s27.45 0 35.059 1.512c31.247 6.215 55.673 30.641 61.889 61.889 1.513 7.609 1.513 16.762 1.513 35.060s0 27.451-1.513 35.060c-6.216 31.248-30.642 55.674-61.889 61.889-7.609 1.512-16.759 1.512-35.059 1.512s-27.45 0-35.059-1.512c-31.247-6.215-55.673-30.641-61.889-61.889z" />
<glyph unicode="&#xe90c;" glyph-name="download1" d="M203.942 630.632l-45.255-45.255 342.628-342.625 342.627 342.625-45.254 45.255-265.373-265.373v562.745c0 17.673-14.327 32-32 32s-32-14.327-32-32v-562.745l-265.373 265.373zM128 53.344h746.669v-64h-746.669v64z" />
<glyph unicode="&#xe90d;" glyph-name="drop-down" d="M935.724 626.682c22.513 22.718 22.338 59.381-0.38 81.889s-59.377 22.338-81.883-0.38l-377.138-380.652-344.071 364.553c-21.95 23.257-58.598 24.316-81.856 2.366s-24.316-58.598-2.366-81.855l383.066-405.869c10.165-10.77 23.483-16.78 37.164-17.949 17.689-2.708 36.385 2.795 49.943 16.481l417.521 421.416z" />
<glyph unicode="&#xe90e;" glyph-name="home" horiz-adv-x="878" d="M430.702 960c-90.693-0.046-178.709-30.736-249.768-87.090s-120.99-135.066-141.693-223.364c-20.703-88.298-10.962-181.003 27.642-263.070s103.805-148.68 185.026-189.030v-42.018c0-11.854 4.709-23.225 13.092-31.607s19.752-13.093 31.607-13.093h268.192c11.854 0 23.22 4.71 31.603 13.093s13.093 19.753 13.093 31.607v42.018c81.223 40.35 146.422 106.964 185.027 189.030s48.343 174.771 27.643 263.070c-20.704 88.298-70.636 167.010-141.697 223.364-71.056 56.354-159.071 87.044-249.765 87.090zM547.991 267.8c-8.246-3.345-15.306-9.075-20.275-16.457s-7.621-16.082-7.617-24.981v-26.234h-178.794v26.234c0 8.904-2.659 17.608-7.637 24.99s-12.046 13.107-20.3 16.447c-67.317 27.224-123.069 77.015-157.7 140.839s-45.986 137.704-32.118 208.981 52.094 135.511 108.129 181.695c56.035 46.183 126.387 71.439 199.001 71.439 72.611 0 142.965-25.256 199.002-71.439 56.032-46.183 94.262-110.418 108.13-181.695s2.511-145.158-32.119-208.981c-34.631-63.824-90.385-113.615-157.701-140.839zM296.607-23.367c-11.855 0-23.224 4.71-31.607 13.093s-13.092 19.753-13.092 31.607c0 11.854 4.709 23.225 13.092 31.607s19.752 13.093 31.607 13.093h268.192c11.854 0 23.22-4.71 31.603-13.093s13.093-19.753 13.093-31.607c0-11.854-4.71-23.225-13.093-31.607s-19.749-13.093-31.603-13.093h-268.192zM537.98 577.694c3.672-7.446 5.203-15.769 4.413-24.035s-3.867-16.149-8.884-22.764l-134.096-178.795c-7.113-9.484-17.702-15.75-29.438-17.428s-23.656 1.375-33.14 8.489c-9.484 7.114-15.754 17.701-17.43 29.438s1.378 23.654 8.49 33.139l80.457 107.278h-44.698c-8.093-0.001-16.033 2.195-22.976 6.353s-12.625 10.123-16.443 17.259c-3.818 7.135-5.627 15.173-5.234 23.256s2.972 15.908 7.463 22.639l89.397 134.095c6.579 9.863 16.808 16.709 28.434 19.031s23.7-0.070 33.563-6.649c9.863-6.579 16.709-16.808 19.030-28.434s-0.068-23.7-6.646-33.563l-43.047-64.589h50.556c8.343 0.045 16.53-2.246 23.64-6.614 7.114-4.369 12.859-10.64 16.589-18.104z" />
<glyph unicode="&#xe90f;" glyph-name="filter" d="M0 802.462c0 21.751 17.633 39.385 39.385 39.385h918.977c21.748 0 39.385-17.633 39.385-39.385s-17.636-39.385-39.385-39.385h-918.977c-21.751 0-39.385 17.633-39.385 39.385zM0 474.27c0 21.751 17.633 39.385 39.385 39.385h656.41c21.752 0 39.385-17.633 39.385-39.385s-17.632-39.385-39.385-39.385h-656.41c-21.751 0-39.385 17.632-39.385 39.385zM39.385 185.461c-21.751 0-39.385-17.633-39.385-39.385s17.633-39.385 39.385-39.385h393.846c21.751 0 39.385 17.633 39.385 39.385s-17.633 39.385-39.385 39.385h-393.846z" />
<glyph unicode="&#xe910;" glyph-name="lead" horiz-adv-x="878" d="M156.221 631.869c36.219-19.25 76.443-29.75 117.45-30.658s81.656 7.8 118.692 25.428c-4.092-22.75-6.216-45.81-6.347-68.925v-89.395h-223.492c-11.855 0-23.224-4.71-31.606-13.093s-13.092-19.753-13.092-31.607v-134.095c0-11.854 4.709-23.225 13.092-31.607s19.751-13.093 31.606-13.093h44.698v-223.49c0-11.854 4.709-23.225 13.092-31.607s19.752-13.093 31.606-13.093h357.589c11.854 0 23.22 4.71 31.607 13.093 8.382 8.382 13.088 19.753 13.088 31.607v223.49h44.7c11.854 0 23.225 4.71 31.607 13.093s13.093 19.753 13.093 31.607v134.095c0 11.854-4.71 23.225-13.093 31.607s-19.753 13.093-31.607 13.093h-223.492v89.395c0.095 82.954 33.091 162.484 91.747 221.141 58.661 58.658 138.186 91.653 221.14 91.748 11.859 0 23.225 4.709 31.607 13.092s13.093 19.752 13.093 31.607c0 11.855-4.71 23.224-13.093 31.607s-19.749 13.092-31.607 13.092c-68.476-0.083-135.802-17.66-195.584-51.062-59.777-33.403-110.035-81.524-145.999-139.8-42.15 76.881-143.169 190.862-373.589 190.862-11.855 0-23.224-4.709-31.606-13.092s-13.092-19.752-13.092-31.607c0-8.358 1.475-205.344 127.793-283.433zM564.809 66.033h-268.19v178.79h268.19v-178.79zM654.204 334.224h-446.982v44.695h446.982v-44.695zM375.109 715.455c-73.082-30.261-130.698-32.898-171.686-7.688-51.582 31.781-73.574 106.516-81.62 160.914 165.876-14.84 230.152-103.835 253.306-153.226z" />
<glyph unicode="&#xe911;" glyph-name="lock" horiz-adv-x="757" d="M393.261 960c-59.018-0.071-115.598-23.547-157.33-65.279s-65.208-98.312-65.279-157.33v-123.103c-57.604-46.121-99.462-108.994-119.788-179.935-20.326-70.936-18.116-146.436 6.323-216.064s69.902-129.95 130.105-172.62c60.203-42.674 132.174-65.594 205.967-65.594s145.764 22.92 205.966 65.594c60.202 42.67 105.668 102.992 130.106 172.62 24.442 69.628 26.651 145.128 6.327 216.064-20.329 70.941-62.184 133.814-119.79 179.935v123.103c-0.071 59.018-23.548 115.598-65.278 157.33-41.735 41.732-98.313 65.208-157.33 65.279zM259.696 737.391c0 35.424 14.072 69.396 39.12 94.445s59.021 39.12 94.445 39.12c35.424 0 69.396-14.072 94.444-39.12s39.121-59.021 39.121-94.445v-70.745c-85.611 34.962-181.519 34.962-267.13 0v70.745zM660.391 336.696c0-52.834-15.667-104.479-45.020-148.409s-71.070-78.171-119.884-98.389c-48.809-20.217-102.522-25.507-154.34-15.2s-99.417 35.747-136.775 73.109c-37.359 37.358-62.801 84.956-73.108 136.775-10.308 51.814-5.018 105.525 15.201 154.339s54.457 90.532 98.387 119.885c43.929 29.353 95.576 45.019 148.41 45.019 70.825-0.071 138.729-28.237 188.812-78.319s78.247-117.987 78.318-188.812zM482.304 381.217c-0.045-15.569-4.181-30.849-11.994-44.312-7.814-13.468-19.033-24.638-32.527-32.398v-101.376c0-11.807-4.691-23.133-13.040-31.481s-19.674-13.040-31.481-13.040c-11.808 0-23.132 4.693-31.482 13.040s-13.040 19.674-13.040 31.481v101.376c-13.551 7.822-24.801 19.082-32.617 32.634-7.816 13.557-11.922 28.935-11.904 44.58 0.018 15.649 4.159 31.014 12.005 44.553s19.123 24.767 32.691 32.563c13.568 7.791 28.951 11.869 44.599 11.825s31.007-4.212 44.531-12.079c13.526-7.871 24.736-19.167 32.505-32.746 7.769-13.584 11.825-28.97 11.754-44.62z" />
<glyph unicode="&#xe912;" glyph-name="expand" horiz-adv-x="1243" d="M253.847 917.321h735.805c41.275 0.001 75.308 0.002 102.246-3.62 28.277-3.802 53.255-12.092 73.253-32.089s28.284-44.973 32.088-73.253c3.621-26.936 3.621-60.97 3.621-102.243v-491.969c0-41.275 0-75.308-3.621-102.246-3.803-28.277-12.091-53.255-32.088-73.253s-44.976-28.284-73.253-32.088c-26.939-3.621-60.972-3.621-102.246-3.621h-735.805c-41.272 0-75.306 0-102.243 3.621-28.28 3.803-53.255 12.091-73.253 32.088s-28.287 44.976-32.089 73.253c-3.621 26.939-3.621 60.972-3.62 102.246v0 491.971c-0.001 41.272-0.002 75.305 3.62 102.241 3.802 28.28 12.092 53.255 32.089 73.253s44.973 28.287 73.253 32.089c26.936 3.621 60.97 3.621 102.242 3.62h0.001zM159.727 853.287c-21.52-2.894-31.487-7.995-38.271-14.779s-11.885-16.751-14.779-38.271c-3.011-22.397-3.076-52.305-3.076-96.271v-487.668c0-43.966 0.064-73.874 3.076-96.271 2.894-21.526 7.995-31.488 14.779-38.276 6.784-6.78 16.751-11.886 38.271-14.775 22.397-3.013 52.305-3.079 96.271-3.079h731.503c43.966 0 73.874 0.066 96.271 3.079 21.519 2.889 31.488 7.995 38.276 14.775 6.78 6.788 11.886 16.75 14.775 38.276 3.013 22.396 3.079 52.304 3.079 96.271v487.668c0 43.966-0.066 73.874-3.079 96.271-2.889 21.52-7.995 31.487-14.775 38.271-6.788 6.784-16.757 11.885-38.276 14.779-22.396 3.011-52.304 3.076-96.271 3.076h-731.503c-43.966 0-73.874-0.064-96.271-3.076zM225.571 734.429h274.314v-60.959h-170.251l191.803-191.804c11.903-11.903 11.903-31.201 0-43.104s-31.201-11.903-43.104 0l-191.804 191.803v-170.251h-60.959v274.314zM743.76 185.819h274.308v274.316h-60.957v-170.252l-191.803 191.804c-11.9 11.903-31.203 11.903-43.103 0-11.903-11.903-11.903-31.202 0-43.105l191.803-191.803h-170.247v-60.961z" />
<glyph unicode="&#xe913;" glyph-name="line-graph" d="M725.028 929.882h-426.056c-54.918 0.001-99.183 0.001-133.998-4.679-36.145-4.86-66.579-15.256-90.75-39.427s-34.567-54.605-39.427-90.75c-4.681-34.815-4.68-79.081-4.679-133.998v-426.056c-0.001-54.917-0.001-99.183 4.679-133.999 4.86-36.141 15.256-66.578 39.427-90.75 24.171-24.166 54.605-34.563 90.75-39.424 34.815-4.68 79.081-4.68 133.999-4.68h426.054c54.917 0 99.183 0 133.999 4.68 36.141 4.861 66.578 15.258 90.75 39.424 24.166 24.172 34.563 54.609 39.424 90.75 4.68 34.816 4.68 79.083 4.68 133.999v426.054c0 54.918 0 99.185-4.68 133.999-4.861 36.145-15.258 66.579-39.424 90.75-24.172 24.171-54.609 34.567-90.75 39.427-34.816 4.681-79.083 4.68-133.999 4.679v0zM116.817 843.183c11.114 11.114 26.718 18.36 56.184 22.321 30.333 4.079 70.534 4.142 128.176 4.142h421.647c57.639 0 97.846-0.064 128.175-4.142 29.467-3.961 45.074-11.207 56.187-22.321s18.36-26.718 22.317-56.184c4.078-30.333 4.144-70.534 4.144-128.176v-421.647c0-57.639-0.066-97.846-4.144-128.175-3.957-29.467-11.204-45.074-22.317-56.187s-26.72-18.36-56.187-22.317c-30.328-4.078-70.536-4.144-128.175-4.144h-421.647c-57.642 0-97.843 0.066-128.176 4.144-29.466 3.957-45.070 11.204-56.184 22.317s-18.36 26.72-22.321 56.187c-4.079 30.328-4.142 70.536-4.142 128.175v421.647c0 57.642 0.064 97.843 4.142 128.176 3.961 29.466 11.207 45.070 22.321 56.184zM788.028 581.879c9.228 13.84 5.487 32.539-8.355 41.765s-32.539 5.487-41.767-8.353l-143.207-214.813c-12.828-19.241-41.656-17.447-51.998 3.237l-7.554 15.108c-31.025 62.051-117.51 67.435-155.992 9.712l-143.209-214.815c-9.226-13.836-5.487-32.539 8.353-41.761 13.84-9.228 32.539-5.487 41.765 8.349l143.209 214.815c12.827 19.241 41.656 17.447 51.998-3.237l7.554-15.108c31.026-62.048 117.509-67.433 155.993-9.712l143.209 214.813z" />
<glyph unicode="&#xe914;" glyph-name="notes" horiz-adv-x="896" d="M618.687 576c-17.673 0-32 14.327-32 32v106.667c0 17.673 14.327 32 32 32s32.001-14.327 32.001-32v-106.667c0-17.673-14.328-32-32.001-32zM392.346 960c-58.351 0.001-105.383 0.002-142.374-4.972-38.404-5.163-70.74-16.21-96.422-41.891s-36.728-58.018-41.892-96.422c-4.421-32.888-4.911-73.712-4.965-123.371h-74.694c-17.673 0-32-14.327-32-32s14.327-32 32-32h74.687v-149.344h-74.687c-17.673 0-32-14.327-32-32s14.327-32 32-32h74.687v-141.011c0-2.79 0-5.562 0.001-8.301h-74.688c-17.673 0-32-14.33-32-32s14.327-32 32-32h75.146c0.557-26.515 1.788-49.798 4.513-70.067 5.164-38.406 16.21-70.746 41.892-96.422 25.681-25.683 58.017-36.73 96.422-41.894 36.991-4.973 84.024-4.973 142.374-4.973h186.015c58.351 0 105.382 0 142.374 4.973 38.406 5.165 70.739 16.211 96.422 41.894 25.683 25.677 36.73 58.016 41.888 96.422 4.973 36.986 4.973 84.019 4.973 142.374v399.345c0 58.351 0 105.384-4.973 142.374-5.158 38.404-16.205 70.74-41.888 96.422s-58.016 36.728-96.422 41.891c-36.992 4.973-84.023 4.973-142.374 4.972h-186.016zM171.163 202.688h74.17c17.674 0 32 14.33 32 32s-14.326 32-32 32h-74.644c-0.001 3.482-0.002 7.034-0.002 10.643v138.669h74.646c17.674 0 32 14.327 32 32s-14.326 32-32 32h-74.646v149.344h74.646c17.674 0 32 14.326 32 32s-14.326 32-32 32h-74.636c0.068 50.041 0.58 86.497 4.391 114.843 4.209 31.308 11.908 47.887 23.716 59.695s28.388 19.508 59.695 23.716c32.228 4.333 74.943 4.401 136.187 4.401h181.334c61.244 0 103.96-0.068 136.184-4.401 31.309-4.209 47.891-11.908 59.699-23.716s19.507-28.388 23.718-59.695c4.333-32.228 4.397-74.943 4.397-136.187v-394.669c0-61.242-0.064-103.955-4.397-136.186-4.211-31.309-11.91-47.885-23.718-59.693s-28.39-19.507-59.699-23.718c-32.224-4.333-74.94-4.403-136.184-4.403h-181.334c-61.244 0-103.958 0.070-136.187 4.403-31.308 4.211-47.887 11.91-59.695 23.718s-19.507 28.384-23.716 59.693c-2.305 17.146-3.403 37.254-3.926 61.542z" />
<glyph unicode="&#xe915;" glyph-name="opportunity" horiz-adv-x="878" d="M341.318-23.367h178.791c11.859 0 23.225 4.71 31.607 13.093s13.093 19.753 13.093 31.607v521.496l259.252 345.653c4.979 6.641 8.012 14.537 8.758 22.805s-0.824 16.579-4.54 24.004c-3.711 7.425-9.416 13.669-16.477 18.033s-15.199 6.676-23.503 6.676h-715.173c-8.301 0-16.438-2.312-23.499-6.676s-12.768-10.608-16.48-18.033c-3.712-7.425-5.284-15.736-4.538-24.004s3.778-16.164 8.759-22.805l259.251-345.653v-521.496c0-11.854 4.709-23.225 13.092-31.607s19.752-13.093 31.607-13.093zM162.524 870.603h536.38l-214.552-286.070c-5.803-7.737-8.94-17.148-8.94-26.819v-491.681h-89.397v491.681c0 9.671-3.137 19.082-8.94 26.819l-214.552 286.070z" />
<glyph unicode="&#xe916;" glyph-name="right-arrow" horiz-adv-x="1365" d="M819.425-44.672c-10.708-10.342-25.051-16.068-39.939-15.94-14.886 0.137-29.128 6.101-39.654 16.631s-16.498 24.764-16.628 39.654c-0.129 14.891 5.594 29.227 15.936 39.936l357.308 357.307h-998.503c-15.058 0-29.5 5.982-40.148 16.63s-16.63 25.090-16.63 40.148c0 15.058 5.982 29.5 16.63 40.148s25.090 16.63 40.148 16.63h998.503l-357.308 357.305c-10.342 10.708-16.065 25.051-15.936 39.938s6.1 29.128 16.628 39.655c10.527 10.527 24.768 16.498 39.654 16.628s29.23-5.594 39.939-15.936l454.226-454.225c5.257-5.286 9.429-11.556 12.262-18.452 2.884-6.868 4.369-14.241 4.369-21.689s-1.485-14.822-4.369-21.69c-2.833-6.897-7.006-13.167-12.262-18.452l-454.226-454.224z" />
<glyph unicode="&#xe917;" glyph-name="link" d="M921.914 692.578c-53.412 92.513-171.704 124.21-264.218 70.797l-147.801-85.333c-16.325-9.426-37.201-3.832-46.627 12.493s-3.832 37.201 12.493 46.627l147.801 85.333c125.166 72.263 285.21 29.379 357.477-95.785 72.26-125.164 29.375-285.21-95.785-357.474l-147.804-85.333c-16.329-9.426-37.199-3.832-46.626 12.494s-3.837 37.201 12.493 46.627l147.804 85.333c92.508 53.412 124.204 171.707 70.793 264.219zM165.022 478.932c-92.513-53.413-124.21-171.707-70.798-264.22 53.413-92.514 171.708-124.211 264.22-70.799l147.801 85.335c16.326 9.426 37.202 3.832 46.627-12.493s3.832-37.201-12.494-46.627l-147.801-85.333c-125.164-72.26-285.21-29.382-357.474 95.784-72.263 125.164-29.379 285.211 95.785 357.474l147.801 85.333c16.326 9.426 37.201 3.832 46.627-12.493s3.832-37.201-12.493-46.627l-147.801-85.333zM281.459 322.798c-9.426 16.325-3.832 37.201 12.494 46.627l394.134 227.555c16.329 9.426 37.205 3.832 46.633-12.493 9.421-16.325 3.83-37.201-12.5-46.627l-394.134-227.555c-16.326-9.426-37.202-3.832-46.627 12.493z" />
<glyph unicode="&#xe918;" glyph-name="Vector-1" horiz-adv-x="1075" d="M69.26 789.569c-59.927 66.038-12.068 170.431 78.133 170.431h812.597c90.199 0 138.056-104.393 78.131-170.431l-327.624-361.035v-441.334c0-17.746-9.38-34.222-24.791-43.556-15.411-9.329-34.652-10.173-50.852-2.237l-209.078 102.4c-17.709 8.673-28.894 26.399-28.894 45.793v338.934l-327.622 361.035zM959.99 857.6h-812.597l340.824-375.583c8.504-9.375 13.203-21.478 13.203-34.017v-326.758l104.537-51.2v377.958c0 12.539 4.7 24.643 13.204 34.017l340.828 375.583z" />
<glyph unicode="&#xe919;" glyph-name="notes1" d="M488.346 928h-0.001c-58.35 0.001-105.382 0.002-142.372-4.972-38.405-5.163-70.741-16.209-96.422-41.891s-36.728-58.018-41.892-96.422c-4.421-32.888-4.911-73.712-4.965-123.371h-74.694c-17.673 0-32-14.327-32-32s14.327-32 32-32h74.687v-149.344h-74.687c-17.673 0-32-14.327-32-32s14.327-32 32-32h74.687v-141.011c0-2.79 0-5.562 0.001-8.301h-74.688c-17.673 0-32-14.33-32-32s14.327-32 32-32h75.146c0.557-26.515 1.788-49.798 4.513-70.067 5.164-38.406 16.21-70.746 41.892-96.422 25.681-25.683 58.017-36.73 96.422-41.894 36.991-4.973 84.024-4.973 142.374-4.973h186.015c58.349 0 105.382 0 142.374 4.973 38.406 5.165 70.739 16.211 96.422 41.894 25.683 25.677 36.73 58.016 41.888 96.422 4.979 36.986 4.973 84.019 4.973 142.374v399.345c0 58.351 0.006 105.384-4.973 142.374-5.158 38.404-16.205 70.74-41.888 96.422s-58.016 36.728-96.422 41.891c-36.992 4.973-84.026 4.973-142.373 4.972h-186.017zM267.163 170.688h74.17c17.674 0 32 14.33 32 32s-14.326 32-32 32h-74.644c-0.001 3.482-0.002 7.034-0.002 10.643v138.669h74.646c17.674 0 32 14.327 32 32s-14.326 32-32 32h-74.646v149.344h74.646c17.674 0 32 14.326 32 32s-14.326 32-32 32h-74.636c0.068 50.041 0.58 86.497 4.391 114.843 4.209 31.308 11.908 47.887 23.716 59.695s28.388 19.508 59.695 23.716c32.228 4.333 74.943 4.401 136.187 4.401h181.334c61.246 0 103.96-0.068 136.184-4.401 31.309-4.209 47.891-11.908 59.699-23.716s19.507-28.388 23.718-59.695c4.333-32.228 4.397-74.943 4.397-136.187v-394.669c0-61.242-0.064-103.955-4.397-136.186-4.211-31.309-11.91-47.885-23.718-59.693s-28.39-19.507-59.699-23.718c-32.224-4.333-74.938-4.403-136.184-4.403h-181.334c-61.244 0-103.958 0.070-136.187 4.403-31.308 4.211-47.887 11.91-59.695 23.718s-19.507 28.384-23.716 59.693c-2.305 17.146-3.403 37.254-3.926 61.542zM714.688 544c-17.674 0-32.001 14.327-32.001 32v106.667c0 17.673 14.327 32 32.001 32 17.67 0 32-14.327 32-32v-106.667c0-17.673-14.33-32-32-32z" />
<glyph unicode="&#xe91a;" glyph-name="search" d="M51.2 550.4c0 197.939 160.461 358.4 358.4 358.4s358.4-160.461 358.4-358.4c0-197.939-160.461-358.4-358.4-358.4s-358.4 160.461-358.4 358.4zM409.6 960c-226.216 0-409.6-183.384-409.6-409.6s183.384-409.6 409.6-409.6c226.217 0 409.6 183.383 409.6 409.6s-183.383 409.6-409.6 409.6zM811.704 184.504c-9.999 9.994-26.209 9.994-36.209 0-9.994-9.999-9.994-26.209 0-36.209l192-192c9.999-9.994 26.209-9.994 36.209 0 9.994 9.999 9.994 26.209 0 36.209l-192 192z" />
<glyph unicode="&#xe91b;" glyph-name="settings" d="M598.959 844.96v0zM595.699 867.665v0zM605.13 804.354v0zM676.438 774.817v0zM709.519 799.163l17.063-20.856 0.706 0.576 0.663 0.621-18.432 19.659zM709.519 799.163l-15.161 22.278-1.735-1.182-1.536-1.437 18.432-19.659zM709.519 799.164l15.161-22.278 0.986 0.669 0.916 0.753-17.063 20.856zM727.875 812.914v0zM783.629 810.134v0zM800.531 794.624v0zM840.655 754.496v0zM856.166 737.597v0zM858.947 681.843v0zM845.199 663.485v0zM820.849 630.405v0zM850.383 559.096v0zM890.993 552.922v0zM913.699 549.664v0zM951.156 508.274v0zM951.161 405.698v0zM913.699 364.301v0zM890.999 361.046v0zM850.41 354.875v0zM820.871 283.551v0zM845.204 250.497l-20.857-17.068 0.852-1.040 0.949-0.949 19.057 19.057zM845.204 250.492l20.857 17.063-0.852 1.046-0.954 0.949-19.052-19.057zM858.947 232.146v0zM856.166 176.381v0zM783.635 103.85v0zM727.875 101.069v0zM709.519 114.823l17.068 20.852-1.024 0.835-1.094 0.733-14.95-22.42zM709.519 114.823l-16.831-21.046 0.911-0.728 0.975-0.647 14.945 22.42zM709.519 114.823l-17.063-20.857 0.232-0.183 16.831 21.041zM676.444 139.167v0zM605.13 109.633v0zM598.959 69.018l26.425-5.287 0.259 1.293 0.129 1.31-26.813 2.684zM598.959 69.018l-26.425 5.282-0.259-1.293-0.129-1.31 26.813-2.679zM595.699 46.296v0zM554.313 8.844v0zM451.726 8.844v0zM410.336 46.301v0zM407.078 69.007v0zM400.904 109.617v0zM329.595 139.151v0zM296.514 114.801v0zM278.155 101.047v0zM222.401 103.828v0zM205.502 119.339l-20.030-18.028 0.474-0.523 0.501-0.501 19.054 19.052zM205.501 119.339l20.029 18.028-0.474 0.528-0.501 0.501-19.054-19.057zM165.374 159.469l-19.864-18.211 0.396-0.431 0.414-0.415 19.054 19.057zM165.374 159.469l19.864 18.206-0.396 0.437-0.414 0.41-19.054-19.052zM149.864 176.365v0zM147.083 232.119v0zM160.835 250.481l20.856-17.063 0.361 0.437 0.341 0.458-21.558 16.168zM160.836 250.481l-20.856 17.063-0.361-0.442-0.341-0.453 21.558-16.168zM185.183 283.562v0zM155.646 354.87v0zM115.040 361.041l-4.43-26.575 0.87-0.146 0.878-0.092 2.681 26.813zM115.039 361.046l4.43 26.575-0.871 0.146-0.878 0.092-2.681-26.813zM92.335 364.301v0zM54.877 405.693v0zM54.877 508.277v0zM92.331 549.663v0zM115.045 552.922v0zM155.669 559.1v0zM185.203 630.401v0zM160.843 663.498v0zM147.082 681.869v0zM149.862 737.613v0zM222.403 810.155v0zM278.157 812.935v0zM296.519 799.18l-17.066-20.859 0.34-0.269 16.726 21.128zM296.52 799.18l17.745 20.28-0.499 0.437-0.52 0.411-16.726-21.128zM296.52 799.18l-17.745-20.28 0.336-0.294 0.345-0.282 17.064 20.856zM329.591 774.837v0zM400.908 804.378v0zM407.079 844.966v0zM410.335 867.661v0zM451.732 905.124v0zM554.307 905.123v0zM625.772 847.641c-1.062 10.626-1.849 19.71-4.258 27.751l-51.631-15.454c0.555-1.86 0.954-4.612 2.258-17.659l53.631 5.363zM630.159 814.348c-0.172 0.421-0.808 2.357-1.649 8.328-0.819 5.809-1.601 13.556-2.738 24.966l-53.631-5.363c1.099-10.955 1.994-19.98 3.002-27.118 0.981-6.976 2.312-14.161 4.964-20.8l50.052 19.987zM665.81 799.579c-13.921-5.977-30.036 0.697-35.651 14.769l-50.052-19.988c16.858-42.214 65.191-62.235 106.965-44.306l-21.261 49.525zM692.456 820.019c-8.876-7.261-14.907-12.188-19.591-15.717-4.818-3.627-6.634-4.544-7.055-4.723l21.261-49.525c6.57 2.82 12.59 6.959 18.216 11.198 5.756 4.336 12.773 10.084 21.294 17.055l-34.126 41.712zM691.087 818.822v0 0zM694.358 821.441v0zM715.086 836.633c-7.389-3.984-14.368-9.851-22.63-16.613l34.126-41.712c10.148 8.302 12.374 9.967 14.083 10.889l-25.578 47.437zM798.72 832.462c-24.932 16.845-57.155 18.452-83.634 4.171l25.578-47.437c8.828 4.76 19.569 4.224 27.88-1.39l30.176 44.656zM819.583 813.678c-7.551 7.551-13.91 14.084-20.863 18.783l-30.176-44.656c1.606-1.087 3.659-2.965 12.929-12.236l38.109 38.109zM859.713 773.551l-40.13 40.127-38.109-38.109 40.13-40.128 38.109 38.11zM878.495 752.685c-4.7 6.955-11.232 13.315-18.782 20.866l-38.109-38.11c9.27-9.272 11.151-11.323 12.234-12.931l44.657 30.174zM882.666 669.052c14.282 26.482 12.676 58.703-4.171 83.632l-44.657-30.174c5.616-8.31 6.155-19.050 1.39-27.878l47.438-25.581zM866.051 646.42c6.764 8.265 12.633 15.244 16.616 22.632l-47.438 25.581c-0.922-1.708-2.587-3.936-10.887-14.084l41.709-34.128zM845.614 619.776c0.178 0.417 1.094 2.237 4.721 7.054 3.53 4.686 8.456 10.716 15.716 19.591l-41.709 34.128c-6.974-8.521-12.719-15.537-17.058-21.296-4.236-5.628-8.375-11.649-11.199-18.219l49.529-21.258zM860.381 584.121c-14.072 5.62-20.744 21.731-14.767 35.655l-49.529 21.258c-17.925-41.769 2.097-90.105 44.307-106.963l19.99 50.051zM893.677 579.735c-11.41 1.141-19.16 1.921-24.969 2.739-5.972 0.841-7.906 1.479-8.327 1.647l-19.99-50.051c6.64-2.652 13.824-3.982 20.803-4.964 7.136-1.005 16.163-1.902 27.12-2.998l5.363 53.627zM921.428 575.48c-8.041 2.407-17.128 3.193-27.75 4.256l-5.363-53.627c13.048-1.305 15.797-1.703 17.661-2.259l15.452 51.631zM977.613 513.394c-5.713 29.538-27.362 53.458-56.185 62.086l-15.452-51.631c9.604-2.876 16.821-10.85 18.728-20.696l52.908 10.241zM979.090 485.356c0 10.68 0.119 19.797-1.477 28.038l-52.908-10.241c0.366-1.906 0.49-4.685 0.49-17.798h53.895zM979.090 428.603v56.753h-53.895v-56.753h53.895zM977.618 400.578c1.59 8.235 1.471 17.349 1.471 28.025h-53.895c0-13.107-0.124-15.883-0.49-17.791l52.914-10.235zM921.422 338.486c28.828 8.623 50.478 32.547 56.196 62.092l-52.914 10.235c-1.908-9.847-9.124-17.823-18.734-20.696l15.452-51.631zM893.677 334.228c10.628 1.062 19.709 1.849 27.745 4.258l-15.452 51.631c-1.859-0.555-4.608-0.954-17.656-2.258l5.363-53.631zM860.403 329.847c0.42 0.167 2.355 0.808 8.321 1.644 5.81 0.819 13.549 1.601 24.953 2.738l-5.363 53.631c-10.946-1.094-19.968-1.994-27.104-2.997-6.974-0.981-14.153-2.312-20.787-4.964l19.979-50.052zM845.63 294.184c-5.982 13.926 0.695 30.046 14.773 35.662l-19.979 50.052c-42.227-16.853-62.254-65.202-44.318-106.981l49.524 21.267zM866.061 267.56c-7.26 8.866-12.18 14.897-15.71 19.575-3.627 4.818-4.543 6.634-4.721 7.049l-49.524-21.267c2.824-6.564 6.958-12.579 11.194-18.206 4.333-5.756 10.078-12.768 17.047-21.283l41.715 34.132zM864.256 269.549v0 0zM864.256 269.549v0 0zM882.666 244.941c-3.983 7.384-9.847 14.358-16.605 22.614l-41.715-34.126c8.3-10.143 9.96-12.369 10.881-14.072l47.438 25.584zM878.495 161.291c16.847 24.937 18.454 57.166 4.171 83.65l-47.438-25.584c4.764-8.833 4.231-19.575-1.39-27.885l44.657-30.181zM859.718 140.439c7.545 7.545 14.077 13.905 18.777 20.852l-44.657 30.181c-1.083-1.606-2.964-3.659-12.229-12.924l38.109-38.109zM819.588 100.303l40.13 40.135-38.109 38.109-40.13-40.13 38.109-38.114zM798.72 81.521c6.952 4.7 13.317 11.232 20.868 18.782l-38.109 38.114c-9.275-9.275-11.323-11.151-12.935-12.239l30.176-44.657zM715.086 77.35c26.484-14.277 58.708-12.671 83.634 4.171l-30.176 44.657c-8.305-5.616-19.046-6.149-27.874-1.39l-25.584-47.438zM692.456 93.965c8.267-6.764 15.247-12.628 22.63-16.616l25.584 47.438c-1.708 0.922-3.94 2.587-14.083 10.887l-34.132-41.709zM694.574 92.403v0zM692.687 93.782v0zM665.816 114.408c0.415-0.183 2.237-1.099 7.049-4.727 4.689-3.53 10.714-8.456 19.591-15.716l34.126 41.715c-8.521 6.969-15.532 12.719-21.294 17.052-5.627 4.242-11.647 8.381-18.216 11.199l-21.256-49.524zM630.159 99.635c5.621 14.072 21.73 20.749 35.657 14.773l21.256 49.524c-41.768 17.931-90.107-2.091-106.965-44.307l50.052-19.99zM625.772 66.334c1.143 11.415 1.919 19.165 2.738 24.975 0.841 5.972 1.482 7.906 1.649 8.327l-50.052 19.99c-2.652-6.64-3.983-13.824-4.964-20.803-1.008-7.141-1.902-16.168-2.997-27.125l53.625-5.363zM625.384 63.731v0 0zM621.514 38.567c2.409 8.041 3.196 17.133 4.258 27.767l-53.625 5.363c-1.31-13.059-1.708-15.813-2.264-17.672l51.631-15.457zM559.438-17.613c29.529 5.718 53.447 27.362 62.076 56.18l-51.631 15.457c-2.878-9.604-10.849-16.821-20.69-18.723l10.245-52.914zM531.385-19.090c10.682 0 19.807-0.119 28.053 1.477l-10.245 52.914c-1.908-0.372-4.689-0.496-17.807-0.496v-53.895zM474.644-19.090h56.741v53.895h-56.741v-53.895zM446.606-17.613c8.241-1.595 17.358-1.477 28.038-1.477v53.895c-13.113 0-15.891 0.124-17.797 0.49l-10.241-52.908zM384.52 38.572c8.628-28.823 32.548-50.472 62.086-56.185l10.241 52.908c-9.846 1.908-17.82 9.124-20.696 18.734l-51.631-15.457zM380.265 66.323c1.063-10.628 1.849-19.709 4.256-27.75l51.631 15.452c-0.556 1.865-0.954 4.613-2.259 17.661l-53.627-5.363zM375.879 99.619c0.168-0.42 0.806-2.355 1.647-8.327 0.818-5.81 1.598-13.56 2.739-24.969l53.627 5.363c-1.096 10.957-1.993 19.984-2.998 27.12-0.983 6.979-2.313 14.164-4.965 20.803l-50.050-19.99zM340.224 114.386c13.923 5.977 30.035-0.695 35.654-14.767l50.051 19.99c-16.858 42.21-65.193 62.232-106.962 44.307l21.257-49.529zM313.578 93.944c8.875 7.265 14.906 12.191 19.592 15.721 4.817 3.627 6.637 4.543 7.054 4.721l-21.257 49.529c-6.57-2.824-12.591-6.963-18.22-11.199-5.759-4.339-12.776-10.084-21.297-17.058l34.128-41.715zM290.945 77.328c7.388 3.988 14.368 9.857 22.634 16.616l-34.128 41.715c-10.149-8.305-12.377-9.971-14.085-10.892l25.58-47.438zM207.314 81.5c24.929-16.842 57.149-18.448 83.631-4.171l-25.58 47.438c-8.827-4.759-19.568-4.22-27.877 1.39l-30.174-44.657zM186.447 100.287c7.551-7.551 13.912-14.088 20.867-18.788l30.174 44.657c-1.608 1.089-3.659 2.964-12.932 12.239l-38.109-38.109zM185.471 101.317v0zM146.32 140.412l40.126-40.125 38.11 38.109-40.126 40.125-38.11-38.109zM145.51 141.258v0zM127.536 161.28c4.699-6.952 11.232-13.317 18.783-20.868l38.11 38.109c-9.272 9.275-11.15 11.323-12.237 12.935l-44.656-30.176zM123.365 244.914c-14.28-26.484-12.673-58.702 4.171-83.634l44.656 30.176c-5.615 8.311-6.15 19.046-1.39 27.874l-47.437 25.584zM139.98 267.544c-6.763-8.267-12.631-15.247-16.615-22.63l47.437-25.584c0.922 1.708 2.586 3.94 10.89 14.088l-41.712 34.126zM139.278 266.65v0zM160.421 294.19c-0.179-0.415-1.096-2.237-4.724-7.055-3.53-4.683-8.456-10.714-15.717-19.591l41.712-34.126c6.971 8.521 12.719 15.538 17.056 21.294 4.239 5.627 8.378 11.652 11.198 18.216l-49.525 21.261zM145.652 329.841c14.071-5.616 20.745-21.73 14.769-35.651l49.525-21.261c17.93 41.774-2.092 90.107-44.306 106.965l-19.988-50.052zM112.359 334.228c11.409-1.137 19.157-1.919 24.966-2.738 5.971-0.841 7.907-1.477 8.328-1.649l19.988 50.052c-6.639 2.652-13.825 3.983-20.801 4.964-7.138 1.008-16.164 1.902-27.118 3.002l-5.363-53.631zM110.609 334.465v0zM84.608 338.486c8.041-2.409 17.125-3.196 27.75-4.258l5.363 53.631c-13.046 1.304-15.799 1.703-17.658 2.258l-15.454-51.631zM28.42 400.573c5.717-29.54 27.364-53.458 56.188-62.087l15.454 51.631c-9.608 2.873-16.823 10.849-18.729 20.696l-52.913-10.24zM26.947 428.608c0-10.681-0.122-19.795 1.473-28.036l52.913 10.24c-0.369 1.902-0.491 4.683-0.491 17.796h-53.895zM26.947 485.352v-56.744h53.895v56.744h-53.895zM28.421 513.4c-1.596-8.244-1.474-17.365-1.474-28.048h53.895c0 13.117 0.122 15.897 0.492 17.804l-52.912 10.245zM84.601 575.478c-28.818-8.629-50.462-32.545-56.18-62.079l52.912-10.244c1.906 9.844 9.121 17.817 18.726 20.693l-15.459 51.63zM112.364 579.736c-10.631-1.063-19.718-1.849-27.763-4.258l15.459-51.63c1.86 0.557 4.614 0.955 17.667 2.26l-5.363 53.627zM145.672 584.124c-0.421-0.168-2.358-0.807-8.331-1.648-5.811-0.819-13.563-1.599-24.977-2.74l5.363-53.627c10.959 1.096 19.988 1.994 27.13 2.999 6.979 0.983 14.167 2.314 20.809 4.967l-19.994 50.049zM160.439 619.774c5.974-13.922-0.699-30.030-14.767-35.65l19.994-50.049c42.204 16.86 62.222 65.186 44.301 106.951l-49.528-21.252zM139.987 646.433c7.265-8.88 12.195-14.913 15.725-19.602 3.63-4.819 4.548-6.64 4.727-7.058l49.528 21.252c-2.82 6.573-6.962 12.597-11.203 18.228-4.339 5.761-10.090 12.782-17.065 21.307l-41.712-34.128zM123.362 669.082c3.986-7.393 9.857-14.377 16.625-22.648l41.712 34.128c-8.309 10.156-9.976 12.386-10.898 14.095l-47.44-25.575zM127.533 752.697c-16.838-24.926-18.444-57.139-4.17-83.616l47.44 25.575c-4.758 8.826-4.222 19.563 1.39 27.872l-44.66 30.169zM146.327 773.577c-7.556-7.556-14.093-13.92-18.795-20.88l44.66-30.168c1.087 1.609 2.966 3.662 12.244 12.939l-38.11 38.11zM186.448 813.698l-40.121-40.121 38.11-38.11 40.121 40.121-38.11 38.109zM207.316 832.483c-6.955-4.7-13.316-11.233-20.868-18.785l38.11-38.109c9.272 9.272 11.323 11.151 12.932 12.237l-30.174 44.657zM290.947 836.654c-26.481 14.28-58.702 12.673-83.631-4.171l30.174-44.657c8.309 5.615 19.050 6.15 27.877 1.39l25.581 47.437zM313.583 820.036c-8.267 6.764-15.248 12.633-22.637 16.617l-25.58-47.437c1.708-0.921 3.938-2.587 14.089-10.893l34.128 41.712zM313.246 820.308v0zM314.265 819.46v0zM340.222 799.598c-0.416 0.178-2.236 1.096-7.052 4.723-4.685 3.528-10.714 8.455-19.587 15.715l-34.128-41.712c8.52-6.97 15.535-12.716 21.291-17.052 5.626-4.237 11.645-8.376 18.212-11.196l21.264 49.522zM375.882 814.368c-5.619-14.075-21.734-20.749-35.659-14.77l-21.265-49.522c41.775-17.938 90.122 2.088 106.977 44.311l-50.054 19.981zM380.266 847.647c-1.14-11.404-1.92-19.148-2.738-24.955-0.84-5.968-1.478-7.903-1.646-8.324l50.054-19.981c2.649 6.637 3.979 13.819 4.961 20.792 1.004 7.135 1.901 16.156 2.996 27.106l-53.627 5.363zM384.518 875.385c-2.405-8.037-3.191-17.117-4.252-27.738l53.627-5.363c1.304 13.041 1.702 15.792 2.258 17.651l-51.633 15.45zM446.614 931.581c-29.545-5.715-53.47-27.367-62.096-56.196l51.633-15.449c2.875 9.609 10.851 16.826 20.698 18.732l-10.235 52.914zM474.637 933.053c-10.674 0-19.787 0.122-28.024-1.471l10.235-52.914c1.905 0.369 4.682 0.49 17.788 0.49v53.895zM531.392 933.053h-56.754v-53.895h56.754v53.895zM559.427 931.58c-8.241 1.595-17.354 1.473-28.036 1.473v-53.895c13.112 0 15.893-0.122 17.796-0.491l10.24 52.913zM621.514 875.392c-8.629 28.823-32.547 50.471-62.087 56.188l-10.24-52.913c9.847-1.906 17.823-9.121 20.696-18.729l51.631 15.454zM655.721 456.983c0-84.333-68.371-152.704-152.704-152.704v-53.895c114.099 0 206.598 92.5 206.598 206.598h-53.895zM503.017 609.684c84.333 0 152.704-68.367 152.704-152.702h53.895c0 114.1-92.5 206.596-206.598 206.596v-53.895zM350.316 456.983c0 84.334 68.367 152.702 152.702 152.702v53.895c-114.1 0-206.596-92.496-206.596-206.596h53.895zM503.017 304.279c-84.334 0-152.702 68.371-152.702 152.704h-53.895c0-114.099 92.496-206.598 206.596-206.598v53.895z" />
<glyph unicode="&#xe91c;" glyph-name="share-icon" d="M734.116 626.69c-37.842 0-68.516 30.676-68.516 68.518s30.674 68.517 68.516 68.517c37.842 0 68.521-30.676 68.521-68.517s-30.679-68.518-68.521-68.518zM635.392 627.473c21.581-31.396 57.748-51.984 98.724-51.984 66.12 0 119.721 53.6 119.721 119.718s-53.601 119.717-119.721 119.717c-66.115 0-119.716-53.599-119.716-119.717 0-6.526 0.522-12.932 1.526-19.174l-209.352-139.569c-21.532 31.729-57.897 52.575-99.131 52.575-66.118 0-119.718-53.599-119.718-119.717s53.6-119.718 119.718-119.718c41.23 0 77.592 20.844 99.125 52.567l209.358-139.571c-1.004-6.236-1.526-12.636-1.526-19.154 0-66.115 53.601-119.716 119.716-119.716 66.12 0 119.721 53.601 119.721 119.716 0 66.12-53.601 119.721-119.721 119.721-40.986 0-77.158-20.598-98.739-52.004l-209.623 139.751c0.926 6.001 1.406 12.148 1.406 18.408 0 6.255-0.48 12.399-1.404 18.395l209.636 139.756zM307.443 537.84c-37.841 0-68.518-30.676-68.518-68.517 0-37.839 30.676-68.518 68.518-68.518s68.517 30.679 68.517 68.518c0 37.841-30.676 68.517-68.517 68.517zM734.116 311.967c-37.842 0-68.516-30.679-68.516-68.521s30.674-68.516 68.516-68.516c37.842 0 68.521 30.674 68.521 68.516s-30.679 68.521-68.521 68.521z" />
<glyph unicode="&#xe91d;" glyph-name="share" d="M780.522 691.092c-54.055 0-97.879 43.824-97.879 97.882s43.824 97.883 97.879 97.883c54.060 0 97.887-43.824 97.887-97.883s-43.827-97.882-97.887-97.882zM639.469 692.236c30.828-44.865 82.507-74.287 141.053-74.287 94.457 0 171.030 76.57 171.030 171.025s-76.573 171.026-171.030 171.026c-94.452 0-171.022-76.57-171.022-171.026 0-9.313 0.744-18.451 2.177-27.36l-299.055-199.369c-30.762 45.311-82.703 75.079-141.597 75.079-94.455 0-171.026-76.57-171.026-171.025s76.57-171.026 171.026-171.026c58.898 0 110.842 29.773 141.604 75.089l299.053-199.37c-1.436-8.916-2.182-18.066-2.182-27.392 0-94.449 76.57-171.023 171.022-171.023 94.457 0 171.030 76.573 171.030 171.023 0 94.456-76.573 171.027-171.030 171.027-58.536 0-110.206-29.411-141.036-74.263l-299.445 199.63c1.323 8.575 2.010 17.359 2.010 26.304 0 8.949-0.688 17.738-2.012 26.316l299.431 199.621zM171.026 564.182c-54.059 0-97.883-43.824-97.883-97.882s43.824-97.883 97.883-97.883c54.058 0 97.882 43.824 97.882 97.883s-43.824 97.882-97.882 97.882zM780.522 241.486c-54.055 0-97.879-43.824-97.879-97.884s43.824-97.88 97.879-97.88c54.060 0 97.887 43.82 97.887 97.88s-43.827 97.884-97.887 97.884z" />
<glyph unicode="&#xe91e;" glyph-name="template" d="M133.334 928h-1.757c-23.639 0.001-44.007 0.002-60.317-2.191-17.48-2.35-34.236-7.65-47.827-21.241s-18.891-30.347-21.241-47.827c-2.193-16.31-2.192-36.678-2.191-60.317v-643.534c-0.001-23.642-0.002-44.006 2.191-60.32 2.35-17.478 7.65-34.234 21.241-47.827 13.591-13.587 30.347-18.886 47.827-21.242 16.31-2.189 36.676-2.189 60.314-2.189h750.188c23.642 0 44.006 0 60.314 2.189 17.478 2.355 34.24 7.654 47.827 21.242 13.594 13.594 18.893 30.349 21.242 47.827 2.195 16.314 2.195 36.678 2.189 60.32v643.538c0.006 23.637 0.006 44.004-2.189 60.314-2.349 17.48-7.648 34.236-21.242 47.827-13.587 13.591-30.349 18.891-47.827 21.241-16.307 2.193-36.678 2.192-60.314 2.191h-748.426zM61.144 866.856c2.030 2.030 5.655 4.541 17.222 6.096 12.333 1.658 29.073 1.715 54.968 1.715h746.666c25.894 0 42.637-0.057 54.97-1.715 11.565-1.555 15.187-4.066 17.222-6.096 2.029-2.030 4.538-5.655 6.093-17.222 1.658-12.333 1.715-29.073 1.715-54.968v-133.333h-906.667v133.333c0 25.896 0.057 42.635 1.715 54.968 1.555 11.566 4.066 15.191 6.096 17.222zM320 607.979v-533.336h-186.666c-25.896 0-42.635 0.058-54.968 1.715-11.566 1.555-15.191 4.070-17.222 6.099s-4.541 5.651-6.096 17.222c-1.658 12.333-1.715 29.069-1.715 54.963v453.336h266.667zM640 74.643h-266.667v533.336h266.667v-533.336zM880 74.643h-186.669v533.336h266.669v-453.336c0-25.894-0.058-42.63-1.715-54.963-1.555-11.571-4.064-15.194-6.093-17.222-2.035-2.029-5.658-4.544-17.222-6.099-12.333-1.658-29.075-1.715-54.97-1.715z" />
<glyph unicode="&#xe91f;" glyph-name="three-dots" d="M98.462 369.231c-18.3 0-27.45 0-35.059 1.513-31.247 6.216-55.673 30.642-61.889 61.889-1.514 7.609-1.514 16.759-1.514 35.059s0 27.45 1.514 35.059c6.215 31.247 30.642 55.673 61.889 61.889 7.609 1.514 16.759 1.514 35.059 1.514s27.45 0 35.059-1.514c31.247-6.215 55.673-30.642 61.889-61.889 1.513-7.609 1.513-16.759 1.513-35.059s0-27.45-1.513-35.059c-6.216-31.247-30.642-55.673-61.889-61.889-7.609-1.513-16.759-1.513-35.059-1.513zM492.308 369.231c-18.3 0-27.45 0-35.059 1.513-31.247 6.216-55.673 30.642-61.889 61.889-1.513 7.609-1.513 16.759-1.513 35.059s0 27.45 1.513 35.059c6.216 31.247 30.642 55.673 61.889 61.889 7.609 1.514 16.759 1.514 35.059 1.514s27.45 0 35.059-1.514c31.247-6.215 55.673-30.642 61.889-61.889 1.513-7.609 1.513-16.759 1.513-35.059s0-27.45-1.513-35.059c-6.216-31.247-30.642-55.673-61.889-61.889-7.609-1.513-16.759-1.513-35.059-1.513zM851.094 370.744c7.609-1.513 16.762-1.513 35.060-1.513s27.451 0 35.060 1.513c31.248 6.216 55.674 30.642 61.889 61.889 1.512 7.609 1.512 16.759 1.512 35.059s0 27.45-1.512 35.059c-6.215 31.247-30.641 55.673-61.889 61.889-7.609 1.514-16.762 1.514-35.060 1.514s-27.451 0-35.060-1.514c-31.248-6.215-55.674-30.642-61.889-61.889-1.512-7.609-1.512-16.759-1.512-35.059s0-27.45 1.512-35.059c6.215-31.247 30.641-55.673 61.889-61.889z" />
<glyph unicode="&#xe920;" glyph-name="cross" d="M11.535 892.766c-15.381 15.381-15.381 40.318 0 55.698s40.318 15.381 55.698 0l444.766-444.766 444.763 444.766c15.384 15.381 40.322 15.381 55.706 0 15.376-15.381 15.376-40.318 0-55.698l-444.77-444.766 444.77-444.763c15.376-15.384 15.376-40.322 0-55.706-15.384-15.376-40.322-15.376-55.706 0l-444.763 444.77-444.766-444.77c-15.381-15.376-40.318-15.376-55.698 0-15.381 15.384-15.381 40.322 0 55.706l444.766 444.763-444.766 444.766z" />
<glyph unicode="&#xe921;" glyph-name="logout" d="M579.239 66.398c-13.899-13.899-33.011-22.356-66.708-26.888-34.474-4.635-79.963-4.694-144.231-4.694h-44.913c-64.29 0-109.791 0.059-144.27 4.694-33.703 4.533-52.816 12.994-66.715 26.888-13.871 13.873-22.323 32.978-26.851 66.689-4.632 34.482-4.689 79.985-4.689 144.255v359.298c0 64.267 0.057 109.77 4.689 144.252 4.528 33.704 12.987 52.819 26.851 66.689 13.926 13.905 33.049 22.36 66.733 26.891 34.474 4.637 79.963 4.694 144.253 4.694h44.913c64.268 0 109.757-0.057 144.231-4.694 33.697-4.532 52.808-12.991 66.708-26.891 12.191-12.19 20.146-28.346 24.98-54.662 4.98-27.083 6.246-62.462 6.516-111.516 0.086-14.882 12.218-26.881 27.098-26.798s26.877 12.213 26.796 27.096c-0.269 48.631-1.444 88.547-7.405 120.961-6.095 33.182-17.57 60.726-39.871 83.028-25.578 25.578-57.958 36.858-97.638 42.195-38.484 5.176-87.604 5.176-149.399 5.175h-48.946c-61.816 0.001-110.936 0.001-149.42-5.175-39.683-5.338-72.062-16.629-97.657-42.195-25.563-25.563-36.827-57.949-42.157-97.623-5.17-38.488-5.17-87.617-5.169-149.415v-363.327c-0.001-61.796-0.001-110.926 5.169-149.412 5.33-39.672 16.594-72.063 42.157-97.625 25.578-25.578 57.957-36.859 97.641-42.194 38.489-5.174 87.62-5.174 149.437-5.174h48.947c61.795 0 110.914 0 149.398 5.174 39.679 5.336 72.059 16.616 97.638 42.194 22.302 22.307 33.776 49.847 39.871 83.030 5.961 32.412 7.136 72.332 7.405 120.961 0.081 14.88-11.916 27.012-26.796 27.098-14.88 0.081-27.012-11.916-27.098-26.802-0.269-49.050-1.536-84.431-6.516-111.514-4.834-26.317-12.789-42.474-24.98-54.665zM777.426 342.722c-11.296-9.685-12.606-26.694-2.921-37.996s26.699-12.606 37.996-2.921l157.195 134.735c5.972 5.119 9.41 12.594 9.41 20.46s-3.438 15.341-9.41 20.46l-157.195 134.737c-11.296 9.685-28.311 8.377-37.996-2.923s-8.375-28.312 2.921-37.997l101.888-87.329h-511.016c-14.882 0-26.947-12.065-26.947-26.947s12.065-26.947 26.947-26.947h511.016l-101.888-87.331z" />
<glyph unicode="&#xe922;" glyph-name="tool-tip" horiz-adv-x="939" d="M106.667 337.149c-85.333 49.267-85.333 172.436 0 221.703l640 369.504c85.333 49.267 192-12.317 192-110.851v-739.006c0-98.534-106.667-160.119-192-110.857l-640 369.507z" />
<glyph unicode="&#xe923;" glyph-name="user" d="M512 869.647c-232.869 0-421.647-188.778-421.647-421.647 0-109.719 41.908-209.649 110.59-284.66 23.783 42.888 60.177 79.884 105.427 107.833 59.556 36.786 131.832 56.356 205.639 56.356s146.080-19.57 205.641-56.356c45.243-27.949 81.637-64.934 105.418-107.821 68.674 75.005 110.58 174.935 110.58 284.648 0 232.869-188.777 421.647-421.647 421.647zM777.361 120.308c-17.528 38.484-48.748 73.294-91.365 99.617-49.351 30.479-110.519 47.369-173.987 47.369s-124.634-16.89-173.986-47.369c-42.621-26.329-73.844-61.139-91.37-99.629 72.462-58.747 164.795-93.943 265.347-93.943 100.557 0 192.898 35.202 265.361 93.955zM30.118 448c0 266.136 215.746 481.882 481.882 481.882 266.138 0 481.882-215.746 481.882-481.882 0-266.138-215.745-481.882-481.882-481.882-266.136 0-481.882 215.745-481.882 481.882zM512 668.853c-66.534 0-120.471-53.936-120.471-120.471s53.936-120.471 120.471-120.471c66.534 0 120.471 53.936 120.471 120.471s-53.936 120.471-120.471 120.471zM331.294 548.382c0 99.801 80.905 180.706 180.706 180.706 99.804 0 180.706-80.904 180.706-180.706s-80.902-180.706-180.706-180.706c-99.801 0-180.706 80.905-180.706 180.706z" />
<glyph unicode="&#xe924;" glyph-name="reload" horiz-adv-x="979" d="M979.478 470.092c0-96.861-28.721-191.546-82.534-272.086-53.813-80.535-130.302-143.307-219.79-180.375-89.489-37.064-187.957-46.766-282.957-27.866-95 18.895-182.263 65.54-250.754 134.028-68.491 68.492-115.134 155.755-134.031 250.755s-9.198 193.471 27.869 282.959c37.067 89.488 99.838 165.975 180.375 219.788s175.223 82.536 272.084 82.536c92.73 0.31 183.608-25.956 261.877-75.687l62.82 62.82c6.237 6.235 14.185 10.478 22.84 12.189 8.651 1.711 17.617 0.815 25.756-2.576 8.143-3.391 15.093-9.124 19.972-16.471s7.466-15.978 7.431-24.797v-178.087c0-11.808-4.693-23.132-13.040-31.482s-19.674-13.040-31.481-13.040h-178.087c-8.802 0.002-17.408 2.614-24.732 7.506-7.319 4.892-13.023 11.845-16.393 19.979-3.366 8.134-4.247 17.084-2.533 25.72 1.719 8.635 5.957 16.567 12.181 22.794l50.176 50.176c-59.957 34.141-127.791 52.036-196.786 51.912-79.25 0-156.72-23.501-222.614-67.53s-117.252-106.609-147.58-179.826c-30.328-73.218-38.263-153.785-22.802-231.511s53.623-149.126 109.661-205.165c56.039-56.035 127.435-94.199 205.163-109.661 77.726-15.458 158.293-7.524 231.513 22.804 73.216 30.328 135.796 81.684 179.823 147.581 44.032 65.892 67.531 143.364 67.531 222.613 0 11.807 4.693 23.133 13.040 31.481s19.674 13.040 31.481 13.040c11.807 0 23.133-4.693 31.481-13.040s13.040-19.674 13.040-31.481z" />
<glyph unicode="&#xe925;" glyph-name="switch-mode" d="M513.43 504.889l-48.272-48.272-251.692 251.692 251.692 251.691 48.272-48.272-169.286-169.286h372.704c113.111 0 204.8-91.692 204.8-204.8 0-18.851-15.278-34.133-34.133-34.133-18.848 0-34.133 15.282-34.133 34.133 0 75.405-61.126 136.533-136.533 136.533h-372.704l169.286-169.286zM692.702 49.773l48.271-48.271 251.692 251.692-251.692 251.689-48.271-48.272 169.288-169.286h-554.751c-131.959 0-238.933 106.974-238.933 238.933v68.267c0 18.851-15.282 34.133-34.134 34.133s-34.133-15.282-34.133-34.133v-68.267c0-169.662 137.538-307.197 307.2-307.197h554.751l-169.288-169.288z" />
<glyph unicode="&#xe926;" glyph-name="dark" d="M915.388 488.081c0 176.227-124.148 323.458-289.754 359.010 76.808-77.538 124.295-184.264 124.295-302.086 0-153.437-80.526-288.042-201.475-363.896-37.571-23.563-63.161-39.681-78.991-52.503-1.261-1.022-2.404-1.979-3.437-2.872 14.339-2.457 35.623-3.348 67.976-4.576 4.706-0.179 9.436-0.269 14.189-0.269 202.795 0 367.196 164.397 367.196 367.192zM454.188 128.951c-0.024-0.008 0.115-0.113 0.486-0.29-0.277 0.209-0.463 0.298-0.486 0.29zM548.192 917.333c237.070 0 429.251-192.183 429.251-429.252s-192.181-429.252-429.251-429.252c-5.537 0-11.052 0.102-16.543 0.316l-2.67 0.102c-30.845 1.161-57.702 2.185-77.414 6.048-19.723 3.868-46.171 13.34-54.029 42.744-4.284 16.030 0.174 30.482 7.183 41.638 6.48 10.315 15.949 19.268 25.681 27.152 19.124 15.492 47.991 33.596 83.104 55.617l0.003 0.001 1.975 1.238c103.611 64.982 172.388 180.131 172.388 311.321 0 126.125-63.562 237.414-160.544 303.57-14.772 10.077-19.001 27.312-15.172 41.26 3.916 14.267 17.073 27.498 36.040 27.498zM297.594 856.878c-24.84 32.496-73.773 32.496-98.613 0-4.667-6.106-7.583-13.489-9.506-18.61-2.173-5.785-4.687-13.322-7.663-22.252v0l-0.199-0.596c-5.321-15.966-7.202-21.432-9.47-26.196-9.186-19.282-24.724-34.819-44.006-44.006-4.762-2.269-10.23-4.149-26.195-9.471l-0.593-0.197c-8.931-2.977-16.47-5.49-22.255-7.664-5.121-1.924-12.504-4.839-18.61-9.507-32.496-24.839-32.496-73.773 0-98.612 6.106-4.668 13.489-7.584 18.61-9.507 5.784-2.173 13.323-4.687 22.252-7.662v-0.001l0.596-0.199c15.965-5.321 21.432-7.201 26.195-9.47 19.283-9.186 34.82-24.724 44.006-44.006 2.268-4.762 4.149-10.23 9.47-26.195l0.198-0.592c2.976-8.932 5.489-16.471 7.664-22.256 1.923-5.121 4.839-12.504 9.506-18.61 24.84-32.496 73.773-32.496 98.613 0 4.668 6.106 7.583 13.489 9.507 18.61 2.173 5.784 4.686 13.321 7.661 22.249l0.2 0.599c5.322 15.965 7.202 21.432 9.471 26.195 9.186 19.283 24.723 34.82 44.006 44.006 4.763 2.269 10.23 4.149 26.195 9.47l0.593 0.198c8.931 2.977 16.47 5.489 22.256 7.664 5.121 1.923 12.504 4.839 18.609 9.507 32.497 24.839 32.497 73.773 0 98.612-6.106 4.668-13.489 7.583-18.609 9.507-5.784 2.173-13.32 4.685-22.247 7.66l-0.004 0.002-0.597 0.199c-15.965 5.322-21.431 7.202-26.195 9.471-19.283 9.186-34.819 24.724-44.006 44.006-2.269 4.763-4.149 10.23-9.471 26.196l-0.197 0.592-0.001 0.001c-2.976 8.931-5.489 16.47-7.663 22.255-1.924 5.121-4.839 12.504-9.507 18.61zM240.489 795.794c3.228 9.684 5.371 16.094 7.081 20.646l0.718 1.86 0.718-1.86c1.711-4.553 3.854-10.963 7.081-20.646l0.596-1.789c4.5-13.508 7.606-22.829 11.722-31.471 15.31-32.137 41.206-58.033 73.343-73.343 8.641-4.116 17.962-7.222 31.47-11.722h0.001l1.789-0.596c9.684-3.227 16.094-5.37 20.646-7.081l1.86-0.718-1.86-0.718c-4.553-1.71-10.964-3.853-20.646-7.080l-1.789-0.596c-13.508-4.5-22.829-7.606-31.471-11.723-32.137-15.31-58.033-41.205-73.343-73.342-4.116-8.642-7.222-17.963-11.722-31.472l-0.596-1.789c-3.227-9.684-5.37-16.094-7.081-20.646l-0.718-1.86-0.718 1.86c-1.71 4.553-3.853 10.963-7.081 20.646l-0.596 1.789-0.001 0.002c-4.5 13.507-7.606 22.828-11.722 31.47-15.31 32.137-41.205 58.033-73.342 73.342-8.642 4.116-17.963 7.223-31.471 11.723h-0.001l-1.789 0.596c-9.683 3.227-16.093 5.37-20.646 7.080l-1.859 0.718 1.859 0.718c4.553 1.711 10.964 3.854 20.646 7.081l1.79 0.596c13.508 4.5 22.829 7.606 31.471 11.722 32.137 15.311 58.033 41.206 73.342 73.343 4.116 8.642 7.223 17.963 11.723 31.471v0l0.596 1.789z" />
<glyph unicode="&#xe927;" glyph-name="light" d="M512 923.429c-20.198 0-36.571-16.374-36.571-36.571v-97.524c0-20.198 16.374-36.571 36.571-36.571s36.571 16.373 36.571 36.571v97.524c0 20.198-16.374 36.571-36.571 36.571zM511.976 326.083c67.327 0 121.905 54.578 121.905 121.905s-54.578 121.904-121.905 121.904c-67.326 0-121.904-54.578-121.904-121.904s54.578-121.905 121.904-121.905zM511.976 252.94c107.722 0 195.048 87.326 195.048 195.048s-87.326 195.047-195.048 195.047c-107.721 0-195.047-87.325-195.047-195.047s87.326-195.048 195.047-195.048zM548.571 106.679c0 20.195-16.374 36.571-36.571 36.571s-36.571-16.377-36.571-36.571v-97.521c0-20.202 16.374-36.571 36.571-36.571s36.571 16.369 36.571 36.571v97.521zM848.216 784.176c14.285-14.282 14.285-37.437 0-51.719l-68.959-68.96c-14.285-14.282-37.435-14.282-51.719 0-14.282 14.282-14.282 37.437 0 51.719l68.959 68.96c14.285 14.283 37.442 14.283 51.719 0zM296.503 180.743c14.282 14.277 14.282 37.435 0 51.718s-37.438 14.283-51.72 0l-68.96-68.958c-14.282-14.285-14.282-37.442 0-51.719 14.282-14.285 37.438-14.285 51.72 0l68.96 68.959zM987.429 448c0-20.198-16.377-36.571-36.571-36.571h-97.521c-20.202 0-36.571 16.374-36.571 36.571s16.369 36.571 36.571 36.571h97.521c20.195 0 36.571-16.374 36.571-36.571zM170.643 411.429c20.198 0 36.571 16.374 36.571 36.571s-16.374 36.571-36.571 36.571h-97.524c-20.198 0-36.571-16.374-36.571-36.571s16.374-36.571 36.571-36.571h97.524zM848.208 111.821c-14.277-14.285-37.435-14.285-51.719 0l-68.957 68.959c-14.283 14.277-14.283 37.435 0 51.719 14.283 14.282 37.44 14.282 51.717 0l68.959-68.958c14.285-14.285 14.285-37.442 0-51.719zM244.778 663.533c14.282-14.282 37.437-14.282 51.719 0s14.283 37.437 0 51.72l-68.96 68.96c-14.282 14.282-37.437 14.282-51.719 0s-14.282-37.438 0-51.72l68.96-68.96z" />
<glyph unicode="&#xe928;" glyph-name="system" d="M64.126 827.608c19.203 19.204 45.25 29.992 72.408 29.992h750.933c27.156 0 53.207-10.789 72.41-29.992s29.99-45.25 29.99-72.408v-477.867c0-27.158-10.786-53.204-29.99-72.41-19.203-19.203-45.254-29.99-72.41-29.99h-285.601l8.533-68.267h72.268c18.848 0 34.133-15.285 34.133-34.133s-15.285-34.133-34.133-34.133h-341.333c-18.851 0-34.133 15.285-34.133 34.133s15.282 34.133 34.133 34.133h72.268l8.533 68.267h-285.601c-27.159 0-53.204 10.786-72.408 29.99-19.204 19.206-29.992 45.253-29.992 72.41v477.867c0 27.158 10.789 53.204 29.992 72.408zM887.467 243.2c9.052 0 17.736 3.596 24.139 9.998 6.397 6.401 9.994 15.083 9.994 24.136v477.867c0 9.053-3.598 17.735-9.994 24.136-6.403 6.401-15.087 9.998-24.139 9.998h-750.933c-9.053 0-17.735-3.596-24.136-9.998s-9.998-15.083-9.998-24.136v-477.867c0-9.053 3.596-17.734 9.998-24.136s15.083-9.998 24.136-9.998h750.933zM490.932 174.933l-8.533-68.267h59.202l-8.533 68.267h-42.136z" />
<glyph unicode="&#xe929;" glyph-name="theme" d="M490.667-21.331c270.984 0 490.664 219.68 490.664 490.664 0 270.988-219.68 490.667-490.664 490.667-270.988 0-490.667-219.679-490.667-490.667 0-270.984 219.679-490.664 490.667-490.664zM917.331 469.333c0-235.644-191.021-426.664-426.664-426.664-235.642 0-426.667 191.021-426.667 426.664s191.025 426.667 426.667 426.667c235.644 0 426.664-191.025 426.664-426.667zM490.687 789.344c84.869 0 166.26-33.715 226.273-93.726l-452.547-452.546c-60.012 60.006-93.726 141.402-93.726 226.272s33.715 166.262 93.726 226.274c60.012 60.012 141.405 93.726 226.274 93.726z" />
<glyph unicode="&#xe92a;" glyph-name="tick" d="M936.746 818.847c24.874-20.348 28.542-57.004 8.192-81.873l-502.036-613.598c-51.331-62.739-142.992-73.864-207.842-25.227l-176.85 132.638c-25.706 19.279-30.916 55.748-11.636 81.455s55.748 30.915 81.455 11.636l176.849-132.638c14.965-11.224 36.118-8.657 47.964 5.822l502.035 613.598c20.348 24.87 57.003 28.535 81.869 8.187z" />
<glyph unicode="&#xe92b;" glyph-name="camera" horiz-adv-x="1210" d="M1140.364 851.394h-198.535l-20.958 69.888c-3.353 11.191-10.225 21.002-19.597 27.977s-20.743 10.742-32.425 10.741h-510.448c-11.682 0.001-23.054-3.766-32.425-10.741s-16.244-16.786-19.597-27.977l-20.961-69.888h-231.114c-14.402 0-28.214-5.72-38.398-15.905s-15.905-23.996-15.905-38.398v-760.243c0-14.404 5.721-28.209 15.905-38.393s23.996-15.909 38.398-15.909h1086.061c14.401 0 28.216 5.725 38.4 15.909s15.9 23.99 15.9 38.393v760.243c0 14.402-5.716 28.214-15.9 38.398s-23.999 15.905-38.4 15.905zM1086.064 91.152h-977.457v651.636h217.212c11.682-0.001 23.054 3.766 32.425 10.741s16.244 16.786 19.597 27.977l20.961 69.888h429.645l20.961-69.888c3.353-11.19 10.225-21.002 19.597-27.977s20.743-10.742 32.424-10.741h184.634v-651.636zM597.334 742.788c-53.701 0-106.195-15.924-150.846-45.759s-79.451-72.239-100.001-121.852c-20.551-49.613-25.928-104.206-15.451-156.874s36.336-101.048 74.308-139.020c37.973-37.973 86.352-63.832 139.020-74.308s107.262-5.1 156.875 15.45c49.613 20.551 92.018 55.351 121.852 100.002s45.758 97.145 45.758 150.845c-0.086 71.983-28.719 140.995-79.62 191.895s-119.911 79.534-191.895 79.621v0zM597.334 308.364c-32.221 0-63.718 9.555-90.508 27.455s-47.671 43.343-60.001 73.111c-12.331 29.768-15.556 62.524-9.271 94.125s21.802 60.629 44.585 83.412c22.783 22.783 51.811 38.299 83.412 44.584s64.357 3.060 94.124-9.27c29.768-12.33 55.211-33.211 73.112-60.001s27.455-58.287 27.455-90.508c0-43.206-17.164-84.643-47.716-115.194s-71.987-47.715-115.193-47.715z" />
</font>
</defs>
</svg>
