<svg width="16" height="16" viewBox="0 0 16 16" fill="none" xmlns="http://www.w3.org/2000/svg">
<path fill-rule="evenodd" clip-rule="evenodd" d="M4.92257 2.875H11.3274C12.2196 2.87499 12.9387 2.87498 13.5054 2.94964C14.0934 3.02711 14.5899 3.19272 14.9886 3.57855C15.0082 3.59751 15.0275 3.6168 15.0465 3.63639C15.4323 4.03506 15.5979 4.53159 15.6754 5.11958C15.75 5.68625 15.75 6.4054 15.75 7.29756V7.83333H0.500001L0.5 7.29757C0.499987 6.4054 0.499977 5.68625 0.57464 5.11958C0.652113 4.53159 0.817719 4.03506 1.20355 3.63639C1.22251 3.6168 1.2418 3.59751 1.26139 3.57855C1.66006 3.19272 2.15659 3.02711 2.74458 2.94964C3.31125 2.87498 4.0304 2.87499 4.92257 2.875ZM2.87521 3.94107C2.39527 4.00431 2.13973 4.12012 1.95684 4.29713C1.94508 4.30851 1.93351 4.32008 1.92213 4.33184C1.74512 4.51473 1.62931 4.77027 1.56607 5.25021C1.51328 5.65089 1.50266 6.1565 1.50053 6.83333H14.7495C14.7473 6.1565 14.7367 5.65089 14.6839 5.25021C14.6207 4.77027 14.5049 4.51473 14.3279 4.33184C14.3165 4.32008 14.3049 4.30851 14.2932 4.29713C14.1103 4.12012 13.8547 4.00431 13.3748 3.94107C12.8811 3.87602 12.228 3.875 11.2917 3.875H4.95833C4.02197 3.875 3.36893 3.87602 2.87521 3.94107Z" fill="#444444"/>
<path fill-rule="evenodd" clip-rule="evenodd" d="M4.96342 2.875H11.2866C12.1983 2.87499 12.9332 2.87498 13.5112 2.95268C14.1112 3.03336 14.6165 3.20596 15.0178 3.60723C15.419 4.00851 15.5916 4.51376 15.6723 5.11383C15.75 5.69181 15.75 6.4267 15.75 7.33843V11.2866C15.75 12.1983 15.75 12.9332 15.6723 13.5112C15.5916 14.1112 15.419 14.6165 15.0178 15.0178C14.6165 15.419 14.1112 15.5916 13.5112 15.6723C12.9332 15.75 12.1983 15.75 11.2866 15.75H4.96343C4.0517 15.75 3.31681 15.75 2.73883 15.6723C2.13876 15.5916 1.63351 15.419 1.23223 15.0178C0.830956 14.6165 0.65836 14.1112 0.577683 13.5112C0.499976 12.9332 0.499987 12.1983 0.5 11.2866V7.33842C0.499987 6.42669 0.499976 5.69181 0.577683 5.11383C0.65836 4.51376 0.830956 4.00851 1.23223 3.60723C1.63351 3.20596 2.13876 3.03336 2.73883 2.95268C3.31681 2.87498 4.05169 2.87499 4.96342 2.875ZM2.87208 3.94377C2.3829 4.00953 2.12385 4.12983 1.93934 4.31434C1.75483 4.49885 1.63453 4.7579 1.56877 5.24708C1.50106 5.75065 1.5 6.41806 1.5 7.375V11.25C1.5 12.2069 1.50106 12.8744 1.56877 13.3779C1.63453 13.8671 1.75483 14.1262 1.93934 14.3107C2.12385 14.4952 2.3829 14.6155 2.87208 14.6812C3.37565 14.7489 4.04306 14.75 5 14.75H11.25C12.2069 14.75 12.8744 14.7489 13.3779 14.6812C13.8671 14.6155 14.1262 14.4952 14.3107 14.3107C14.4952 14.1262 14.6155 13.8671 14.6812 13.3779C14.7489 12.8744 14.75 12.2069 14.75 11.25V7.375C14.75 6.41806 14.7489 5.75065 14.6812 5.24708C14.6155 4.7579 14.4952 4.49885 14.3107 4.31434C14.1262 4.12983 13.8671 4.00953 13.3779 3.94377C12.8744 3.87606 12.2069 3.875 11.25 3.875H5C4.04306 3.875 3.37565 3.87606 2.87208 3.94377Z" fill="#444444"/>
<path fill-rule="evenodd" clip-rule="evenodd" d="M4.1666 0.399902C4.49797 0.399902 4.7666 0.668532 4.7666 0.999902L4.7666 4.95824C4.7666 5.28961 4.49797 5.55824 4.1666 5.55824C3.83523 5.55824 3.5666 5.28961 3.5666 4.95824L3.5666 0.999902C3.5666 0.668531 3.83523 0.399902 4.1666 0.399902Z" fill="#444444"/>
<path fill-rule="evenodd" clip-rule="evenodd" d="M12.0826 0.399902C12.414 0.399902 12.6826 0.668532 12.6826 0.999902L12.6826 4.95824C12.6826 5.28961 12.414 5.55824 12.0826 5.55824C11.7512 5.55824 11.4826 5.28961 11.4826 4.95824L11.4826 0.999902C11.4826 0.668531 11.7512 0.399902 12.0826 0.399902Z" fill="#444444"/>
</svg>
