<svg width="13" height="11" viewBox="0 0 13 11" fill="none" xmlns="http://www.w3.org/2000/svg">
<path d="M12.25 1.16667H10.1173L9.89217 0.415917C9.85615 0.295702 9.78233 0.190307 9.68165 0.11538C9.58098 0.0404539 9.45883 -8.71008e-06 9.33333 1.40638e-09H3.85C3.72451 -8.71008e-06 3.60235 0.0404539 3.50168 0.11538C3.40101 0.190307 3.32718 0.295702 3.29117 0.415917L3.066 1.16667H0.583333C0.428624 1.16667 0.280251 1.22812 0.170854 1.33752C0.0614581 1.44692 0 1.59529 0 1.75V9.91667C0 10.0714 0.0614581 10.2197 0.170854 10.3291C0.280251 10.4385 0.428624 10.5 0.583333 10.5H12.25C12.4047 10.5 12.5531 10.4385 12.6625 10.3291C12.7719 10.2197 12.8333 10.0714 12.8333 9.91667V1.75C12.8333 1.59529 12.7719 1.44692 12.6625 1.33752C12.5531 1.22812 12.4047 1.16667 12.25 1.16667ZM11.6667 9.33333H1.16667V2.33333H3.5C3.62549 2.33334 3.74765 2.29288 3.84832 2.21795C3.94899 2.14303 4.02282 2.03763 4.05883 1.91742L4.284 1.16667H8.89933L9.1245 1.91742C9.16052 2.03763 9.23434 2.14303 9.33502 2.21795C9.43569 2.29288 9.55784 2.33334 9.68333 2.33333H11.6667V9.33333ZM6.41667 2.33333C5.8398 2.33333 5.2759 2.50439 4.79625 2.82488C4.31661 3.14537 3.94277 3.60089 3.72202 4.13384C3.50126 4.66679 3.4435 5.25324 3.55604 5.81901C3.66858 6.38479 3.94637 6.90449 4.35427 7.31239C4.76218 7.7203 5.28188 7.99808 5.84765 8.11062C6.41343 8.22316 6.99988 8.1654 7.53283 7.94465C8.06578 7.72389 8.5213 7.35006 8.84179 6.87041C9.16227 6.39077 9.33333 5.82686 9.33333 5.25C9.33241 4.47674 9.02482 3.73541 8.47804 3.18863C7.93126 2.64185 7.18993 2.33426 6.41667 2.33333V2.33333ZM6.41667 7C6.07055 7 5.7322 6.89736 5.44442 6.70507C5.15663 6.51278 4.93233 6.23947 4.79988 5.9197C4.66742 5.59993 4.63277 5.24806 4.70029 4.90859C4.76782 4.56912 4.93449 4.2573 5.17923 4.01256C5.42397 3.76782 5.73579 3.60115 6.07526 3.53363C6.41473 3.4661 6.76659 3.50076 7.08636 3.63321C7.40613 3.76566 7.67945 3.98997 7.87174 4.27775C8.06403 4.56554 8.16667 4.90388 8.16667 5.25C8.16667 5.71413 7.98229 6.15925 7.6541 6.48744C7.32592 6.81563 6.8808 7 6.41667 7Z" fill="#F6F8FC"/>
</svg>
