<svg width="17" height="17" viewBox="0 0 17 17" fill="none" xmlns="http://www.w3.org/2000/svg">
<path fill-rule="evenodd" clip-rule="evenodd" d="M8.33333 16.6667C12.9357 16.6667 16.6667 12.9357 16.6667 8.33333C16.6667 3.73096 12.9357 0 8.33333 0C3.73096 0 0 3.73096 0 8.33333C0 12.9357 3.73096 16.6667 8.33333 16.6667ZM15.6667 8.33333C15.6667 12.3834 12.3834 15.6667 8.33333 15.6667C4.28325 15.6667 1 12.3834 1 8.33333C1 4.28325 4.28325 1 8.33333 1C12.3834 1 15.6667 4.28325 15.6667 8.33333ZM8.83337 5.125C8.83337 4.84886 8.60952 4.625 8.33337 4.625C8.05723 4.625 7.83337 4.84886 7.83337 5.125V8.08333C7.83337 8.49755 8.16916 8.83333 8.58337 8.83333H12.4584C12.7345 8.83333 12.9584 8.60948 12.9584 8.33333C12.9584 8.05719 12.7345 7.83333 12.4584 7.83333H8.83337V5.125Z" fill="#040B1B"/>
</svg>
