<svg width="12" height="11" viewBox="0 0 12 11" fill="none" xmlns="http://www.w3.org/2000/svg">
<path fill-rule="evenodd" clip-rule="evenodd" d="M10.7272 5.0303C10.7272 2.96514 9.27234 1.23978 7.33165 0.823148C8.23174 1.7318 8.78823 2.98249 8.78823 4.36322C8.78823 6.16131 7.84457 7.73871 6.4272 8.62763C5.98692 8.90376 5.68703 9.09264 5.50153 9.2429C5.48675 9.25488 5.47336 9.26609 5.46125 9.27656C5.62929 9.30535 5.87871 9.3158 6.25784 9.33018C6.31299 9.33228 6.36842 9.33333 6.42412 9.33333C8.80062 9.33333 10.7272 7.4068 10.7272 5.0303ZM5.32251 9.23886C5.32223 9.23895 5.32386 9.24018 5.32821 9.24226C5.32496 9.23981 5.32279 9.23877 5.32251 9.23886ZM6.42412 0C9.20228 0 11.4544 2.25214 11.4544 5.0303C11.4544 7.80846 9.20228 10.0606 6.42412 10.0606C6.35923 10.0606 6.2946 10.0594 6.23026 10.0569L6.19899 10.0557H6.19897C5.83751 10.0421 5.52278 10.0301 5.29177 9.98483C5.06064 9.9395 4.7507 9.8285 4.65862 9.48392C4.60842 9.29607 4.66066 9.12671 4.74279 8.99598C4.81873 8.8751 4.92969 8.77018 5.04374 8.67779C5.26785 8.49624 5.60613 8.28409 6.01762 8.02603L6.01765 8.02602L6.04079 8.01151C7.25498 7.25 8.06096 5.9006 8.06096 4.36322C8.06096 2.88519 7.31609 1.58102 6.17958 0.805754C6.00647 0.687665 5.95691 0.485693 6.00178 0.322243C6.04767 0.155046 6.20186 0 6.42412 0ZM3.48743 0.708464C3.19634 0.327648 2.6229 0.327648 2.33181 0.708464C2.27712 0.78002 2.24295 0.866539 2.22041 0.926548C2.19494 0.994336 2.16549 1.08267 2.13061 1.18731L2.13061 1.18731L2.12828 1.1943C2.06592 1.3814 2.04388 1.44546 2.0173 1.50128C1.90965 1.72724 1.72757 1.90932 1.5016 2.01697C1.44579 2.04356 1.38172 2.06559 1.19463 2.12796L1.18768 2.13027C1.08302 2.16516 0.994672 2.19461 0.926875 2.22008C0.866865 2.24263 0.780346 2.27679 0.70879 2.33149C0.327974 2.62257 0.327974 3.19602 0.70879 3.4871C0.780346 3.5418 0.866865 3.57597 0.926875 3.59851C0.994662 3.62398 1.083 3.65343 1.18764 3.6883L1.18764 3.68831L1.19463 3.69064C1.38172 3.753 1.44579 3.77503 1.5016 3.80162C1.72757 3.90927 1.90965 4.09135 2.0173 4.31732C2.04388 4.37313 2.06592 4.4372 2.12828 4.62429L2.1306 4.63123C2.16548 4.7359 2.19493 4.82425 2.22041 4.89204C2.24295 4.95205 2.27712 5.03857 2.33181 5.11013C2.6229 5.49094 3.19634 5.49094 3.48743 5.11013C3.54213 5.03857 3.57629 4.95205 3.59884 4.89204C3.62431 4.82426 3.65375 4.73594 3.68862 4.63131L3.68863 4.63128L3.69096 4.62429C3.75333 4.4372 3.77536 4.37313 3.80195 4.31732C3.9096 4.09135 4.09167 3.90927 4.31764 3.80162C4.37346 3.77503 4.43752 3.753 4.62461 3.69064L4.63156 3.68832C4.73622 3.65343 4.82457 3.62399 4.89237 3.59851C4.95238 3.57597 5.0389 3.5418 5.11045 3.4871C5.49127 3.19602 5.49127 2.62257 5.11045 2.33149C5.0389 2.27679 4.95238 2.24263 4.89237 2.22008C4.82459 2.19461 4.73628 2.16518 4.63166 2.13031L4.63161 2.13029L4.62461 2.12796C4.43752 2.06559 4.37346 2.04356 4.31764 2.01697C4.09167 1.90932 3.9096 1.72724 3.80195 1.50128C3.77536 1.44546 3.75333 1.3814 3.69096 1.1943L3.68865 1.18736L3.68864 1.18735C3.65376 1.08269 3.62431 0.994345 3.59884 0.926548C3.57629 0.866539 3.54213 0.78002 3.48743 0.708464ZM2.81823 1.42429C2.85606 1.31081 2.88117 1.23569 2.90121 1.18234L2.90962 1.16054L2.91803 1.18234C2.93808 1.23569 2.96319 1.31081 3.00101 1.42429L3.008 1.44526C3.06074 1.60356 3.09713 1.71279 3.14537 1.81406C3.32478 2.19067 3.62825 2.49413 4.00486 2.67355C4.10612 2.72179 4.21535 2.75818 4.37365 2.81092L4.37366 2.81092L4.39463 2.81791C4.50811 2.85573 4.58323 2.88084 4.63658 2.90089L4.65838 2.9093L4.63658 2.91771C4.58323 2.93775 4.5081 2.96286 4.39463 3.00068L4.37366 3.00767C4.21536 3.06041 4.10613 3.0968 4.00486 3.14505C3.62825 3.32446 3.32478 3.62792 3.14537 4.00453C3.09713 4.1058 3.06074 4.21503 3.008 4.37334L3.00101 4.3943C2.96319 4.50778 2.93808 4.5829 2.91803 4.63625L2.90962 4.65805L2.90121 4.63625C2.88117 4.5829 2.85606 4.50778 2.81823 4.3943L2.81125 4.37334L2.81124 4.37332C2.7585 4.21503 2.72211 4.1058 2.67387 4.00453C2.49446 3.62792 2.191 3.32446 1.81439 3.14505C1.71312 3.09681 1.60389 3.06041 1.44559 3.00767L1.44558 3.00767L1.42461 3.00068C1.31114 2.96286 1.23602 2.93775 1.18266 2.91771L1.16087 2.9093L1.18266 2.90089C1.23602 2.88084 1.31114 2.85573 1.42461 2.81791L1.44558 2.81092L1.44559 2.81092C1.60389 2.75818 1.71312 2.72179 1.81439 2.67355C2.191 2.49413 2.49446 2.19067 2.67387 1.81406C2.72211 1.71279 2.75851 1.60356 2.81125 1.44526L2.81125 1.44526L2.81823 1.42429Z" fill="#040B1B"/>
</svg>
