<svg width="16" height="16" viewBox="0 0 16 16" fill="none" xmlns="http://www.w3.org/2000/svg">
<path fill-rule="evenodd" clip-rule="evenodd" d="M7.50005 0C8.42088 0 9.04057 0.231643 9.44407 0.500642C9.64351 0.633604 9.783 0.771016 9.87635 0.883033C9.9229 0.938889 9.95776 0.988173 9.98282 1.02715C9.99535 1.04664 10.0054 1.06356 10.0133 1.07747C10.0173 1.08442 10.0206 1.09062 10.0235 1.09602L10.0274 1.1035L10.0291 1.10677L10.0299 1.10829L10.0302 1.10902C10.0304 1.10937 10.0306 1.10973 9.58339 1.33333L10.0306 1.10973C10.1541 1.35672 10.054 1.65705 9.80699 1.78055C9.56431 1.90189 9.27011 1.80735 9.14279 1.56971L9.14164 1.5679C9.1374 1.56131 9.12669 1.54549 9.10813 1.52322C9.07127 1.47898 9.00243 1.40806 8.88937 1.33269C8.66787 1.18502 8.24589 1 7.50005 1C6.75424 1 6.33228 1.18506 6.11078 1.33276C5.99773 1.40815 5.92888 1.47909 5.89201 1.52334C5.87345 1.54562 5.86274 1.56145 5.8585 1.56805L5.85735 1.56987C5.73004 1.80752 5.43586 1.90209 5.19316 1.78077C4.94615 1.6573 4.84601 1.35697 4.96948 1.10997L5.40785 1.3291C4.96949 1.10997 4.96966 1.10962 4.96984 1.10926L4.97021 1.10853L4.97097 1.10702L4.97265 1.10374L4.97657 1.09626C4.97944 1.09087 4.98283 1.08467 4.98677 1.07771C4.99465 1.06381 5.00473 1.04688 5.01726 1.02739C5.04231 0.988407 5.07717 0.939115 5.12372 0.883248C5.21706 0.771211 5.35655 0.633768 5.55599 0.500773C5.95949 0.231707 6.5792 0 7.50005 0ZM0.971773 4.34854C0.735011 4.33372 0.433119 4.3335 0 4.3335V3.3335L0.0162511 3.3335L0.0501627 3.3335H14.9498L14.9837 3.3335L15 3.3335C15.2761 3.3335 15.5 3.55735 15.5 3.8335C15.5 4.10964 15.2761 4.3335 15 4.3335C14.5669 4.3335 14.265 4.33372 14.0282 4.34854C13.7955 4.36311 13.6592 4.39039 13.555 4.42964C13.1507 4.58179 12.8316 4.90085 12.6795 5.30512C12.6402 5.40941 12.6129 5.54562 12.5984 5.77839C12.5836 6.01515 12.5833 6.31704 12.5833 6.75016V10.7034C12.5833 11.6151 12.5834 12.35 12.5057 12.928C12.425 13.5281 12.2524 14.0333 11.8511 14.4346C11.4498 14.8359 10.9446 15.0085 10.3445 15.0891C9.76652 15.1669 9.03163 15.1668 8.1199 15.1668H6.8801C5.96836 15.1668 5.23348 15.1669 4.6555 15.0891C4.05543 15.0085 3.55018 14.8359 3.1489 14.4346C2.74762 14.0333 2.57503 13.5281 2.49435 12.928C2.41664 12.35 2.41665 11.6151 2.41667 10.7034L2.41667 6.75016C2.41667 6.31704 2.41644 6.01515 2.40162 5.77839C2.38705 5.54562 2.35978 5.40941 2.32053 5.30512C2.16837 4.90085 1.84931 4.58179 1.44504 4.42964C1.34076 4.39039 1.20454 4.36311 0.971773 4.34854ZM12.0833 4.3335H2.91668C3.05729 4.52096 3.1722 4.72908 3.25643 4.95287C3.34537 5.18917 3.38219 5.43668 3.39967 5.71592C3.41667 5.9876 3.41667 6.32082 3.41667 6.73389V6.73389V6.7339V10.6668C3.41667 11.6238 3.41773 12.2912 3.48543 12.7948C3.5512 13.2839 3.6715 13.543 3.85601 13.7275C4.04051 13.912 4.29956 14.0323 4.78875 14.0981C5.29231 14.1658 5.95972 14.1668 6.91667 14.1668H8.08333C9.04028 14.1668 9.70769 14.1658 10.2113 14.0981C10.7004 14.0323 10.9595 13.912 11.144 13.7275C11.3285 13.543 11.4488 13.2839 11.5146 12.7948C11.5823 12.2912 11.5833 11.6238 11.5833 10.6668V6.7339V6.73386C11.5833 6.32081 11.5833 5.9876 11.6003 5.71592C11.6178 5.43668 11.6546 5.18917 11.7436 4.95287C11.8278 4.72908 11.9427 4.52096 12.0833 4.3335ZM4.9165 10.5C4.9165 10.7761 5.14036 11 5.4165 11C5.69265 11 5.9165 10.7761 5.9165 10.5V8C5.9165 7.72386 5.69265 7.5 5.4165 7.5C5.14036 7.5 4.9165 7.72386 4.9165 8V10.5ZM9.0835 10.5C9.0835 10.7761 9.30735 11 9.5835 11C9.85964 11 10.0835 10.7761 10.0835 10.5V8C10.0835 7.72386 9.85964 7.5 9.5835 7.5C9.30735 7.5 9.0835 7.72386 9.0835 8V10.5Z" fill="#394256"/>
</svg>
