<svg width="8" height="13" viewBox="0 0 8 13" fill="none" xmlns="http://www.w3.org/2000/svg">
<path fill-rule="evenodd" clip-rule="evenodd" d="M0.0192147 0.80491C0 0.901509 0 1.01767 0 1.25C0 1.48233 0 1.59849 0.0192147 1.69509C0.0981214 2.09178 0.408219 2.40188 0.80491 2.48079C0.901509 2.5 1.01767 2.5 1.25 2.5C1.48233 2.5 1.59849 2.5 1.69509 2.48079C2.09178 2.40188 2.40188 2.09178 2.48079 1.69509C2.5 1.59849 2.5 1.48233 2.5 1.25C2.5 1.01767 2.5 0.901509 2.48079 0.80491C2.40188 0.408219 2.09178 0.0981214 1.69509 0.0192147C1.59849 0 1.48233 0 1.25 0C1.01767 0 0.901509 0 0.80491 0.0192147C0.408219 0.0981214 0.0981214 0.408219 0.0192147 0.80491ZM5.01921 0.80491C5 0.901509 5 1.01767 5 1.25C5 1.48233 5 1.59849 5.01921 1.69509C5.09812 2.09178 5.40822 2.40188 5.80491 2.48079C5.90151 2.5 6.01767 2.5 6.25 2.5C6.48233 2.5 6.59849 2.5 6.69509 2.48079C7.09178 2.40188 7.40188 2.09178 7.48079 1.69509C7.5 1.59849 7.5 1.48233 7.5 1.25C7.5 1.01767 7.5 0.901509 7.48079 0.80491C7.40188 0.408219 7.09178 0.0981214 6.69509 0.0192147C6.59849 0 6.48233 0 6.25 0C6.01767 0 5.90151 0 5.80491 0.0192147C5.40822 0.0981214 5.09812 0.408219 5.01921 0.80491ZM0 6.25C0 6.01767 0 5.90151 0.0192147 5.80491C0.0981214 5.40822 0.408219 5.09812 0.80491 5.01921C0.901509 5 1.01767 5 1.25 5C1.48233 5 1.59849 5 1.69509 5.01921C2.09178 5.09812 2.40188 5.40822 2.48079 5.80491C2.5 5.90151 2.5 6.01767 2.5 6.25C2.5 6.48233 2.5 6.59849 2.48079 6.69509C2.40188 7.09178 2.09178 7.40188 1.69509 7.48079C1.59849 7.5 1.48233 7.5 1.25 7.5C1.01767 7.5 0.901509 7.5 0.80491 7.48079C0.408219 7.40188 0.0981214 7.09178 0.0192147 6.69509C0 6.59849 0 6.48233 0 6.25ZM5.01921 5.80491C5 5.90151 5 6.01767 5 6.25C5 6.48233 5 6.59849 5.01921 6.69509C5.09812 7.09178 5.40822 7.40188 5.80491 7.48079C5.90151 7.5 6.01767 7.5 6.25 7.5C6.48233 7.5 6.59849 7.5 6.69509 7.48079C7.09178 7.40188 7.40188 7.09178 7.48079 6.69509C7.5 6.59849 7.5 6.48233 7.5 6.25C7.5 6.01767 7.5 5.90151 7.48079 5.80491C7.40188 5.40822 7.09178 5.09812 6.69509 5.01921C6.59849 5 6.48233 5 6.25 5C6.01767 5 5.90151 5 5.80491 5.01921C5.40822 5.09812 5.09812 5.40822 5.01921 5.80491ZM0 11.25C0 11.0177 0 10.9015 0.0192147 10.8049C0.0981214 10.4082 0.408219 10.0981 0.80491 10.0192C0.901509 10 1.01767 10 1.25 10C1.48233 10 1.59849 10 1.69509 10.0192C2.09178 10.0981 2.40188 10.4082 2.48079 10.8049C2.5 10.9015 2.5 11.0177 2.5 11.25C2.5 11.4823 2.5 11.5985 2.48079 11.6951C2.40188 12.0918 2.09178 12.4019 1.69509 12.4808C1.59849 12.5 1.48233 12.5 1.25 12.5C1.01767 12.5 0.901509 12.5 0.80491 12.4808C0.408219 12.4019 0.0981214 12.0918 0.0192147 11.6951C0 11.5985 0 11.4823 0 11.25ZM5.01921 10.8049C5 10.9015 5 11.0177 5 11.25C5 11.4823 5 11.5985 5.01921 11.6951C5.09812 12.0918 5.40822 12.4019 5.80491 12.4808C5.90151 12.5 6.01767 12.5 6.25 12.5C6.48233 12.5 6.59849 12.5 6.69509 12.4808C7.09178 12.4019 7.40188 12.0918 7.48079 11.6951C7.5 11.5985 7.5 11.4823 7.5 11.25C7.5 11.0177 7.5 10.9015 7.48079 10.8049C7.40188 10.4082 7.09178 10.0981 6.69509 10.0192C6.59849 10 6.48233 10 6.25 10C6.01767 10 5.90151 10 5.80491 10.0192C5.40822 10.0981 5.09812 10.4082 5.01921 10.8049Z" fill="#333333"/>
</svg>
