<svg width="17" height="14" viewBox="0 0 17 14" fill="none" xmlns="http://www.w3.org/2000/svg">
<path fill-rule="evenodd" clip-rule="evenodd" d="M3.47057 0.583496H13.5304H13.5304C14.0947 0.583482 14.56 0.58347 14.9283 0.632982C15.3149 0.684964 15.6564 0.798296 15.9298 1.0717C16.2032 1.34511 16.3165 1.68657 16.3685 2.07321C16.418 2.44148 16.418 2.90678 16.418 3.47106V10.1972C16.418 10.7615 16.418 11.2268 16.3685 11.5951C16.3165 11.9817 16.2032 12.3232 15.9298 12.5966C15.6564 12.87 15.3149 12.9833 14.9283 13.0353C14.56 13.0848 14.0947 13.0848 13.5304 13.0848H3.47057C2.9063 13.0848 2.44099 13.0848 2.07272 13.0353C1.68608 12.9833 1.34462 12.87 1.07121 12.5966C0.797808 12.3232 0.684476 11.9817 0.632494 11.5951C0.582982 11.2268 0.582994 10.7615 0.583008 10.1972V10.1972V3.47106V3.47104C0.582994 2.90678 0.582982 2.44148 0.632494 2.07321C0.684476 1.68657 0.797808 1.34511 1.07121 1.0717C1.34462 0.798296 1.68608 0.684964 2.07272 0.632982C2.44099 0.58347 2.90629 0.583482 3.47056 0.583496H3.47057ZM2.18377 1.45897C1.88955 1.49853 1.75328 1.56827 1.66053 1.66102C1.56778 1.75377 1.49804 1.89004 1.45848 2.18426C1.41731 2.49047 1.41643 2.89937 1.41643 3.50047V10.1678C1.41643 10.7689 1.41731 11.1778 1.45848 11.484C1.49804 11.7783 1.56778 11.9145 1.66053 12.0073C1.75328 12.1 1.88955 12.1698 2.18377 12.2093C2.48998 12.2505 2.89888 12.2514 3.49998 12.2514H13.501C14.1021 12.2514 14.511 12.2505 14.8172 12.2093C15.1114 12.1698 15.2477 12.1 15.3405 12.0073C15.4332 11.9145 15.503 11.7783 15.5425 11.484C15.5837 11.1778 15.5846 10.7689 15.5846 10.1678V3.50047C15.5846 2.89937 15.5837 2.49047 15.5425 2.18426C15.503 1.89004 15.4332 1.75377 15.3405 1.66102C15.2477 1.56827 15.1114 1.49853 14.8172 1.45897C14.511 1.4178 14.1021 1.41692 13.501 1.41692H3.49998C2.89888 1.41692 2.48998 1.4178 2.18377 1.45897ZM3.08398 3.08398H6.83437V3.9174H4.50672L7.12903 6.53972C7.29177 6.70245 7.29177 6.9663 7.12903 7.12903C6.9663 7.29177 6.70245 7.29177 6.53972 7.12903L3.9174 4.50672V6.83437H3.08398V3.08398ZM10.1686 10.5845H13.9189V6.83408H13.0855V9.16174L10.4632 6.53942C10.3005 6.37669 10.0366 6.37669 9.8739 6.53942C9.71116 6.70216 9.71116 6.96601 9.8739 7.12874L12.4962 9.75105H10.1686V10.5845Z" fill="#394256"/>
</svg>
