<svg width="13" height="10" viewBox="0 0 13 10" fill="none" xmlns="http://www.w3.org/2000/svg">
<path fill-rule="evenodd" clip-rule="evenodd" d="M0 0.5C0 0.223858 0.223858 0 0.5 0H12.1667C12.4428 0 12.6667 0.223858 12.6667 0.5C12.6667 0.776142 12.4428 1 12.1667 1H0.5C0.223858 1 0 0.776142 0 0.5ZM0 4.6665C0 4.39036 0.223858 4.1665 0.5 4.1665H8.83333C9.10948 4.1665 9.33333 4.39036 9.33333 4.6665C9.33333 4.94265 9.10948 5.1665 8.83333 5.1665H0.5C0.223858 5.1665 0 4.94265 0 4.6665ZM0.5 8.33301C0.223858 8.33301 0 8.55687 0 8.83301C0 9.10915 0.223858 9.33301 0.5 9.33301H5.5C5.77614 9.33301 6 9.10915 6 8.83301C6 8.55687 5.77614 8.33301 5.5 8.33301H0.5Z" fill="#333333"/>
</svg>
