<svg width="17" height="22" viewBox="0 0 17 22" fill="none" xmlns="http://www.w3.org/2000/svg">
<path d="M2.87075 7.58325C3.61352 7.97803 4.43843 8.19335 5.27939 8.21197C6.12035 8.2306 6.95398 8.05201 7.7135 7.6905C7.62958 8.15706 7.58603 8.62997 7.58333 9.104V10.9373H3C2.75688 10.9373 2.52373 11.0339 2.35182 11.2058C2.17991 11.3777 2.08333 11.6109 2.08333 11.854V14.604C2.08333 14.8471 2.17991 15.0803 2.35182 15.2522C2.52373 15.4241 2.75688 15.5207 3 15.5207H3.91667V20.104C3.91667 20.3471 4.01324 20.5803 4.18515 20.7522C4.35706 20.9241 4.59022 21.0207 4.83333 21.0207H12.1667C12.4098 21.0207 12.6429 20.9241 12.8148 20.7522C12.9868 20.5803 13.0833 20.3471 13.0833 20.104V15.5207H14C14.2431 15.5207 14.4763 15.4241 14.6482 15.2522C14.8201 15.0803 14.9167 14.8471 14.9167 14.604V11.854C14.9167 11.6109 14.8201 11.3777 14.6482 11.2058C14.4763 11.0339 14.2431 10.9373 14 10.9373H9.41667V9.104C9.41861 7.40279 10.0953 5.77182 11.2982 4.56888C12.5011 3.36594 14.1321 2.68928 15.8333 2.68734C16.0764 2.68734 16.3096 2.59076 16.4815 2.41885C16.6534 2.24694 16.75 2.01379 16.75 1.77067C16.75 1.52756 16.6534 1.2944 16.4815 1.12249C16.3096 0.950581 16.0764 0.854004 15.8333 0.854004C14.429 0.855711 13.0483 1.21617 11.8223 1.90119C10.5964 2.5862 9.56572 3.57307 8.82817 4.76817C7.96375 3.1915 5.89208 0.854004 1.16667 0.854004C0.923552 0.854004 0.690394 0.950581 0.518485 1.12249C0.346577 1.2944 0.25 1.52756 0.25 1.77067C0.25 1.94209 0.28025 5.98184 2.87075 7.58325ZM11.25 19.1873H5.75V15.5207H11.25V19.1873ZM13.0833 13.6873H3.91667V12.7707H13.0833V13.6873ZM7.35967 5.86909C5.86092 6.48967 4.67933 6.54375 3.83875 6.02675C2.78092 5.375 2.32992 3.84234 2.16492 2.72675C5.56667 3.03109 6.88483 4.85617 7.35967 5.86909Z" fill="white"/>
</svg>
