<svg width="14" height="14" viewBox="0 0 14 14" fill="none" xmlns="http://www.w3.org/2000/svg">
<path fill-rule="evenodd" clip-rule="evenodd" d="M7 0.5C7.27614 0.5 7.5 0.723858 7.5 1V2.33333C7.5 2.60948 7.27614 2.83333 7 2.83333C6.72386 2.83333 6.5 2.60948 6.5 2.33333V1C6.5 0.723858 6.72386 0.5 7 0.5ZM6.99967 8.66683C7.92015 8.66683 8.66634 7.92064 8.66634 7.00016C8.66634 6.07969 7.92015 5.3335 6.99967 5.3335C6.0792 5.3335 5.33301 6.07969 5.33301 7.00016C5.33301 7.92064 6.0792 8.66683 6.99967 8.66683ZM6.99967 9.66683C8.47243 9.66683 9.66634 8.47292 9.66634 7.00016C9.66634 5.5274 8.47243 4.3335 6.99967 4.3335C5.52692 4.3335 4.33301 5.5274 4.33301 7.00016C4.33301 8.47292 5.52692 9.66683 6.99967 9.66683ZM7.5 11.6665C7.5 11.3904 7.27614 11.1665 7 11.1665C6.72386 11.1665 6.5 11.3904 6.5 11.6665V12.9998C6.5 13.276 6.72386 13.4998 7 13.4998C7.27614 13.4998 7.5 13.276 7.5 12.9998V11.6665ZM11.5967 2.40385C11.792 2.59911 11.792 2.91569 11.5967 3.11095L10.6539 4.05376C10.4586 4.24902 10.1421 4.24902 9.9468 4.05376C9.75154 3.8585 9.75154 3.54192 9.9468 3.34666L10.8896 2.40385C11.0849 2.20858 11.4015 2.20858 11.5967 2.40385ZM4.05375 10.6539C4.24901 10.4587 4.24901 10.1421 4.05375 9.94682C3.85849 9.75155 3.5419 9.75155 3.34664 9.94682L2.40383 10.8896C2.20857 11.0849 2.20857 11.4015 2.40383 11.5967C2.59909 11.792 2.91568 11.792 3.11094 11.5967L4.05375 10.6539ZM13.5 7C13.5 7.27614 13.2761 7.5 13 7.5H11.6667C11.3905 7.5 11.1667 7.27614 11.1667 7C11.1667 6.72386 11.3905 6.5 11.6667 6.5H13C13.2761 6.5 13.5 6.72386 13.5 7ZM2.33301 7.5C2.60915 7.5 2.83301 7.27614 2.83301 7C2.83301 6.72386 2.60915 6.5 2.33301 6.5H0.999675C0.723532 6.5 0.499675 6.72386 0.499675 7C0.499675 7.27614 0.723532 7.5 0.999675 7.5H2.33301ZM11.5966 11.5962C11.4014 11.7915 11.0848 11.7915 10.8895 11.5962L9.94673 10.6534C9.75146 10.4582 9.75146 10.1416 9.94673 9.94631C10.142 9.75105 10.4586 9.75105 10.6538 9.94631L11.5966 10.8891C11.7919 11.0844 11.7919 11.401 11.5966 11.5962ZM3.34657 4.05326C3.54183 4.24852 3.85841 4.24852 4.05367 4.05326C4.24894 3.858 4.24894 3.54142 4.05367 3.34615L3.11086 2.40334C2.9156 2.20808 2.59902 2.20808 2.40376 2.40334C2.2085 2.59861 2.2085 2.91519 2.40376 3.11045L3.34657 4.05326Z" fill="#040B1B"/>
</svg>
