<svg width="17" height="17" viewBox="0 0 17 17" fill="none" xmlns="http://www.w3.org/2000/svg">
<path fill-rule="evenodd" clip-rule="evenodd" d="M12.0366 0.5H4.96342H4.96341C4.05169 0.499987 3.31681 0.499976 2.73883 0.577683C2.13876 0.65836 1.63351 0.830956 1.23223 1.23223C0.830956 1.63351 0.65836 2.13876 0.577683 2.73883C0.499976 3.31681 0.499987 4.05169 0.5 4.96341V4.96342V12.0366V12.0366C0.499987 12.9483 0.499976 13.6832 0.577683 14.2612C0.65836 14.8612 0.830956 15.3665 1.23223 15.7678C1.63351 16.169 2.13876 16.3416 2.73883 16.4223C3.31681 16.5 4.0517 16.5 4.96343 16.5H12.0366C12.9483 16.5 13.6832 16.5 14.2612 16.4223C14.8612 16.3416 15.3665 16.169 15.7678 15.7678C16.169 15.3665 16.3416 14.8612 16.4223 14.2612C16.5 13.6832 16.5 12.9483 16.5 12.0366V4.96343C16.5 4.0517 16.5 3.31681 16.4223 2.73883C16.3416 2.13876 16.169 1.63351 15.7678 1.23223C15.3665 0.830956 14.8612 0.65836 14.2612 0.577683C13.6832 0.499976 12.9483 0.499987 12.0366 0.5H12.0366ZM1.93934 1.93934C2.12385 1.75483 2.3829 1.63453 2.87208 1.56877C3.37565 1.50106 4.04306 1.5 5 1.5H12C12.9569 1.5 13.6244 1.50106 14.1279 1.56877C14.6171 1.63453 14.8762 1.75483 15.0607 1.93934C15.2452 2.12385 15.3655 2.3829 15.4312 2.87208C15.4989 3.37565 15.5 4.04306 15.5 5V12C15.5 12.9569 15.4989 13.6244 15.4312 14.1279C15.3655 14.6171 15.2452 14.8762 15.0607 15.0607C14.8762 15.2452 14.6171 15.3655 14.1279 15.4312C13.6244 15.4989 12.9569 15.5 12 15.5H5C4.04306 15.5 3.37565 15.4989 2.87208 15.4312C2.3829 15.3655 2.12385 15.2452 1.93934 15.0607C1.75483 14.8762 1.63453 14.6171 1.56877 14.1279C1.50106 13.6244 1.5 12.9569 1.5 12V5C1.5 4.04306 1.50106 3.37565 1.56877 2.87208C1.63453 2.3829 1.75483 2.12385 1.93934 1.93934ZM13.0825 6.2774C13.2357 6.04764 13.1736 5.7372 12.9438 5.58403C12.714 5.43085 12.4036 5.49294 12.2504 5.7227L9.87294 9.28893C9.65998 9.60836 9.18139 9.57857 9.0097 9.23519L8.88429 8.98437C8.36922 7.95423 6.93344 7.86484 6.29458 8.82314L3.91709 12.3894C3.76392 12.6191 3.826 12.9296 4.05577 13.0827C4.28553 13.2359 4.59597 13.1738 4.74914 12.9441L7.12663 9.37784C7.33958 9.05841 7.81818 9.0882 7.98987 9.43158L8.11527 9.6824C8.63035 10.7125 10.0661 10.8019 10.705 9.84363L13.0825 6.2774Z" fill="#394256"/>
</svg>
