<svg width="15" height="12" viewBox="0 0 15 12" fill="none" xmlns="http://www.w3.org/2000/svg">
<path fill-rule="evenodd" clip-rule="evenodd" d="M13.5046 2.41731C12.7222 1.06214 10.9894 0.597831 9.63422 1.38024L7.46916 2.63023C7.23002 2.76831 6.92422 2.68637 6.78615 2.44722C6.64808 2.20808 6.73002 1.90228 6.96916 1.76421L9.13422 0.51421C10.9677 -0.544336 13.3121 0.0838514 14.3707 1.91731C15.4292 3.75076 14.801 6.09519 12.9676 7.15374L10.8025 8.40374C10.5633 8.54181 10.2576 8.45987 10.1195 8.22072C9.98141 7.98158 10.0633 7.67578 10.3025 7.53771L12.4676 6.28771C13.8227 5.50531 14.287 3.77247 13.5046 2.41731ZM2.41731 5.5469C1.06214 6.32931 0.597831 8.06214 1.38023 9.41731C2.16264 10.7725 3.89548 11.2368 5.25064 10.4544L7.4157 9.20438C7.65485 9.06631 7.96065 9.14824 8.09872 9.38739C8.23679 9.62654 8.15485 9.93233 7.9157 10.0704L5.75064 11.3204C3.91719 12.3789 1.57276 11.7508 0.51421 9.91731C-0.544337 8.08385 0.0838517 5.73942 1.91731 4.68088L4.08237 3.43088C4.32152 3.2928 4.62731 3.37474 4.76538 3.61389C4.90345 3.85304 4.82152 4.15883 4.58237 4.2969L2.41731 5.5469ZM4.12293 7.83402C3.98486 7.59488 4.0668 7.28908 4.30595 7.15101L10.0794 3.81768C10.3186 3.6796 10.6244 3.76154 10.7625 4.00069C10.9005 4.23983 10.8186 4.54563 10.5794 4.6837L4.80595 8.01703C4.5668 8.15511 4.261 8.07317 4.12293 7.83402Z" fill="#3478F6"/>
</svg>
