<svg width="19" height="19" viewBox="0 0 19 19" fill="none" xmlns="http://www.w3.org/2000/svg">
<path fill-rule="evenodd" clip-rule="evenodd" d="M10.7476 16.5805C10.4897 16.8384 10.1351 16.9953 9.50986 17.0794C8.87021 17.1654 8.02617 17.1665 6.8337 17.1665H6.00036C4.80747 17.1665 3.96323 17.1654 3.32347 17.0794C2.69813 16.9953 2.34348 16.8383 2.08559 16.5805C1.82822 16.3231 1.6714 15.9686 1.58737 15.3431C1.50143 14.7033 1.50036 13.859 1.50036 12.6665L1.50036 5.99984C1.50036 4.80738 1.50142 3.96309 1.58737 3.32328C1.67138 2.69792 1.82834 2.34324 2.08558 2.08589C2.34398 1.82789 2.6988 1.671 3.32379 1.58694C3.96344 1.5009 4.80747 1.49984 6.00036 1.49984L6.8337 1.49984C8.02617 1.49984 8.8702 1.5009 9.50986 1.58694C10.1351 1.67103 10.4897 1.82799 10.7476 2.08589C10.9738 2.31208 11.1214 2.61185 11.2111 3.10012C11.3035 3.60264 11.327 4.25909 11.332 5.16926C11.3336 5.4454 11.5587 5.66802 11.8348 5.66649C12.1109 5.66497 12.3335 5.43988 12.332 5.16374C12.327 4.26141 12.3052 3.52078 12.1946 2.91934C12.0815 2.30366 11.8686 1.79259 11.4548 1.37878C10.9802 0.904186 10.3794 0.694889 9.64316 0.595862C8.9291 0.499816 8.0177 0.499825 6.87111 0.499836L6.8711 0.499836L5.96295 0.499837L5.96293 0.499837C4.81595 0.499825 3.90454 0.499816 3.19048 0.595862C2.45417 0.694901 1.85339 0.904407 1.37848 1.37878C0.904172 1.85309 0.695162 2.454 0.596274 3.19014C0.500344 3.90427 0.500353 4.81585 0.500364 5.96249L0.500365 12.7039C0.500353 13.8505 0.500345 14.7621 0.596275 15.4762C0.695164 16.2123 0.904174 16.8133 1.37848 17.2876C1.85308 17.7622 2.45385 17.9715 3.19018 18.0705C3.90434 18.1665 4.81594 18.1665 5.96293 18.1665H5.96295H6.87111H6.87113C8.01771 18.1665 8.92911 18.1665 9.64316 18.0705C10.3794 17.9715 10.9802 17.7622 11.4548 17.2876C11.8686 16.8737 12.0815 16.3627 12.1946 15.747C12.3052 15.1456 12.327 14.4049 12.332 13.5026C12.3335 13.2265 12.1109 13.0014 11.8348 12.9998C11.5587 12.9983 11.3336 13.2209 11.332 13.4971C11.327 14.4072 11.3035 15.0637 11.2111 15.5662C11.1214 16.0545 10.9738 16.3543 10.7476 16.5805ZM14.4249 11.4534C14.2153 11.6331 14.191 11.9487 14.3707 12.1584C14.5504 12.3681 14.8661 12.3923 15.0757 12.2126L17.9924 9.71263C18.1032 9.61764 18.167 9.47896 18.167 9.333C18.167 9.18704 18.1032 9.04836 17.9924 8.95337L15.0757 6.45337C14.8661 6.27366 14.5504 6.29794 14.3707 6.5076C14.191 6.71727 14.2153 7.03292 14.4249 7.21263L16.3154 8.833L6.83366 8.833C6.55752 8.833 6.33366 9.05686 6.33366 9.333C6.33366 9.60914 6.55752 9.833 6.83366 9.833L16.3154 9.833L14.4249 11.4534Z" fill="black"/>
</svg>
