<svg width="14" height="16" viewBox="0 0 14 16" fill="none" xmlns="http://www.w3.org/2000/svg">
<path fill-rule="evenodd" clip-rule="evenodd" d="M6.63041 0.5H9.53691H9.53692C10.4486 0.499987 11.1835 0.499976 11.7615 0.577683C12.3616 0.65836 12.8668 0.830956 13.2681 1.23223C13.6694 1.63351 13.842 2.13876 13.9226 2.73883C14.0004 3.31681 14.0003 4.0517 14.0003 4.96343V11.2032C14.0003 12.115 14.0004 12.8499 13.9226 13.4278C13.842 14.0279 13.6694 14.5332 13.2681 14.9344C12.8668 15.3357 12.3616 15.5083 11.7615 15.589C11.1835 15.6667 10.4486 15.6667 9.5369 15.6667H6.63042C5.71869 15.6667 4.98381 15.6667 4.40582 15.589C3.80575 15.5083 3.3005 15.3357 2.89923 14.9344C2.49795 14.5332 2.32535 14.0279 2.24467 13.4278C2.20209 13.1111 2.18285 12.7473 2.17415 12.333H1C0.723858 12.333 0.5 12.1091 0.5 11.833C0.5 11.5569 0.723858 11.333 1 11.333H2.167C2.16699 11.2902 2.16699 11.2469 2.16699 11.2033V9H1C0.723858 9 0.5 8.77614 0.5 8.5C0.5 8.22386 0.723858 8 1 8H2.16699V5.6665H1C0.723858 5.6665 0.5 5.44265 0.5 5.1665C0.5 4.89036 0.723858 4.6665 1 4.6665H2.16709C2.16793 3.89058 2.17559 3.2527 2.24467 2.73883C2.32535 2.13876 2.49795 1.63351 2.89923 1.23223C3.3005 0.830956 3.80575 0.65836 4.40583 0.577683C4.9838 0.499976 5.71868 0.499987 6.6304 0.5H6.63041ZM3.17442 12.333H4.33333C4.60948 12.333 4.83333 12.1091 4.83333 11.833C4.83333 11.5569 4.60948 11.333 4.33333 11.333H3.16702C3.167 11.2786 3.16699 11.2231 3.16699 11.1667V9H4.33333C4.60948 9 4.83333 8.77614 4.83333 8.5C4.83333 8.22386 4.60948 8 4.33333 8H3.16699V5.6665H4.33333C4.60948 5.6665 4.83333 5.44265 4.83333 5.1665C4.83333 4.89036 4.60948 4.6665 4.33333 4.6665H3.16715C3.16822 3.88461 3.17621 3.31498 3.23576 2.87208C3.30153 2.3829 3.42182 2.12385 3.60633 1.93934C3.79084 1.75483 4.04989 1.63453 4.53907 1.56877C5.04264 1.50106 5.71005 1.5 6.66699 1.5H9.50033C10.4573 1.5 11.1247 1.50106 11.6282 1.56877C12.1174 1.63453 12.3765 1.75483 12.561 1.93934C12.7455 2.12385 12.8658 2.3829 12.9316 2.87208C12.9993 3.37565 13.0003 4.04306 13.0003 5V11.1667C13.0003 12.1236 12.9993 12.791 12.9316 13.2946C12.8658 13.7838 12.7455 14.0428 12.561 14.2273C12.3765 14.4118 12.1174 14.5321 11.6282 14.5979C11.1247 14.6656 10.4573 14.6667 9.50033 14.6667H6.66699C5.71005 14.6667 5.04264 14.6656 4.53907 14.5979C4.04989 14.5321 3.79084 14.4118 3.60633 14.2273C3.42182 14.0428 3.30153 13.7838 3.23576 13.2946C3.19974 13.0267 3.18259 12.7125 3.17442 12.333ZM10.167 6.5C9.89085 6.5 9.66699 6.27614 9.66699 6V4.33333C9.66699 4.05719 9.89085 3.83333 10.167 3.83333C10.4431 3.83333 10.667 4.05719 10.667 4.33333V6C10.667 6.27614 10.4431 6.5 10.167 6.5Z" fill="#394256"/>
</svg>
