<svg width="22" height="23" viewBox="0 0 22 23" fill="none" xmlns="http://www.w3.org/2000/svg">
<path d="M22 11.0038C22 13.1794 21.3549 15.3061 20.1462 17.1151C18.9375 18.924 17.2195 20.3339 15.2095 21.1665C13.1995 21.999 10.9878 22.2169 8.85401 21.7924C6.72022 21.368 4.76021 20.3203 3.22183 18.782C1.68345 17.2436 0.635804 15.2836 0.211367 13.1498C-0.213071 11.016 0.00476617 8.80426 0.83733 6.79428C1.66989 4.78429 3.07979 3.06632 4.88873 1.85763C6.69767 0.648933 8.82441 0.00379409 11 0.00379409C13.0828 -0.00316013 15.124 0.586784 16.882 1.70379L18.293 0.292794C18.4331 0.152741 18.6116 0.0574512 18.806 0.0190101C19.0003 -0.019431 19.2017 0.000709005 19.3845 0.0768756C19.5674 0.153042 19.7235 0.281803 19.8331 0.446828C19.9427 0.611852 20.0008 0.805703 20 1.00379V5.00379C20 5.26901 19.8946 5.52336 19.7071 5.7109C19.5196 5.89844 19.2652 6.00379 19 6.00379H15C14.8023 6.00375 14.609 5.94508 14.4445 5.8352C14.2801 5.72531 14.152 5.56915 14.0763 5.38645C14.0007 5.20375 13.9809 5.00272 14.0194 4.80876C14.058 4.61481 14.1532 4.43665 14.293 4.29679L15.42 3.16979C14.0733 2.40294 12.5497 2.00101 11 2.00379C9.21997 2.00379 7.47992 2.53164 5.99987 3.52057C4.51983 4.5095 3.36628 5.91511 2.68509 7.55964C2.0039 9.20418 1.82567 11.0138 2.17294 12.7596C2.5202 14.5054 3.37737 16.1091 4.63604 17.3678C5.89472 18.6264 7.49836 19.4836 9.24419 19.8309C10.99 20.1781 12.7996 19.9999 14.4442 19.3187C16.0887 18.6375 17.4943 17.484 18.4832 16.0039C19.4722 14.5239 20 12.7838 20 11.0038C20 10.7386 20.1054 10.4842 20.2929 10.2967C20.4804 10.1092 20.7348 10.0038 21 10.0038C21.2652 10.0038 21.5196 10.1092 21.7071 10.2967C21.8946 10.4842 22 10.7386 22 11.0038Z" fill="black"/>
</svg>
