<svg width="19" height="19" viewBox="0 0 19 19" fill="none" xmlns="http://www.w3.org/2000/svg">
<path d="M11.1135 2.13453L10.6159 2.18428L10.6159 2.18428L11.1135 2.13453ZM11.053 1.71325L10.574 1.85662L10.574 1.85662L11.053 1.71325ZM11.228 2.88796L10.7637 3.07339L10.7637 3.0734L11.228 2.88796ZM12.5511 3.43602L12.3539 2.97656L12.3539 2.97656L12.5511 3.43602ZM13.1649 2.98428L13.4815 3.37126L13.4946 3.36058L13.5069 3.34905L13.1649 2.98428ZM13.1649 2.98428L12.8836 2.57092L12.8514 2.59285L12.8229 2.61951L13.1649 2.98428ZM13.1649 2.98427L13.4462 3.39763L13.4645 3.38522L13.4815 3.37125L13.1649 2.98427ZM13.5055 2.72913L13.2682 2.28904L13.2682 2.28904L13.5055 2.72913ZM14.54 2.78072L14.82 2.36643L14.82 2.36643L14.54 2.78072ZM14.8536 3.0685L14.5 3.42205L14.5 3.42205L14.8536 3.0685ZM15.5981 3.81306L15.9517 3.4595L15.9517 3.4595L15.5981 3.81306ZM15.8859 4.12661L15.4716 4.40654L15.4716 4.40654L15.8859 4.12661ZM15.9375 5.16112L15.4974 4.9238L15.4974 4.9238L15.9375 5.16112ZM15.6824 5.50175L16.0693 5.81837L16.0693 5.81837L15.6824 5.50175ZM15.2306 6.11553L14.7711 5.91831L14.7711 5.91832L15.2306 6.11553ZM15.7786 7.43865L15.9641 6.97431L15.9641 6.97431L15.7786 7.43865ZM16.5321 7.55321L16.4824 8.05073L16.4824 8.05073L16.5321 7.55321ZM16.9534 7.61365L17.0968 7.13465L17.0968 7.13465L16.9534 7.61365ZM17.6484 8.38164L18.1393 8.28663L18.1393 8.28663L17.6484 8.38164ZM17.6485 10.2849L17.1576 10.19L17.1576 10.19L17.6485 10.2849ZM16.9534 11.053L16.81 10.574L16.81 10.574L16.9534 11.053ZM16.5322 11.1134L16.4824 10.6159L16.4824 10.6159L16.5322 11.1134ZM15.7791 11.2279L15.5938 10.7636L15.5938 10.7636L15.7791 11.2279ZM15.231 12.5513L15.6904 12.354L15.6904 12.354L15.231 12.5513ZM15.6825 13.1646L15.2955 13.4813L15.3113 13.5006L15.3289 13.5182L15.6825 13.1646ZM15.6825 13.1647L16.0695 12.8481L16.0537 12.8287L16.036 12.8111L15.6825 13.1647ZM15.9375 13.5051L15.4974 13.7424L15.4974 13.7424L15.9375 13.5051ZM15.8859 14.5398L15.4716 14.2598L15.4716 14.2598L15.8859 14.5398ZM14.5401 15.8856L14.82 16.2999L14.82 16.2999L14.5401 15.8856ZM13.5055 15.9372L13.2682 16.3773L13.2682 16.3773L13.5055 15.9372ZM13.1649 15.682L13.4816 15.2951L13.4626 15.2796L13.4423 15.266L13.1649 15.682ZM13.1649 15.682L12.8526 16.0725L12.8695 16.086L12.8876 16.098L13.1649 15.682ZM13.1649 15.682L12.8483 16.069L12.8526 16.0724L13.1649 15.682ZM12.5512 15.2303L12.354 15.6897L12.354 15.6897L12.5512 15.2303ZM11.228 15.7783L11.6924 15.9638L11.6924 15.9638L11.228 15.7783ZM11.1135 16.5319L11.6038 16.63L11.6086 16.606L11.611 16.5817L11.1135 16.5319ZM11.1135 16.5319L10.6232 16.4339L10.6184 16.4579L10.616 16.4822L11.1135 16.5319ZM11.053 16.9535L10.574 16.8101L10.574 16.8101L11.053 16.9535ZM10.2851 17.6484L10.1901 17.1575L10.1901 17.1575L10.2851 17.6484ZM8.38164 17.6484L8.28663 18.1393L8.28663 18.1393L8.38164 17.6484ZM7.61365 16.9534L7.13465 17.0968L7.13465 17.0968L7.61365 16.9534ZM7.55321 16.5321L7.05569 16.5819L7.05569 16.5819L7.55321 16.5321ZM7.43864 15.7786L6.9743 15.9641L6.97431 15.9641L7.43864 15.7786ZM6.11554 15.2306L5.91833 14.7711L5.91833 14.7711L6.11554 15.2306ZM5.50173 15.6824L5.18511 15.2954L5.18511 15.2954L5.50173 15.6824ZM5.16107 15.9376L4.92376 15.4975L4.92376 15.4975L5.16107 15.9376ZM4.12658 15.886L4.40651 15.4717L4.40651 15.4717L4.12658 15.886ZM3.81302 15.5982L3.44137 15.9327L3.45017 15.9424L3.45947 15.9517L3.81302 15.5982ZM3.81301 15.5982L4.18465 15.2637L4.17586 15.2539L4.16656 15.2446L3.81301 15.5982ZM3.06847 14.8536L2.6999 15.1915L2.70724 15.1995L2.71492 15.2072L3.06847 14.8536ZM3.06847 14.8536L3.43704 14.5158L3.4297 14.5077L3.42202 14.5001L3.06847 14.8536ZM2.78068 14.5401L2.36639 14.82L2.36639 14.82L2.78068 14.5401ZM2.72908 13.5056L2.28899 13.2682L2.28899 13.2682L2.72908 13.5056ZM2.98425 13.1649L3.37123 13.4815L3.37792 13.4734L3.38425 13.4649L2.98425 13.1649ZM2.98426 13.1649L2.59728 12.8483L2.59059 12.8565L2.58426 12.8649L2.98426 13.1649ZM3.43602 12.5511L3.89548 12.7484L3.89548 12.7484L3.43602 12.5511ZM2.88796 11.228L3.0734 10.7637L3.0734 10.7637L2.88796 11.228ZM2.13453 11.1135L2.05233 11.6066L2.06848 11.6093L2.08478 11.611L2.13453 11.1135ZM2.13451 11.1134L2.21671 10.6203L2.20055 10.6176L2.18426 10.6159L2.13451 11.1134ZM1.71325 11.053L1.56987 11.532L1.56987 11.532L1.71325 11.053ZM1.01822 10.285L0.527325 10.38L0.527325 10.38L1.01822 10.285ZM1.01823 8.38157L1.50912 8.47661L1.50912 8.47661L1.01823 8.38157ZM1.71317 7.61367L1.56975 7.13468L1.56975 7.13468L1.71317 7.61367ZM2.13463 7.5532L2.08488 7.05568L2.08488 7.05568L2.13463 7.5532ZM2.88839 7.43858L3.07388 7.9029L3.07388 7.9029L2.88839 7.43858ZM3.43638 6.11561L3.89587 5.91845L3.89587 5.91845L3.43638 6.11561ZM2.9844 5.50151L3.37138 5.1849L3.37138 5.1849L2.9844 5.50151ZM2.72906 5.16064L3.16918 4.92337L3.16918 4.92337L2.72906 5.16064ZM2.78065 4.12633L3.19498 4.40621L3.19498 4.40621L2.78065 4.12633ZM4.12662 2.78033L3.84669 2.36604L3.84669 2.36604L4.12662 2.78033ZM5.16111 2.72874L4.92379 3.16883L4.92379 3.16883L5.16111 2.72874ZM5.50182 2.98396L5.18516 3.37099L5.19147 3.37598L5.50182 2.98396ZM5.50183 2.98397L5.83108 2.60768L5.82183 2.59958L5.81218 2.59195L5.50183 2.98397ZM5.50183 2.98397L5.17258 3.36026L5.17881 3.36571L5.18521 3.37095L5.50183 2.98397ZM6.11545 3.43565L6.31273 2.97621L6.31272 2.97621L6.11545 3.43565ZM7.43873 2.88752L6.97437 2.70215L6.97437 2.70215L7.43873 2.88752ZM7.55322 2.13442L7.05571 2.08467L7.05571 2.08467L7.55322 2.13442ZM7.61363 1.71333L8.09264 1.85667L8.09264 1.85666L7.61363 1.71333ZM8.38174 1.0182L8.47669 1.5091L8.47669 1.5091L8.38174 1.0182ZM10.285 1.01822L10.19 1.50911L10.19 1.50911L10.285 1.01822ZM11.611 2.08478C11.5913 1.88762 11.5767 1.71907 11.532 1.56987L10.574 1.85662C10.5843 1.89113 10.5917 1.9422 10.6159 2.18428L11.611 2.08478ZM11.6924 2.70253C11.6892 2.69472 11.6774 2.6588 11.6618 2.54801C11.6466 2.44023 11.6321 2.29648 11.611 2.08478L10.6159 2.18428C10.6363 2.38754 10.6529 2.555 10.6716 2.68745C10.6898 2.81689 10.7145 2.95021 10.7637 3.07339L11.6924 2.70253ZM12.3539 2.97656C12.0956 3.08746 11.7966 2.96362 11.6924 2.70253L10.7637 3.0734C11.0765 3.85667 11.9733 4.22816 12.7484 3.89548L12.3539 2.97656ZM12.8483 2.5973C12.6836 2.73202 12.5717 2.82344 12.4848 2.88892C12.3954 2.95622 12.3617 2.97324 12.3539 2.97656L12.7484 3.89548C12.8703 3.84316 12.982 3.76635 13.0864 3.68771C13.1932 3.60725 13.3234 3.50061 13.4815 3.37126L12.8483 2.5973ZM12.8229 2.61951L12.8229 2.61951L13.5069 3.34905L13.5069 3.34904L12.8229 2.61951ZM12.8836 2.57091L12.8836 2.57092L13.4462 3.39763L13.4462 3.39763L12.8836 2.57091ZM13.2682 2.28904C13.1311 2.36296 13.0016 2.47183 12.8483 2.59729L13.4815 3.37125C13.6698 3.2172 13.7111 3.18631 13.7428 3.16921L13.2682 2.28904ZM14.82 2.36643C14.3574 2.05388 13.7595 2.02406 13.2682 2.28904L13.7428 3.16921C13.9066 3.08089 14.1059 3.09083 14.2601 3.19501L14.82 2.36643ZM15.2071 2.71495C15.067 2.57484 14.949 2.45363 14.82 2.36643L14.2601 3.19501C14.2899 3.21517 14.328 3.25003 14.5 3.42205L15.2071 2.71495ZM15.9517 3.4595L15.2071 2.71495L14.5 3.42205L15.2446 4.16661L15.9517 3.4595ZM16.3002 3.84667C16.213 3.71763 16.0918 3.59961 15.9517 3.4595L15.2446 4.16661C15.4166 4.33864 15.4515 4.3767 15.4716 4.40654L16.3002 3.84667ZM16.3776 5.39844C16.6426 4.90708 16.6128 4.30923 16.3002 3.84667L15.4716 4.40654C15.5758 4.56073 15.5858 4.76001 15.4974 4.9238L16.3776 5.39844ZM16.0693 5.81837C16.1948 5.66501 16.3037 5.53552 16.3776 5.39844L15.4974 4.9238C15.4803 4.9555 15.4494 4.99683 15.2954 5.18513L16.0693 5.81837ZM15.6901 6.31275C15.6934 6.30502 15.7104 6.27124 15.7777 6.18187C15.8432 6.09492 15.9346 5.98304 16.0693 5.81837L15.2954 5.18513C15.166 5.34323 15.0594 5.47342 14.9789 5.58027C14.9003 5.68469 14.8235 5.79642 14.7711 5.91831L15.6901 6.31275ZM15.9641 6.97431C15.703 6.87004 15.5792 6.57109 15.6901 6.31275L14.7711 5.91832C14.4385 6.69334 14.81 7.59019 15.5932 7.90299L15.9641 6.97431ZM16.5819 7.05569C16.3702 7.03452 16.2264 7.02005 16.1186 7.00487C16.0078 6.98927 15.9719 6.97743 15.9641 6.97431L15.5932 7.90299C15.7164 7.95219 15.8497 7.97687 15.9792 7.9951C16.1116 8.01375 16.2791 8.0304 16.4824 8.05073L16.5819 7.05569ZM17.0968 7.13465C16.9476 7.08999 16.779 7.07541 16.5819 7.05569L16.4824 8.05073C16.7245 8.07494 16.7755 8.08233 16.8101 8.09265L17.0968 7.13465ZM18.1393 8.28663C18.0333 7.73856 17.6316 7.29474 17.0968 7.13465L16.8101 8.09265C16.9883 8.14602 17.1222 8.29396 17.1576 8.47665L18.1393 8.28663ZM18.1667 8.80687C18.1667 8.60871 18.1689 8.43954 18.1393 8.28663L17.1576 8.47664C17.1644 8.51201 17.1667 8.56356 17.1667 8.80687H18.1667ZM18.1667 9.8599V8.80687H17.1667V9.8599H18.1667ZM18.1394 10.3799C18.1689 10.2271 18.1667 10.058 18.1667 9.8599H17.1667C17.1667 10.1031 17.1644 10.1546 17.1576 10.19L18.1394 10.3799ZM17.0967 11.532C17.6316 11.372 18.0333 10.9281 18.1394 10.3799L17.1576 10.19C17.1222 10.3727 16.9883 10.5207 16.81 10.574L17.0967 11.532ZM16.5819 11.611C16.7791 11.5913 16.9476 11.5767 17.0967 11.532L16.81 10.574C16.7755 10.5843 16.7245 10.5917 16.4824 10.6159L16.5819 11.611ZM15.9645 11.6923C15.9723 11.6892 16.0082 11.6773 16.1189 11.6618C16.2267 11.6466 16.3703 11.6321 16.5819 11.611L16.4824 10.6159C16.2793 10.6362 16.1119 10.6529 15.9795 10.6715C15.8501 10.6897 15.7169 10.7144 15.5938 10.7636L15.9645 11.6923ZM15.6904 12.354C15.5794 12.0956 15.7033 11.7965 15.9645 11.6923L15.5938 10.7636C14.8103 11.0763 14.4387 11.9734 14.7715 12.7486L15.6904 12.354ZM16.0695 12.848C15.9348 12.6835 15.8435 12.5716 15.778 12.4848C15.7107 12.3954 15.6937 12.3617 15.6904 12.354L14.7715 12.7486C14.8239 12.8704 14.9006 12.982 14.9792 13.0864C15.0596 13.1932 15.1662 13.3233 15.2955 13.4813L16.0695 12.848ZM16.036 12.8111L16.036 12.8111L15.3289 13.5182L15.3289 13.5182L16.036 12.8111ZM16.036 12.8111L16.036 12.8111L15.3289 13.5182L15.3289 13.5182L16.036 12.8111ZM16.3776 13.2677C16.3037 13.1307 16.1949 13.0013 16.0695 12.8481L15.2955 13.4813C15.4495 13.6695 15.4803 13.7108 15.4974 13.7424L16.3776 13.2677ZM16.3002 14.8198C16.6128 14.3571 16.6426 13.7591 16.3776 13.2677L15.4974 13.7424C15.5858 13.9063 15.5759 14.1056 15.4716 14.2598L16.3002 14.8198ZM15.9518 15.2067C16.0918 15.0667 16.213 14.9487 16.3002 14.8198L15.4716 14.2598C15.4515 14.2896 15.4166 14.3277 15.2447 14.4996L15.9518 15.2067ZM15.2072 15.9514L15.9518 15.2067L15.2447 14.4996L14.5001 15.2442L15.2072 15.9514ZM14.82 16.2999C14.949 16.2127 15.0671 16.0915 15.2072 15.9514L14.5001 15.2442C14.328 15.4163 14.29 15.4511 14.2601 15.4713L14.82 16.2999ZM13.2682 16.3773C13.7596 16.6422 14.3575 16.6124 14.82 16.2999L14.2601 15.4713C14.106 15.5755 13.9067 15.5854 13.7429 15.4971L13.2682 16.3773ZM12.8483 16.069C13.0017 16.1945 13.1312 16.3033 13.2682 16.3773L13.7429 15.4971C13.7112 15.48 13.6698 15.4491 13.4816 15.2951L12.8483 16.069ZM12.8876 16.098L12.8876 16.0981L13.4423 15.266L13.4423 15.266L12.8876 16.098ZM12.8526 16.0724L12.8526 16.0725L13.4773 15.2916L13.4773 15.2916L12.8526 16.0724ZM12.354 15.6897C12.3617 15.6931 12.3955 15.7101 12.4848 15.7774C12.5718 15.8429 12.6836 15.9343 12.8483 16.069L13.4815 15.295C13.3234 15.1657 13.1933 15.059 13.0864 14.9786C12.982 14.8999 12.8703 14.8231 12.7484 14.7708L12.354 15.6897ZM11.6924 15.9638C11.7967 15.7027 12.0956 15.5788 12.354 15.6897L12.7484 14.7708C11.9734 14.4381 11.0765 14.8096 10.7637 15.5929L11.6924 15.9638ZM11.611 16.5817C11.6322 16.3699 11.6466 16.2261 11.6618 16.1183C11.6774 16.0075 11.6893 15.9716 11.6924 15.9638L10.7637 15.5929C10.7145 15.7161 10.6898 15.8494 10.6716 15.9789C10.6529 16.1114 10.6363 16.2789 10.616 16.4822L11.611 16.5817ZM11.6038 16.63L11.6038 16.63L10.6232 16.4339L10.6232 16.4339L11.6038 16.63ZM11.532 17.0969C11.5767 16.9477 11.5913 16.779 11.611 16.5817L10.616 16.4822C10.5917 16.7245 10.5843 16.7756 10.574 16.8101L11.532 17.0969ZM10.3802 18.1393C10.9281 18.0332 11.3719 17.6316 11.532 17.0969L10.574 16.8101C10.5206 16.9883 10.3727 17.1222 10.1901 17.1575L10.3802 18.1393ZM9.85969 18.1667C10.0579 18.1667 10.2272 18.1689 10.3802 18.1393L10.1901 17.1575C10.1547 17.1644 10.1031 17.1667 9.85969 17.1667V18.1667ZM8.80687 18.1667H9.85969V17.1667H8.80687V18.1667ZM8.28663 18.1393C8.43954 18.1689 8.60871 18.1667 8.80687 18.1667V17.1667C8.56356 17.1667 8.51201 17.1644 8.47665 17.1576L8.28663 18.1393ZM7.13465 17.0968C7.29474 17.6316 7.73856 18.0333 8.28663 18.1393L8.47665 17.1576C8.29396 17.1222 8.14601 16.9883 8.09265 16.81L7.13465 17.0968ZM7.05569 16.5819C7.07541 16.7791 7.08999 16.9476 7.13465 17.0968L8.09265 16.8101C8.08233 16.7755 8.07494 16.7245 8.05073 16.4824L7.05569 16.5819ZM6.97431 15.9641C6.97743 15.9719 6.98927 16.0078 7.00487 16.1186C7.02005 16.2264 7.03452 16.3702 7.05569 16.5819L8.05073 16.4824C8.0304 16.2791 8.01375 16.1116 7.9951 15.9792C7.97687 15.8497 7.95218 15.7164 7.90298 15.5932L6.97431 15.9641ZM6.31275 15.6901C6.57109 15.5792 6.87004 15.703 6.9743 15.9641L7.90298 15.5932C7.59018 14.81 6.69335 14.4385 5.91833 14.7711L6.31275 15.6901ZM5.81835 16.0694C5.98303 15.9346 6.09492 15.8432 6.18187 15.7777C6.27124 15.7104 6.30502 15.6934 6.31275 15.6901L5.91833 14.7711C5.79643 14.8235 5.6847 14.9003 5.58027 14.9789C5.47342 15.0594 5.34322 15.166 5.18511 15.2954L5.81835 16.0694ZM5.39839 16.3777C5.53548 16.3037 5.66498 16.1948 5.81835 16.0694L5.18511 15.2954C4.9968 15.4495 4.95546 15.4804 4.92376 15.4975L5.39839 16.3777ZM3.84665 16.3003C4.3092 16.6128 4.90704 16.6426 5.39839 16.3777L4.92376 15.4975C4.75997 15.5858 4.56069 15.5758 4.40651 15.4717L3.84665 16.3003ZM3.45947 15.9517C3.59958 16.0918 3.7176 16.2131 3.84665 16.3003L4.40651 15.4717C4.37667 15.4515 4.33861 15.4167 4.16657 15.2446L3.45947 15.9517ZM3.44136 15.9326L3.44137 15.9327L4.18467 15.2637L4.18465 15.2637L3.44136 15.9326ZM2.71492 15.2072L3.45945 15.9517L4.16656 15.2446L3.42203 14.5001L2.71492 15.2072ZM2.69989 15.1915L2.6999 15.1915L3.43705 14.5158L3.43704 14.5158L2.69989 15.1915ZM2.36639 14.82C2.45358 14.949 2.5748 15.0671 2.71491 15.2072L3.42202 14.5001C3.24999 14.328 3.21513 14.29 3.19497 14.2601L2.36639 14.82ZM2.28899 13.2682C2.02403 13.7596 2.05385 14.3574 2.36639 14.82L3.19497 14.2601C3.09079 14.1059 3.08085 13.9067 3.16917 13.7429L2.28899 13.2682ZM2.59728 12.8483C2.47179 13.0017 2.36291 13.1312 2.28899 13.2682L3.16917 13.7429C3.18627 13.7112 3.21716 13.6698 3.37123 13.4815L2.59728 12.8483ZM2.58426 12.8649L2.58425 12.8649L3.38425 13.4649L3.38426 13.4649L2.58426 12.8649ZM2.97656 12.3539C2.97324 12.3616 2.95622 12.3954 2.88891 12.4848C2.82342 12.5717 2.73201 12.6836 2.59728 12.8483L3.37124 13.4815C3.50059 13.3234 3.60723 13.1932 3.6877 13.0864C3.76635 12.982 3.84316 12.8702 3.89548 12.7484L2.97656 12.3539ZM2.70253 11.6924C2.96362 11.7966 3.08745 12.0956 2.97656 12.3539L3.89548 12.7484C4.22816 11.9733 3.85666 11.0765 3.0734 10.7637L2.70253 11.6924ZM2.08478 11.611C2.29647 11.6321 2.44023 11.6466 2.54801 11.6618C2.6588 11.6774 2.69472 11.6892 2.70253 11.6924L3.0734 10.7637C2.95021 10.7145 2.81689 10.6898 2.68745 10.6716C2.555 10.6529 2.38754 10.6363 2.18428 10.6159L2.08478 11.611ZM2.05231 11.6066L2.05233 11.6066L2.21673 10.6203L2.21671 10.6203L2.05231 11.6066ZM1.56987 11.532C1.71907 11.5767 1.88761 11.5913 2.08476 11.611L2.18426 10.6159C1.9422 10.5917 1.89112 10.5843 1.85662 10.574L1.56987 11.532ZM0.527325 10.38C0.633396 10.9281 1.03506 11.3719 1.56987 11.532L1.85662 10.574C1.67835 10.5207 1.54447 10.3727 1.50911 10.19L0.527325 10.38ZM0.5 9.85981C0.5 10.058 0.497735 10.2271 0.527325 10.38L1.50911 10.19C1.50227 10.1547 1.5 10.1031 1.5 9.85981H0.5ZM0.5 8.80695V9.85981H1.5V8.80695H0.5ZM0.527349 8.28652C0.497733 8.43949 0.5 8.60872 0.5 8.80695H1.5C1.5 8.56356 1.50227 8.51198 1.50912 8.47661L0.527349 8.28652ZM1.56975 7.13468C1.03504 7.29478 0.633448 7.73854 0.527349 8.28653L1.50912 8.47661C1.54448 8.29395 1.67835 8.14603 1.85658 8.09266L1.56975 7.13468ZM2.08488 7.05568C1.88763 7.07541 1.71901 7.08999 1.56975 7.13468L1.85658 8.09266C1.8911 8.08233 1.94219 8.07494 2.18438 8.05072L2.08488 7.05568ZM2.7029 6.97426C2.69508 6.97738 2.65915 6.98923 2.54832 7.00484C2.44049 7.02003 2.29667 7.03451 2.08488 7.05568L2.18438 8.05072C2.38773 8.03039 2.55526 8.01373 2.68777 7.99507C2.81727 7.97683 2.95064 7.95213 3.07388 7.9029L2.7029 6.97426ZM2.9769 6.31278C3.08774 6.57109 2.96393 6.86998 2.7029 6.97426L3.07388 7.9029C3.85697 7.59006 4.22839 6.69339 3.89587 5.91845L2.9769 6.31278ZM2.59742 5.81813C2.73222 5.98289 2.82369 6.09483 2.8892 6.18183C2.95655 6.27125 2.97358 6.30504 2.9769 6.31278L3.89587 5.91845C3.84354 5.79649 3.76669 5.68471 3.68801 5.58024C3.6075 5.47334 3.5008 5.34308 3.37138 5.1849L2.59742 5.81813ZM2.28895 5.3979C2.3629 5.53508 2.47185 5.66467 2.59742 5.81813L3.37138 5.1849C3.2172 4.99646 3.18628 4.95509 3.16918 4.92337L2.28895 5.3979ZM2.36633 3.84644C2.05391 4.30893 2.0241 4.90663 2.28895 5.39791L3.16918 4.92337C3.0809 4.75961 3.09084 4.56038 3.19498 4.40621L2.36633 3.84644ZM2.71506 3.45902C2.57486 3.59922 2.45356 3.71731 2.36633 3.84645L3.19498 4.40621C3.21515 4.37635 3.25002 4.33827 3.42217 4.16613L2.71506 3.45902ZM3.45949 2.71459L2.71506 3.45902L3.42217 4.16613L4.1666 3.42169L3.45949 2.71459ZM3.84669 2.36604C3.71764 2.45324 3.59961 2.57447 3.45949 2.71459L4.1666 3.42169C4.33864 3.24965 4.3767 3.21479 4.40655 3.19463L3.84669 2.36604ZM5.39843 2.28865C4.90708 2.02369 4.30924 2.05351 3.84669 2.36604L4.40655 3.19463C4.56073 3.09045 4.76001 3.08051 4.92379 3.16883L5.39843 2.28865ZM5.81844 2.59698C5.66504 2.47147 5.53551 2.36257 5.39842 2.28865L4.92379 3.16883C4.95549 3.18592 4.99685 3.21683 5.1852 3.37094L5.81844 2.59698ZM5.81218 2.59195L5.81217 2.59194L5.19147 3.37598L5.19148 3.37599L5.81218 2.59195ZM5.83109 2.60768L5.83108 2.60768L5.17258 3.36026L5.17258 3.36026L5.83109 2.60768ZM6.31272 2.97621C6.305 2.9729 6.27124 2.95587 6.18188 2.88857C6.09495 2.8231 5.98309 2.73169 5.81845 2.59699L5.18521 3.37095C5.34329 3.50028 5.47345 3.6069 5.58026 3.68735C5.68464 3.76597 5.79633 3.84277 5.91817 3.89508L6.31272 2.97621ZM6.97437 2.70215C6.87012 2.9633 6.5711 3.08715 6.31273 2.97621L5.91817 3.89508C6.6933 4.22791 7.59035 3.85634 7.9031 3.0729L6.97437 2.70215ZM7.05571 2.08467C7.03455 2.29627 7.02008 2.43996 7.00491 2.5477C6.98932 2.65843 6.97749 2.69434 6.97437 2.70215L7.9031 3.0729C7.95226 2.94976 7.97693 2.8165 7.99515 2.68711C8.01378 2.55473 8.03043 2.38734 8.05074 2.18417L7.05571 2.08467ZM7.13461 1.57C7.08999 1.71913 7.07541 1.8876 7.05571 2.08467L8.05074 2.18417C8.07494 1.9422 8.08232 1.89115 8.09264 1.85667L7.13461 1.57ZM8.28678 0.5273C7.73859 0.633341 7.29467 1.03508 7.13461 1.57L8.09264 1.85666C8.14599 1.67836 8.29397 1.54445 8.47669 1.5091L8.28678 0.5273ZM8.80675 0.5C8.60869 0.5 8.43961 0.497737 8.28678 0.5273L8.47669 1.5091C8.51204 1.50226 8.56357 1.5 8.80675 1.5V0.5ZM9.85981 0.5H8.80675V1.5H9.85981V0.5ZM10.38 0.527325C10.2271 0.497734 10.058 0.5 9.85981 0.5V1.5C10.1031 1.5 10.1547 1.50227 10.19 1.50911L10.38 0.527325ZM11.532 1.56987C11.3719 1.03506 10.9281 0.633396 10.38 0.527325L10.19 1.50911C10.3727 1.54447 10.5207 1.67835 10.574 1.85662L11.532 1.56987ZM12.1667 9.33333C12.1667 10.8981 10.8981 12.1667 9.33333 12.1667V13.1667C11.4504 13.1667 13.1667 11.4504 13.1667 9.33333H12.1667ZM9.33333 6.5C10.8981 6.5 12.1667 7.76853 12.1667 9.33333H13.1667C13.1667 7.21624 11.4504 5.5 9.33333 5.5V6.5ZM6.5 9.33333C6.5 7.76853 7.76853 6.5 9.33333 6.5V5.5C7.21624 5.5 5.5 7.21624 5.5 9.33333H6.5ZM9.33333 12.1667C7.76853 12.1667 6.5 10.8981 6.5 9.33333H5.5C5.5 11.4504 7.21624 13.1667 9.33333 13.1667V12.1667Z" fill="#394256"/>
</svg>
