<svg width="14" height="14" viewBox="0 0 14 14" fill="none" xmlns="http://www.w3.org/2000/svg">
<path fill-rule="evenodd" clip-rule="evenodd" d="M10.6712 3.67647C9.93216 3.67647 9.33301 3.07732 9.33301 2.33824C9.33301 1.59915 9.93216 1 10.6712 1C11.4103 1 12.0095 1.59915 12.0095 2.33824C12.0095 3.07732 11.4103 3.67647 10.6712 3.67647ZM8.74274 3.66083C9.16422 4.27422 9.87076 4.67647 10.6712 4.67647C11.9626 4.67647 13.0095 3.62961 13.0095 2.33824C13.0095 1.04686 11.9626 0 10.6712 0C9.37987 0 8.33301 1.04686 8.33301 2.33824C8.33301 2.46556 8.34318 2.5905 8.36277 2.7123L4.27413 5.43805C3.85355 4.81857 3.14342 4.41158 2.33824 4.41158C1.04686 4.41158 0 5.45844 0 6.74981C0 8.04118 1.04686 9.08805 2.33824 9.08805C3.14348 9.08805 3.85366 8.681 4.27423 8.06144L8.36284 10.7872C8.34321 10.9091 8.33301 11.0342 8.33301 11.1617C8.33301 12.453 9.37987 13.4999 10.6712 13.4999C11.9626 13.4999 13.0095 12.453 13.0095 11.1617C13.0095 9.87031 11.9626 8.82344 10.6712 8.82344C9.8709 8.82344 9.16448 9.22555 8.74297 9.83875L4.64899 7.10943C4.66708 6.9922 4.67647 6.8721 4.67647 6.74981C4.67647 6.62746 4.66707 6.5073 4.64896 6.39002L8.74274 3.66083ZM2.33824 5.41158C1.59915 5.41158 1 6.01073 1 6.74981C1 7.4889 1.59915 8.08805 2.33824 8.08805C3.07732 8.08805 3.67647 7.4889 3.67647 6.74981C3.67647 6.01073 3.07732 5.41158 2.33824 5.41158ZM10.6712 9.82344C9.93216 9.82344 9.33301 10.4226 9.33301 11.1617C9.33301 11.9008 9.93216 12.4999 10.6712 12.4999C11.4103 12.4999 12.0095 11.9008 12.0095 11.1617C12.0095 10.4226 11.4103 9.82344 10.6712 9.82344Z" fill="#3478F6"/>
</svg>
