<svg width="20" height="20" viewBox="0 0 20 20" fill="none" xmlns="http://www.w3.org/2000/svg">
<path fill-rule="evenodd" clip-rule="evenodd" d="M14.3382 6.50997C13.5991 6.50997 13 5.91082 13 5.17173C13 4.43264 13.5991 3.8335 14.3382 3.8335C15.0773 3.8335 15.6765 4.43264 15.6765 5.17173C15.6765 5.91082 15.0773 6.50997 14.3382 6.50997ZM12.41 6.49466C12.8315 7.10786 13.5379 7.50997 14.3382 7.50997C15.6296 7.50997 16.6765 6.4631 16.6765 5.17173C16.6765 3.88036 15.6296 2.8335 14.3382 2.8335C13.0469 2.8335 12 3.88036 12 5.17173C12 5.2992 12.0102 5.4243 12.0298 5.54623L7.9409 8.27218C7.52036 7.65248 6.8101 7.24532 6.00474 7.24532C4.71337 7.24532 3.6665 8.29218 3.6665 9.58355C3.6665 10.8749 4.71337 11.9218 6.00474 11.9218C6.81001 11.9218 7.52021 11.5147 7.94077 10.8951L12.0298 13.6211C12.0102 13.7429 12 13.8679 12 13.9952C12 15.2865 13.0469 16.3334 14.3382 16.3334C15.6296 16.3334 16.6765 15.2865 16.6765 13.9952C16.6765 12.7038 15.6296 11.6569 14.3382 11.6569C13.5377 11.6569 12.8312 12.0592 12.4097 12.6726L8.3155 9.94309C8.33359 9.82589 8.34297 9.70582 8.34297 9.58355C8.34297 9.46138 8.3336 9.34139 8.31554 9.22427L12.41 6.49466ZM6.00474 8.24532C5.26565 8.24532 4.6665 8.84447 4.6665 9.58355C4.6665 10.3226 5.26565 10.9218 6.00474 10.9218C6.74383 10.9218 7.34297 10.3226 7.34297 9.58355C7.34297 8.84447 6.74383 8.24532 6.00474 8.24532ZM14.3382 12.6569C13.5991 12.6569 13 13.2561 13 13.9952C13 14.7343 13.5991 15.3334 14.3382 15.3334C15.0773 15.3334 15.6765 14.7343 15.6765 13.9952C15.6765 13.2561 15.0773 12.6569 14.3382 12.6569Z" fill="#3478F6"/>
</svg>
