<svg width="15" height="15" viewBox="0 0 15 15" fill="none" xmlns="http://www.w3.org/2000/svg">
<path fill-rule="evenodd" clip-rule="evenodd" d="M7.52095 6.66667L6.81384 7.37378L3.12695 3.68689L6.81384 5.55425e-06L7.52095 0.707112L5.04117 3.18689L10.5007 3.18689C12.1576 3.18689 13.5007 4.53004 13.5007 6.18689C13.5007 6.46303 13.2769 6.68689 13.0007 6.68689C12.7246 6.68689 12.5007 6.46303 12.5007 6.18689C12.5007 5.08232 11.6053 4.18689 10.5007 4.18689L5.04117 4.18689L7.52095 6.66667ZM10.147 13.3334L10.8541 14.0405L14.541 10.3536L10.8541 6.66675L10.147 7.37386L12.6268 9.85364L4.50057 9.85364C2.56758 9.85364 1.00058 8.28664 1.00058 6.35364V5.35364C1.00058 5.0775 0.776717 4.85364 0.500575 4.85364C0.224433 4.85364 0.000575236 5.0775 0.00057526 5.35364L0.000575347 6.35364C0.000575565 8.83892 2.01529 10.8536 4.50057 10.8536L12.6268 10.8536L10.147 13.3334Z" fill="#333333"/>
</svg>
