<svg width="15" height="13" viewBox="0 0 15 13" fill="none" xmlns="http://www.w3.org/2000/svg">
<path fill-rule="evenodd" clip-rule="evenodd" d="M0.93934 0.93934C1.22064 0.658035 1.60218 0.5 2 0.5H13C13.3978 0.5 13.7794 0.658035 14.0607 0.93934C14.342 1.22064 14.5 1.60218 14.5 2V9C14.5 9.39782 14.342 9.77936 14.0607 10.0607C13.7794 10.342 13.3978 10.5 13 10.5H8.81639L8.94139 11.5H10C10.2761 11.5 10.5 11.7239 10.5 12C10.5 12.2761 10.2761 12.5 10 12.5H5C4.72386 12.5 4.5 12.2761 4.5 12C4.5 11.7239 4.72386 11.5 5 11.5H6.05861L6.18361 10.5H2C1.60217 10.5 1.22064 10.342 0.93934 10.0607C0.658035 9.77936 0.5 9.39782 0.5 9V2C0.5 1.60218 0.658035 1.22064 0.93934 0.93934ZM13 9.5C13.1326 9.5 13.2598 9.44732 13.3536 9.35355C13.4473 9.25978 13.5 9.13261 13.5 9V2C13.5 1.86739 13.4473 1.74021 13.3536 1.64645C13.2598 1.55268 13.1326 1.5 13 1.5H2C1.86739 1.5 1.74021 1.55268 1.64645 1.64645C1.55268 1.74021 1.5 1.86739 1.5 2V9C1.5 9.13261 1.55268 9.25978 1.64645 9.35355C1.74022 9.44732 1.86739 9.5 2 9.5H13ZM7.19139 10.5L7.06639 11.5H7.93361L7.80861 10.5H7.19139Z" fill="#040B1B"/>
</svg>
