<svg width="16" height="15" viewBox="0 0 16 15" fill="none" xmlns="http://www.w3.org/2000/svg">
<path fill-rule="evenodd" clip-rule="evenodd" d="M2.08334 2.02852e-06L2.05591 0H2.05588C1.68652 -1.9728e-05 1.36827 -3.67239e-05 1.11342 0.0342273C0.84029 0.0709489 0.578478 0.153759 0.366119 0.366119C0.153759 0.578478 0.0709488 0.840291 0.0342273 1.11342C-3.67249e-05 1.36827 -1.9728e-05 1.68652 0 2.05588V2.05591L2.02852e-06 2.08334V4.16699V5L0 12.1111V12.1111C-1.9728e-05 12.4805 -3.67239e-05 12.7987 0.0342273 13.0536C0.0709489 13.3267 0.153759 13.5885 0.366119 13.8009C0.578478 14.0132 0.84029 14.096 1.11342 14.1328C1.36826 14.167 1.68649 14.167 2.05582 14.167H2.0559L5 14.167H5.83334H10H10.8333L13.7774 14.167H13.7775C14.1469 14.167 14.4651 14.167 14.7199 14.1328C14.993 14.096 15.2549 14.0132 15.4672 13.8009C15.6796 13.5885 15.7624 13.3267 15.7991 13.0536C15.8334 12.7987 15.8334 12.4805 15.8333 12.1111L15.8333 5L15.8333 2.0559V2.05582C15.8334 1.68649 15.8334 1.36826 15.7991 1.11342C15.7624 0.84029 15.6796 0.578478 15.4672 0.366119C15.2549 0.153759 14.993 0.0709489 14.7199 0.0342273C14.4651 -3.67248e-05 14.1468 -1.9728e-05 13.7775 0H13.7774L2.08334 2.02852e-06ZM0.955374 0.955374C0.987093 0.923656 1.04374 0.884427 1.22446 0.86013C1.41717 0.83422 1.67872 0.833335 2.08334 0.833335H13.75C14.1546 0.833335 14.4162 0.83422 14.6089 0.86013C14.7896 0.884427 14.8462 0.923656 14.878 0.955374C14.9097 0.987093 14.9489 1.04374 14.9732 1.22446C14.9991 1.41717 15 1.67872 15 2.08334V4.16667H0.833335V2.08334C0.833335 1.67872 0.83422 1.41717 0.86013 1.22446C0.884427 1.04374 0.923656 0.987093 0.955374 0.955374ZM5 5.00033V13.3337H2.08334C1.67872 13.3337 1.41717 13.3328 1.22446 13.3069C1.04374 13.2826 0.987093 13.2433 0.955374 13.2116C0.923656 13.1799 0.884427 13.1233 0.86013 12.9425C0.83422 12.7498 0.833335 12.4883 0.833335 12.0837V5.00033H5ZM10 13.3337H5.83333V5.00033H10V13.3337ZM13.75 13.3337H10.8333V5.00033H15V12.0837C15 12.4883 14.9991 12.7498 14.9732 12.9425C14.9489 13.1233 14.9097 13.1799 14.878 13.2116C14.8462 13.2433 14.7896 13.2826 14.6089 13.3069C14.4162 13.3328 14.1546 13.3337 13.75 13.3337Z" fill="black"/>
</svg>
