<svg width="16" height="16" viewBox="0 0 16 16" fill="none" xmlns="http://www.w3.org/2000/svg">
<path fill-rule="evenodd" clip-rule="evenodd" d="M7.66667 15.3333C11.9008 15.3333 15.3333 11.9008 15.3333 7.66667C15.3333 3.43248 11.9008 0 7.66667 0C3.43248 0 0 3.43248 0 7.66667C0 11.9008 3.43248 15.3333 7.66667 15.3333ZM14.3333 7.66667C14.3333 11.3486 11.3486 14.3333 7.66667 14.3333C3.98477 14.3333 1 11.3486 1 7.66667C1 3.98477 3.98477 1 7.66667 1C11.3486 1 14.3333 3.98477 14.3333 7.66667ZM7.66699 2.6665C8.99307 2.6665 10.2648 3.19329 11.2025 4.13097L7.66699 7.6665L4.13146 11.202C3.19378 10.2644 2.66699 8.99259 2.66699 7.6665C2.66699 6.34042 3.19378 5.06865 4.13146 4.13097C5.06914 3.19329 6.34091 2.6665 7.66699 2.6665Z" fill="black"/>
</svg>
