<svg width="13" height="3" viewBox="0 0 13 3" fill="none" xmlns="http://www.w3.org/2000/svg">
<path fill-rule="evenodd" clip-rule="evenodd" d="M1.25 2.5C1.01767 2.5 0.901509 2.5 0.80491 2.48079C0.408219 2.40188 0.0981214 2.09178 0.0192147 1.69509C0 1.59849 0 1.48233 0 1.25C0 1.01767 0 0.901509 0.0192146 0.80491C0.0981213 0.408219 0.408219 0.0981213 0.80491 0.0192146C0.901509 0 1.01767 0 1.25 0C1.48233 0 1.59849 0 1.69509 0.0192146C2.09178 0.0981212 2.40188 0.408219 2.48079 0.80491C2.5 0.901509 2.5 1.01767 2.5 1.25C2.5 1.48233 2.5 1.59849 2.48079 1.69509C2.40188 2.09178 2.09178 2.40188 1.69509 2.48079C1.59849 2.5 1.48233 2.5 1.25 2.5ZM6.25 2.5C6.01767 2.5 5.90151 2.5 5.80491 2.48079C5.40822 2.40188 5.09812 2.09178 5.01921 1.69509C5 1.59849 5 1.48233 5 1.25C5 1.01767 5 0.901509 5.01921 0.80491C5.09812 0.408219 5.40822 0.0981213 5.80491 0.0192146C5.90151 0 6.01767 0 6.25 0C6.48233 0 6.59849 0 6.69509 0.0192146C7.09178 0.0981212 7.40188 0.408219 7.48079 0.80491C7.5 0.901509 7.5 1.01767 7.5 1.25C7.5 1.48233 7.5 1.59849 7.48079 1.69509C7.40188 2.09178 7.09178 2.40188 6.69509 2.48079C6.59849 2.5 6.48233 2.5 6.25 2.5ZM10.8049 2.48079C10.9015 2.5 11.0177 2.5 11.25 2.5C11.4823 2.5 11.5985 2.5 11.6951 2.48079C12.0918 2.40188 12.4019 2.09178 12.4808 1.69509C12.5 1.59849 12.5 1.48233 12.5 1.25C12.5 1.01767 12.5 0.901509 12.4808 0.80491C12.4019 0.408219 12.0918 0.0981212 11.6951 0.0192146C11.5985 0 11.4823 0 11.25 0C11.0177 0 10.9015 0 10.8049 0.0192146C10.4082 0.0981213 10.0981 0.408219 10.0192 0.80491C10 0.901509 10 1.01767 10 1.25C10 1.48233 10 1.59849 10.0192 1.69509C10.0981 2.09178 10.4082 2.40188 10.8049 2.48079Z" fill="#394256"/>
</svg>
