<svg width="17" height="17" viewBox="0 0 17 17" fill="none" xmlns="http://www.w3.org/2000/svg">
<path fill-rule="evenodd" clip-rule="evenodd" d="M8.5 1.5C4.63401 1.5 1.5 4.63401 1.5 8.5C1.5 10.3215 2.19573 11.9805 3.33596 13.2258C3.7308 12.5138 4.335 11.8996 5.08621 11.4356C6.07494 10.8249 7.27482 10.5 8.50014 10.5C9.72545 10.5 10.9253 10.8249 11.9141 11.4356C12.6652 11.8996 13.2694 12.5136 13.6642 13.2256C14.8043 11.9804 15.5 10.3214 15.5 8.5C15.5 4.63401 12.366 1.5 8.5 1.5ZM12.9054 13.9402C12.6144 13.3013 12.0961 12.7234 11.3886 12.2864C10.5693 11.7804 9.55382 11.5 8.50014 11.5C7.44645 11.5 6.43102 11.7804 5.6117 12.2864C4.90413 12.7235 4.38578 13.3014 4.09482 13.9404C5.29781 14.9157 6.83067 15.5 8.5 15.5C10.1694 15.5 11.7024 14.9156 12.9054 13.9402ZM0.5 8.5C0.5 4.08172 4.08172 0.5 8.5 0.5C12.9183 0.5 16.5 4.08172 16.5 8.5C16.5 12.9183 12.9183 16.5 8.5 16.5C4.08172 16.5 0.5 12.9183 0.5 8.5ZM8.5 4.8335C7.39543 4.8335 6.5 5.72893 6.5 6.8335C6.5 7.93807 7.39543 8.8335 8.5 8.8335C9.60457 8.8335 10.5 7.93807 10.5 6.8335C10.5 5.72893 9.60457 4.8335 8.5 4.8335ZM5.5 6.8335C5.5 5.17664 6.84315 3.8335 8.5 3.8335C10.1569 3.8335 11.5 5.17664 11.5 6.8335C11.5 8.49035 10.1569 9.8335 8.5 9.8335C6.84315 9.8335 5.5 8.49035 5.5 6.8335Z" fill="black"/>
</svg>
